<svg width="56" height="56" viewBox="0 0 56 56" fill="none" xmlns="http://www.w3.org/2000/svg">
<rect width="56" height="56" fill="#9B9690"/>
<g id="&#208;&#163;&#209;&#129;&#208;&#187;&#209;&#131;&#208;&#179;&#208;&#184; &#208;&#184;&#208;&#186;&#208;&#190;&#208;&#189;&#208;&#186;&#208;&#184;">
<rect width="1011" height="462" transform="translate(-128 -85)" fill="white"/>
<g id="Component 49">
<rect x="-18.5" y="-18.5" width="793" height="308" rx="4.5" stroke="#9747FF" stroke-dasharray="10 5"/>
<g id="Property 1=Group 337630">
<g id="Group">
<path id="Vector" d="M22.687 25.4414L24.3669 25.1011L27.2892 22.1789L26.1674 21.058L23.5837 23.6418L21.9037 23.983L19.2705 26.6154L17.4843 24.8283L20.1167 22.196L20.4579 20.5161L29.0465 11.9275L32.1722 15.0532L27.6619 19.5636L28.7836 20.6844L33.294 16.1741L34.3221 17.2022L38.0312 13.493L36.3 11.7618L37.8484 10.2134C40.6222 10.5915 43.0997 8.42723 43.0997 5.62829C43.0983 4.40123 42.6102 3.22484 41.7425 2.35717C40.8749 1.48951 39.6985 1.00143 38.4714 1C35.668 1 33.5082 3.48204 33.8854 6.25128L32.337 7.79974L30.6067 6.06852L26.8975 9.77763L27.9257 10.8057L18.9986 19.7328L18.6583 21.4127L15.2417 24.8292L19.2705 28.858L22.687 25.4414ZM35.614 6.76533C35.505 6.30619 35.4285 6.04961 35.4285 5.62829C35.4295 4.82155 35.7504 4.04813 36.3208 3.47768C36.8913 2.90723 37.6647 2.58633 38.4714 2.58538C39.2782 2.58633 40.0516 2.90723 40.622 3.47768C41.1925 4.04813 41.5134 4.82155 41.5143 5.62829C41.5138 6.06981 41.4173 6.50593 41.2315 6.90643C41.0456 7.30693 40.7749 7.66222 40.4381 7.94767C40.1012 8.23312 39.7064 8.44189 39.2808 8.55952C38.8552 8.67715 38.4092 8.70082 37.9736 8.62889L36.8212 7.47654L35.6995 8.59738L36.4611 9.35901L35.1791 10.641L33.4587 8.92057L35.614 6.76533ZM35.7886 13.493L34.3212 14.9605L29.1401 9.77763L30.6058 8.31019L35.7886 13.493ZM16.675 36.8596C17.4964 36.8586 18.284 36.5318 18.8647 35.9509C19.4455 35.3699 19.7721 34.5823 19.7728 33.7608C19.7728 32.1682 17.5419 29.0929 16.675 27.8704C15.7711 29.1433 13.5771 32.1763 13.5771 33.7608C13.5781 34.582 13.9047 35.3692 14.4852 35.95C15.0658 36.5307 15.8529 36.8575 16.6741 36.8587L16.675 36.8596ZM16.6768 30.6567C17.6239 32.1304 18.1874 33.3557 18.1874 33.7608C18.1874 34.5945 17.5086 35.2733 16.675 35.2733C15.8404 35.2733 15.1625 34.5945 15.1625 33.7608C15.1625 33.2621 15.8674 31.9207 16.6768 30.6576V30.6567Z" fill="#E4772F" stroke="white" stroke-width="0.2"/>
<path id="Vector_2" d="M53.0671 41.1448V36.8487H43.3712V35.347L40.8613 32.937H26.9296L22.981 36.8478L19.9615 36.8505L19.9624 38.4358L23.6337 38.4331L27.5823 34.5233H40.2221L41.784 36.0222V36.8469H33.6771V38.4331H51.4808V41.143H40.4849V42.7283H53.4308V45.439H40.4849V47.0244H51.4817V49.7351H40.4849V51.3205H48.7359V53.4127H27.5679L23.658 49.4641L2.58538 49.4822V38.2423H12.8701V36.6569H1V51.072L22.9972 51.0522L26.9071 54.9999H50.3213V51.3232H53.0671V47.0262H55.0162V41.1448H53.0671ZM25.12 20.1027L23.9992 18.981L25.12 17.8602L26.2418 18.981L25.12 20.1018V20.1027ZM26.989 18.2338L25.8682 17.1129L26.989 15.9912L28.1098 17.1129L26.989 18.2338Z" fill="#E4772F" stroke="white" stroke-width="0.2"/>
<path id="Vector_3" d="M24.4436 42.0287V40.4424H22.8573V42.0287H24.4427H24.4436ZM24.4436 47.5527V45.9673H22.8573V47.5527H24.4427H24.4436ZM19.9837 42.0287V40.4424H18.3983V42.0287H19.9828H19.9837ZM19.9837 47.5527V45.9673H18.3983V47.5527H19.9828H19.9837ZM22.2136 44.7925V43.2062H20.6265V44.7907H22.2127L22.2136 44.7925ZM15.2816 42.0287V40.4424H13.6962V42.0287H15.2816ZM15.2816 47.5527V45.9673H13.6962V47.5527H15.2816ZM10.8207 42.0287V40.4424H9.23535V42.0287H10.8207ZM10.8207 47.5527V45.9673H9.23535V47.5527H10.8207ZM13.0507 44.7925V43.2062H11.4653V44.7907H13.0498L13.0507 44.7925ZM17.2793 44.7925V43.2062H15.6939V44.7907H17.2793V44.7925Z" fill="#E4772F" stroke="white" stroke-width="0.2"/>
</g>
</g>
</g>
</g>
</svg>
