<svg width="56" height="56" viewBox="0 0 56 56" fill="none" xmlns="http://www.w3.org/2000/svg">
<path d="M22.688 25.4414L24.3679 25.1011L27.2901 22.1789L26.1684 21.058L23.5846 23.6418L21.9047 23.983L19.2714 26.6154L17.4853 24.8283L20.1177 22.196L20.4589 20.5161L29.0475 11.9275L32.1732 15.0532L27.6628 19.5636L28.7846 20.6844L33.2949 16.1741L34.323 17.2022L38.0322 13.493L36.3009 11.7618L37.8494 10.2134C40.6231 10.5915 43.1007 8.42723 43.1007 5.62829C43.0993 4.40123 42.6112 3.22484 41.7435 2.35717C40.8758 1.48951 39.6995 1.00143 38.4724 1C35.669 1 33.5092 3.48204 33.8864 6.25128L32.3379 7.79974L30.6076 6.06852L26.8985 9.77763L27.9266 10.8057L18.9996 19.7328L18.6592 21.4127L15.2427 24.8292L19.2714 28.858L22.688 25.4414ZM35.6149 6.76533C35.506 6.30619 35.4295 6.04961 35.4295 5.62829C35.4304 4.82155 35.7513 4.04813 36.3218 3.47768C36.8922 2.90723 37.6657 2.58633 38.4724 2.58538C39.2791 2.58633 40.0526 2.90723 40.623 3.47768C41.1935 4.04813 41.5143 4.82155 41.5153 5.62829C41.5148 6.06981 41.4183 6.50593 41.2324 6.90643C41.0466 7.30693 40.7759 7.66222 40.439 7.94767C40.1022 8.23312 39.7073 8.44189 39.2818 8.55952C38.8562 8.67715 38.4102 8.70082 37.9745 8.62889L36.8222 7.47654L35.7005 8.59738L36.4621 9.35901L35.1801 10.641L33.4597 8.92057L35.6149 6.76533ZM35.7896 13.493L34.3221 14.9605L29.1411 9.77763L30.6067 8.31019L35.7896 13.493ZM16.676 36.8596C17.4974 36.8586 18.2849 36.5318 18.8657 35.9509C19.4465 35.3699 19.7731 34.5823 19.7738 33.7608C19.7738 32.1682 17.5429 29.0929 16.676 27.8704C15.7721 29.1433 13.5781 32.1763 13.5781 33.7608C13.5791 34.582 13.9056 35.3692 14.4862 35.95C15.0667 36.5307 15.8539 36.8575 16.6751 36.8587L16.676 36.8596ZM16.6778 30.6567C17.6248 32.1304 18.1884 33.3557 18.1884 33.7608C18.1884 34.5945 17.5096 35.2733 16.676 35.2733C15.8414 35.2733 15.1635 34.5945 15.1635 33.7608C15.1635 33.2621 15.8684 31.9207 16.6778 30.6576V30.6567Z" fill="#E4772F" stroke="white" stroke-width="0.2"/>
<path d="M53.0671 41.1448V36.8487H43.3712V35.347L40.8613 32.937H26.9296L22.981 36.8478L19.9615 36.8505L19.9624 38.4358L23.6337 38.4331L27.5823 34.5233H40.2221L41.784 36.0222V36.8469H33.6771V38.4331H51.4808V41.143H40.4849V42.7283H53.4308V45.439H40.4849V47.0244H51.4817V49.7351H40.4849V51.3205H48.7359V53.4127H27.5679L23.658 49.4641L2.58538 49.4822V38.2423H12.8701V36.6569H1V51.072L22.9972 51.0522L26.9071 54.9999H50.3213V51.3232H53.0671V47.0262H55.0162V41.1448H53.0671ZM25.12 20.1027L23.9992 18.981L25.12 17.8602L26.2418 18.981L25.12 20.1018V20.1027ZM26.989 18.2338L25.8682 17.1129L26.989 15.9912L28.1098 17.1129L26.989 18.2338Z" fill="#E4772F" stroke="white" stroke-width="0.2"/>
<path d="M24.4426 42.0287V40.4424H22.8564V42.0287H24.4417H24.4426ZM24.4426 47.5527V45.9673H22.8564V47.5527H24.4417H24.4426ZM19.9827 42.0287V40.4424H18.3973V42.0287H19.9818H19.9827ZM19.9827 47.5527V45.9673H18.3973V47.5527H19.9818H19.9827ZM22.2127 44.7925V43.2062H20.6255V44.7907H22.2118L22.2127 44.7925ZM15.2806 42.0287V40.4424H13.6952V42.0287H15.2806ZM15.2806 47.5527V45.9673H13.6952V47.5527H15.2806ZM10.8198 42.0287V40.4424H9.23438V42.0287H10.8198ZM10.8198 47.5527V45.9673H9.23438V47.5527H10.8198ZM13.0497 44.7925V43.2062H11.4643V44.7907H13.0488L13.0497 44.7925ZM17.2783 44.7925V43.2062H15.6929V44.7907H17.2783V44.7925Z" fill="#E4772F" stroke="white" stroke-width="0.2"/>
</svg>
