<svg width="54" height="54" viewBox="0 0 54 54" fill="none" xmlns="http://www.w3.org/2000/svg">
<g id="Anesteziologiya-i-reanimatologiya" clip-path="url(#clip0_482_6141)">
<g id="Group">
<path id="Vector" d="M38.6996 53.9999H27.8996C25.9142 53.9999 24.2996 52.3853 24.2996 50.3999V26.9999C24.2996 25.0145 25.9142 23.3999 27.8996 23.3999H38.6996C40.685 23.3999 42.2996 25.0145 42.2996 26.9999V50.3999C42.2996 52.3853 40.685 53.9999 38.6996 53.9999ZM27.8996 25.1999C26.9069 25.1999 26.0996 26.0072 26.0996 26.9999V50.3999C26.0996 51.3926 26.9069 52.1999 27.8996 52.1999H38.6996C39.6923 52.1999 40.4996 51.3926 40.4996 50.3999V26.9999C40.4996 26.0072 39.6923 25.1999 38.6996 25.1999H27.8996Z" fill="#E4772F" stroke="white" stroke-width="0.4"/>
<path id="Vector_2" d="M38.7 25.2H27.9C27.4032 25.2 27 24.7968 27 24.3V22.1427C27 20.8503 28.0503 19.8 29.3427 19.8H37.2582C38.5497 19.8 39.6 20.8503 39.6 22.1427V24.3C39.6 24.7968 39.1968 25.2 38.7 25.2ZM28.8 23.4H37.8V22.1427C37.8 21.8439 37.557 21.6 37.2573 21.6H29.3418C29.043 21.6 28.8 21.8439 28.8 22.1427V23.4Z" fill="#E4772F" stroke="white" stroke-width="0.4"/>
<path id="Vector_3" d="M35.1003 21.5999H31.5003C31.0035 21.5999 30.6003 21.1967 30.6003 20.6999V15.2999C30.6003 14.8031 31.0035 14.3999 31.5003 14.3999H35.1003C35.5971 14.3999 36.0003 14.8031 36.0003 15.2999V20.6999C36.0003 21.1967 35.5971 21.5999 35.1003 21.5999ZM32.4003 19.7999H34.2003V16.1999H32.4003V19.7999Z" fill="#E4772F" stroke="white" stroke-width="0.4"/>
<path id="Vector_4" d="M35.1 16.2H27.9C27.4032 16.2 27 15.7968 27 15.3V8.09995C27 7.60315 27.4032 7.19995 27.9 7.19995H35.1C37.5813 7.19995 39.6 9.21865 39.6 11.7C39.6 14.1813 37.5813 16.2 35.1 16.2ZM28.8 14.4H35.1C36.5886 14.4 37.8 13.1886 37.8 11.7C37.8 10.2114 36.5886 8.99995 35.1 8.99995H28.8V14.4Z" fill="#E4772F" stroke="white" stroke-width="0.4"/>
<path id="Vector_5" d="M27.8999 14.4H24.2999C23.8031 14.4 23.3999 13.9968 23.3999 13.5V9.9C23.3999 9.4032 23.8031 9 24.2999 9H27.8999C28.3967 9 28.7999 9.4032 28.7999 9.9V13.5C28.7999 13.9968 28.3967 14.4 27.8999 14.4ZM25.1999 12.6H26.9999V10.8H25.1999V12.6Z" fill="#E4772F" stroke="white" stroke-width="0.4"/>
<path id="Vector_6" d="M34.1996 44.9999H25.1996C24.7028 44.9999 24.2996 44.5967 24.2996 44.0999V33.2999C24.2996 32.8031 24.7028 32.3999 25.1996 32.3999H34.1996C34.6964 32.3999 35.0996 32.8031 35.0996 33.2999V44.0999C35.0996 44.5967 34.6964 44.9999 34.1996 44.9999ZM26.0996 43.1999H33.2996V34.1999H26.0996V43.1999Z" fill="#E4772F" stroke="white" stroke-width="0.4"/>
<path id="Vector_7" d="M41.3999 45H37.7999C37.3031 45 36.8999 44.5968 36.8999 44.1V33.3C36.8999 32.8032 37.3031 32.4 37.7999 32.4H41.3999C41.8967 32.4 42.2999 32.8032 42.2999 33.3V44.1C42.2999 44.5968 41.8967 45 41.3999 45ZM38.6999 43.2H40.4999V34.2H38.6999V43.2Z" fill="#E4772F" stroke="white" stroke-width="0.4"/>
<path id="Vector_8" d="M30.5996 37.8H25.1996C24.7028 37.8 24.2996 37.3968 24.2996 36.9C24.2996 36.4032 24.7028 36 25.1996 36H30.5996C31.0964 36 31.4996 36.4032 31.4996 36.9C31.4996 37.3968 31.0964 37.8 30.5996 37.8Z" fill="#E4772F" stroke="white" stroke-width="0.4"/>
<path id="Vector_9" d="M28.7996 41.4001H25.1996C24.7028 41.4001 24.2996 40.9969 24.2996 40.5001C24.2996 40.0033 24.7028 39.6001 25.1996 39.6001H28.7996C29.2964 39.6001 29.6996 40.0033 29.6996 40.5001C29.6996 40.9969 29.2964 41.4001 28.7996 41.4001Z" fill="#E4772F" stroke="white" stroke-width="0.4"/>
<path id="Vector_10" d="M14.4 23.4C12.9114 23.4 11.7 22.1886 11.7 20.7V2.7C11.7 1.2114 12.9114 0 14.4 0C15.8886 0 17.1 1.2114 17.1 2.7V20.7C17.1 22.1886 15.8886 23.4 14.4 23.4ZM14.4 1.8C13.9032 1.8 13.5 2.2041 13.5 2.7V20.7C13.5 21.1959 13.9032 21.6 14.4 21.6C14.8968 21.6 15.3 21.1959 15.3 20.7V2.7C15.3 2.2041 14.8968 1.8 14.4 1.8Z" fill="#E4772F" stroke="white" stroke-width="0.4"/>
<path id="Vector_11" d="M16.1996 20.7002C15.7028 20.7002 15.2996 20.297 15.2996 19.8002V3.6002C15.2996 3.1034 15.7028 2.7002 16.1996 2.7002C21.1622 2.7002 25.1996 6.7376 25.1996 11.7002C25.1996 16.6628 21.1622 20.7002 16.1996 20.7002ZM17.0996 4.556V18.8444C20.6465 18.3998 23.3996 15.365 23.3996 11.7002C23.3996 8.0354 20.6465 5.0006 17.0996 4.556Z" fill="#E4772F" stroke="white" stroke-width="0.4"/>
</g>
</g>
<defs>
<clipPath id="clip0_482_6141">
<rect width="54" height="54" fill="white"/>
</clipPath>
</defs>
</svg>
