<svg width="54" height="54" viewBox="0 0 54 54" fill="none" xmlns="http://www.w3.org/2000/svg">
<g id="Dermatologiya 3" clip-path="url(#clip0_220_1017)">
<g id="Group">
<path id="Vector" d="M53.1 27.9033H37.377C37.0623 27.9034 36.7705 28.0679 36.6075 28.3371C36.4445 28.6063 36.4339 28.9411 36.5796 29.22C38.9453 33.7641 37.793 39.3448 33.8211 42.5804C29.8492 45.816 24.1508 45.816 20.1789 42.5804C16.207 39.3448 15.0548 33.7641 17.4204 29.22C17.5661 28.9411 17.5555 28.6063 17.3925 28.3371C17.2295 28.0679 16.9377 27.9034 16.623 27.9033H0.9C0.402943 27.9033 0 28.3062 0 28.8033C0 29.3004 0.402943 29.7033 0.9 29.7033H15.2325C13.2242 34.9503 14.9324 40.8929 19.4204 44.2726C23.9083 47.6522 30.0917 47.6522 34.5796 44.2726C39.0676 40.8929 40.7758 34.9503 38.7675 29.7033H53.1C53.5971 29.7033 54 29.3004 54 28.8033C54 28.3062 53.5971 27.9033 53.1 27.9033Z" fill="#E4772F" stroke="white" stroke-width="0.4"/>
<path id="Vector_2" d="M32.1923 4.46135C29.5229 7.55465 25.9958 13.2175 24.3515 22.6333C23.9051 24.8943 22.7946 26.9709 21.1619 28.5976C18.2207 31.6603 18.1441 36.4746 20.9863 39.6295C23.8285 42.7844 28.6246 43.2089 31.9766 40.6022C35.3288 37.9954 36.0988 33.2426 33.7412 29.7109C31.8856 27.0923 31.0564 23.8834 31.4111 20.6938C31.944 15.767 33.2153 10.9485 35.1821 6.39995C35.5572 5.58723 35.2781 4.62243 34.527 4.13547C33.776 3.64851 32.7813 3.78736 32.1923 4.46135ZM29.6309 20.4589C29.2337 24.079 30.1609 27.7205 32.2409 30.7099C34.0745 33.4567 33.4757 37.1531 30.8689 39.1807C28.262 41.2082 24.5318 40.8784 22.3211 38.425C20.1102 35.9717 20.1692 32.2275 22.4561 29.845C24.3381 27.9606 25.6145 25.5573 26.1218 22.9429C27.6977 13.9321 31.0331 8.55815 33.5522 5.63675C31.5078 10.3524 30.1859 15.3492 29.6309 20.4589Z" fill="#E4772F" stroke="white" stroke-width="0.4"/>
<path id="Vector_3" d="M5.4 35.1032C5.89706 35.1032 6.3 34.7003 6.3 34.2032C6.3 33.7062 5.89706 33.3032 5.4 33.3032C4.90295 33.3032 4.5 33.7062 4.5 34.2032C4.5 34.7003 4.90295 35.1032 5.4 35.1032Z" fill="#E4772F" stroke="white" stroke-width="0.4"/>
<path id="Vector_4" d="M10.8004 35.1032C11.2975 35.1032 11.7004 34.7003 11.7004 34.2032C11.7004 33.7062 11.2975 33.3032 10.8004 33.3032C10.3033 33.3032 9.90039 33.7062 9.90039 34.2032C9.90039 34.7003 10.3033 35.1032 10.8004 35.1032Z" fill="#E4772F" stroke="white" stroke-width="0.4"/>
<path id="Vector_5" d="M2.70078 38.7033C3.19784 38.7033 3.60078 38.3004 3.60078 37.8033C3.60078 37.3063 3.19784 36.9033 2.70078 36.9033C2.20373 36.9033 1.80078 37.3063 1.80078 37.8033C1.80078 38.3004 2.20373 38.7033 2.70078 38.7033Z" fill="#E4772F" stroke="white" stroke-width="0.4"/>
<path id="Vector_6" d="M8.09922 38.7033C8.59628 38.7033 8.99922 38.3004 8.99922 37.8033C8.99922 37.3063 8.59628 36.9033 8.09922 36.9033C7.60217 36.9033 7.19922 37.3063 7.19922 37.8033C7.19922 38.3004 7.60217 38.7033 8.09922 38.7033Z" fill="#E4772F" stroke="white" stroke-width="0.4"/>
<path id="Vector_7" d="M5.4 42.3C5.89706 42.3 6.3 41.8971 6.3 41.4C6.3 40.9029 5.89706 40.5 5.4 40.5C4.90295 40.5 4.5 40.9029 4.5 41.4C4.5 41.8971 4.90295 42.3 5.4 42.3Z" fill="#E4772F" stroke="white" stroke-width="0.4"/>
<path id="Vector_8" d="M10.8004 42.3C11.2975 42.3 11.7004 41.8971 11.7004 41.4C11.7004 40.9029 11.2975 40.5 10.8004 40.5C10.3033 40.5 9.90039 40.9029 9.90039 41.4C9.90039 41.8971 10.3033 42.3 10.8004 42.3Z" fill="#E4772F" stroke="white" stroke-width="0.4"/>
<path id="Vector_9" d="M2.70078 45.9035C3.19784 45.9035 3.60078 45.5006 3.60078 45.0035C3.60078 44.5064 3.19784 44.1035 2.70078 44.1035C2.20373 44.1035 1.80078 44.5064 1.80078 45.0035C1.80078 45.5006 2.20373 45.9035 2.70078 45.9035Z" fill="#E4772F" stroke="white" stroke-width="0.4"/>
<path id="Vector_10" d="M8.09922 45.9035C8.59628 45.9035 8.99922 45.5006 8.99922 45.0035C8.99922 44.5064 8.59628 44.1035 8.09922 44.1035C7.60217 44.1035 7.19922 44.5064 7.19922 45.0035C7.19922 45.5006 7.60217 45.9035 8.09922 45.9035Z" fill="#E4772F" stroke="white" stroke-width="0.4"/>
<path id="Vector_11" d="M13.4996 45.9035C13.9967 45.9035 14.3996 45.5006 14.3996 45.0035C14.3996 44.5064 13.9967 44.1035 13.4996 44.1035C13.0025 44.1035 12.5996 44.5064 12.5996 45.0035C12.5996 45.5006 13.0025 45.9035 13.4996 45.9035Z" fill="#E4772F" stroke="white" stroke-width="0.4"/>
<path id="Vector_12" d="M5.4 49.5031C5.89706 49.5031 6.3 49.1002 6.3 48.6031C6.3 48.1061 5.89706 47.7031 5.4 47.7031C4.90295 47.7031 4.5 48.1061 4.5 48.6031C4.5 49.1002 4.90295 49.5031 5.4 49.5031Z" fill="#E4772F" stroke="white" stroke-width="0.4"/>
<path id="Vector_13" d="M10.8004 49.5031C11.2975 49.5031 11.7004 49.1002 11.7004 48.6031C11.7004 48.1061 11.2975 47.7031 10.8004 47.7031C10.3033 47.7031 9.90039 48.1061 9.90039 48.6031C9.90039 49.1002 10.3033 49.5031 10.8004 49.5031Z" fill="#E4772F" stroke="white" stroke-width="0.4"/>
<path id="Vector_14" d="M16.2008 49.5031C16.6979 49.5031 17.1008 49.1002 17.1008 48.6031C17.1008 48.1061 16.6979 47.7031 16.2008 47.7031C15.7037 47.7031 15.3008 48.1061 15.3008 48.6031C15.3008 49.1002 15.7037 49.5031 16.2008 49.5031Z" fill="#E4772F" stroke="white" stroke-width="0.4"/>
<path id="Vector_15" d="M21.5992 49.5031C22.0963 49.5031 22.4992 49.1002 22.4992 48.6031C22.4992 48.1061 22.0963 47.7031 21.5992 47.7031C21.1021 47.7031 20.6992 48.1061 20.6992 48.6031C20.6992 49.1002 21.1021 49.5031 21.5992 49.5031Z" fill="#E4772F" stroke="white" stroke-width="0.4"/>
<path id="Vector_16" d="M26.9996 49.5031C27.4967 49.5031 27.8996 49.1002 27.8996 48.6031C27.8996 48.1061 27.4967 47.7031 26.9996 47.7031C26.5025 47.7031 26.0996 48.1061 26.0996 48.6031C26.0996 49.1002 26.5025 49.5031 26.9996 49.5031Z" fill="#E4772F" stroke="white" stroke-width="0.4"/>
<path id="Vector_17" d="M48.5992 35.1032C49.0963 35.1032 49.4992 34.7003 49.4992 34.2032C49.4992 33.7062 49.0963 33.3032 48.5992 33.3032C48.1021 33.3032 47.6992 33.7062 47.6992 34.2032C47.6992 34.7003 48.1021 35.1032 48.5992 35.1032Z" fill="#E4772F" stroke="white" stroke-width="0.4"/>
<path id="Vector_18" d="M43.2008 35.1032C43.6979 35.1032 44.1008 34.7003 44.1008 34.2032C44.1008 33.7062 43.6979 33.3032 43.2008 33.3032C42.7037 33.3032 42.3008 33.7062 42.3008 34.2032C42.3008 34.7003 42.7037 35.1032 43.2008 35.1032Z" fill="#E4772F" stroke="white" stroke-width="0.4"/>
<path id="Vector_19" d="M51.3004 38.7033C51.7975 38.7033 52.2004 38.3004 52.2004 37.8033C52.2004 37.3063 51.7975 36.9033 51.3004 36.9033C50.8033 36.9033 50.4004 37.3063 50.4004 37.8033C50.4004 38.3004 50.8033 38.7033 51.3004 38.7033Z" fill="#E4772F" stroke="white" stroke-width="0.4"/>
<path id="Vector_20" d="M45.9 38.7033C46.3971 38.7033 46.8 38.3004 46.8 37.8033C46.8 37.3063 46.3971 36.9033 45.9 36.9033C45.4029 36.9033 45 37.3063 45 37.8033C45 38.3004 45.4029 38.7033 45.9 38.7033Z" fill="#E4772F" stroke="white" stroke-width="0.4"/>
<path id="Vector_21" d="M48.5992 42.3C49.0963 42.3 49.4992 41.8971 49.4992 41.4C49.4992 40.9029 49.0963 40.5 48.5992 40.5C48.1021 40.5 47.6992 40.9029 47.6992 41.4C47.6992 41.8971 48.1021 42.3 48.5992 42.3Z" fill="#E4772F" stroke="white" stroke-width="0.4"/>
<path id="Vector_22" d="M43.2008 42.3C43.6979 42.3 44.1008 41.8971 44.1008 41.4C44.1008 40.9029 43.6979 40.5 43.2008 40.5C42.7037 40.5 42.3008 40.9029 42.3008 41.4C42.3008 41.8971 42.7037 42.3 43.2008 42.3Z" fill="#E4772F" stroke="white" stroke-width="0.4"/>
<path id="Vector_23" d="M51.3004 45.9035C51.7975 45.9035 52.2004 45.5006 52.2004 45.0035C52.2004 44.5064 51.7975 44.1035 51.3004 44.1035C50.8033 44.1035 50.4004 44.5064 50.4004 45.0035C50.4004 45.5006 50.8033 45.9035 51.3004 45.9035Z" fill="#E4772F" stroke="white" stroke-width="0.4"/>
<path id="Vector_24" d="M45.9 45.9035C46.3971 45.9035 46.8 45.5006 46.8 45.0035C46.8 44.5064 46.3971 44.1035 45.9 44.1035C45.4029 44.1035 45 44.5064 45 45.0035C45 45.5006 45.4029 45.9035 45.9 45.9035Z" fill="#E4772F" stroke="white" stroke-width="0.4"/>
<path id="Vector_25" d="M40.4996 45.9035C40.9967 45.9035 41.3996 45.5006 41.3996 45.0035C41.3996 44.5064 40.9967 44.1035 40.4996 44.1035C40.0025 44.1035 39.5996 44.5064 39.5996 45.0035C39.5996 45.5006 40.0025 45.9035 40.4996 45.9035Z" fill="#E4772F" stroke="white" stroke-width="0.4"/>
<path id="Vector_26" d="M48.5992 49.5031C49.0963 49.5031 49.4992 49.1002 49.4992 48.6031C49.4992 48.1061 49.0963 47.7031 48.5992 47.7031C48.1021 47.7031 47.6992 48.1061 47.6992 48.6031C47.6992 49.1002 48.1021 49.5031 48.5992 49.5031Z" fill="#E4772F" stroke="white" stroke-width="0.4"/>
<path id="Vector_27" d="M43.2008 49.5031C43.6979 49.5031 44.1008 49.1002 44.1008 48.6031C44.1008 48.1061 43.6979 47.7031 43.2008 47.7031C42.7037 47.7031 42.3008 48.1061 42.3008 48.6031C42.3008 49.1002 42.7037 49.5031 43.2008 49.5031Z" fill="#E4772F" stroke="white" stroke-width="0.4"/>
<path id="Vector_28" d="M37.8004 49.5031C38.2975 49.5031 38.7004 49.1002 38.7004 48.6031C38.7004 48.1061 38.2975 47.7031 37.8004 47.7031C37.3033 47.7031 36.9004 48.1061 36.9004 48.6031C36.9004 49.1002 37.3033 49.5031 37.8004 49.5031Z" fill="#E4772F" stroke="white" stroke-width="0.4"/>
<path id="Vector_29" d="M32.4 49.5031C32.8971 49.5031 33.3 49.1002 33.3 48.6031C33.3 48.1061 32.8971 47.7031 32.4 47.7031C31.9029 47.7031 31.5 48.1061 31.5 48.6031C31.5 49.1002 31.9029 49.5031 32.4 49.5031Z" fill="#E4772F" stroke="white" stroke-width="0.4"/>
<path id="Vector_30" d="M2.70078 53.1032C3.19784 53.1032 3.60078 52.7003 3.60078 52.2032C3.60078 51.7062 3.19784 51.3032 2.70078 51.3032C2.20373 51.3032 1.80078 51.7062 1.80078 52.2032C1.80078 52.7003 2.20373 53.1032 2.70078 53.1032Z" fill="#E4772F" stroke="white" stroke-width="0.4"/>
<path id="Vector_31" d="M8.09922 53.1032C8.59628 53.1032 8.99922 52.7003 8.99922 52.2032C8.99922 51.7062 8.59628 51.3032 8.09922 51.3032C7.60217 51.3032 7.19922 51.7062 7.19922 52.2032C7.19922 52.7003 7.60217 53.1032 8.09922 53.1032Z" fill="#E4772F" stroke="white" stroke-width="0.4"/>
<path id="Vector_32" d="M13.4996 53.1032C13.9967 53.1032 14.3996 52.7003 14.3996 52.2032C14.3996 51.7062 13.9967 51.3032 13.4996 51.3032C13.0025 51.3032 12.5996 51.7062 12.5996 52.2032C12.5996 52.7003 13.0025 53.1032 13.4996 53.1032Z" fill="#E4772F" stroke="white" stroke-width="0.4"/>
<path id="Vector_33" d="M18.9 53.1032C19.3971 53.1032 19.8 52.7003 19.8 52.2032C19.8 51.7062 19.3971 51.3032 18.9 51.3032C18.4029 51.3032 18 51.7062 18 52.2032C18 52.7003 18.4029 53.1032 18.9 53.1032Z" fill="#E4772F" stroke="white" stroke-width="0.4"/>
<path id="Vector_34" d="M24.3004 53.1032C24.7975 53.1032 25.2004 52.7003 25.2004 52.2032C25.2004 51.7062 24.7975 51.3032 24.3004 51.3032C23.8033 51.3032 23.4004 51.7062 23.4004 52.2032C23.4004 52.7003 23.8033 53.1032 24.3004 53.1032Z" fill="#E4772F" stroke="white" stroke-width="0.4"/>
<path id="Vector_35" d="M45.9 53.1032C46.3971 53.1032 46.8 52.7003 46.8 52.2032C46.8 51.7062 46.3971 51.3032 45.9 51.3032C45.4029 51.3032 45 51.7062 45 52.2032C45 52.7003 45.4029 53.1032 45.9 53.1032Z" fill="#E4772F" stroke="white" stroke-width="0.4"/>
<path id="Vector_36" d="M51.3004 53.1032C51.7975 53.1032 52.2004 52.7003 52.2004 52.2032C52.2004 51.7062 51.7975 51.3032 51.3004 51.3032C50.8033 51.3032 50.4004 51.7062 50.4004 52.2032C50.4004 52.7003 50.8033 53.1032 51.3004 53.1032Z" fill="#E4772F" stroke="white" stroke-width="0.4"/>
<path id="Vector_37" d="M40.4996 53.1032C40.9967 53.1032 41.3996 52.7003 41.3996 52.2032C41.3996 51.7062 40.9967 51.3032 40.4996 51.3032C40.0025 51.3032 39.5996 51.7062 39.5996 52.2032C39.5996 52.7003 40.0025 53.1032 40.4996 53.1032Z" fill="#E4772F" stroke="white" stroke-width="0.4"/>
<path id="Vector_38" d="M35.0992 53.1032C35.5963 53.1032 35.9992 52.7003 35.9992 52.2032C35.9992 51.7062 35.5963 51.3032 35.0992 51.3032C34.6021 51.3032 34.1992 51.7062 34.1992 52.2032C34.1992 52.7003 34.6021 53.1032 35.0992 53.1032Z" fill="#E4772F" stroke="white" stroke-width="0.4"/>
<path id="Vector_39" d="M29.7008 53.1032C30.1979 53.1032 30.6008 52.7003 30.6008 52.2032C30.6008 51.7062 30.1979 51.3032 29.7008 51.3032C29.2037 51.3032 28.8008 51.7062 28.8008 52.2032C28.8008 52.7003 29.2037 53.1032 29.7008 53.1032Z" fill="#E4772F" stroke="white" stroke-width="0.4"/>
<path id="Vector_40" d="M10.6421 2.10532C8.51723 4.86832 4.54733 11.424 4.54733 14.7837C4.51581 17.8506 6.13396 20.6982 8.78491 22.2409C11.4359 23.7835 14.7111 23.7835 17.362 22.2409C20.013 20.6982 21.6311 17.8506 21.5996 14.7837C21.5996 11.424 17.6297 4.86832 15.5048 2.10532C14.9259 1.34775 14.0269 0.90332 13.0734 0.90332C12.12 0.90332 11.2211 1.34775 10.6421 2.10532ZM13.073 21.6021C9.33466 21.5724 6.32586 18.5221 6.34733 14.7837C6.34733 12.2169 9.67729 6.30922 12.0695 3.20242C12.3077 2.88831 12.6792 2.7038 13.0734 2.7038C13.4677 2.7038 13.8393 2.88831 14.0774 3.20242C16.4696 6.30922 19.7996 12.2169 19.7996 14.7837C19.8206 18.5222 16.8115 21.5724 13.073 21.6021Z" fill="#E4772F" stroke="white" stroke-width="0.4"/>
<path id="Vector_41" d="M12.2048 17.3383C11.4265 17.2226 10.7463 16.7516 10.3643 16.0639C10.0624 15.0786 10.1517 14.0149 10.6136 13.0939C10.8112 12.6519 10.6239 12.1328 10.1896 11.9189C9.75535 11.7051 9.22966 11.873 8.99989 12.2992C8.94946 12.3991 7.79385 14.785 8.72986 16.8118C9.32884 18.0024 10.4517 18.843 11.7629 19.0825C12.0746 19.1614 12.4048 19.068 12.629 18.8375C12.8532 18.607 12.9374 18.2744 12.8499 17.9649C12.7624 17.6555 12.5165 17.4163 12.2048 17.3374V17.3383Z" fill="#E4772F" stroke="white" stroke-width="0.4"/>
<path id="Vector_42" d="M39.8631 16.8393C40.2146 17.1906 40.7843 17.1906 41.1357 16.8393L42.0357 15.9393C42.3768 15.5862 42.3719 15.0249 42.0247 14.6776C41.6776 14.3305 41.1163 14.3256 40.7631 14.6667L39.8631 15.5667C39.5118 15.9181 39.5118 16.4878 39.8631 16.8393Z" fill="#E4772F" stroke="white" stroke-width="0.4"/>
<path id="Vector_43" d="M36.2639 19.1667L35.3639 20.0667C35.0229 20.4198 35.0278 20.9811 35.3749 21.3284C35.722 21.6755 36.2835 21.6804 36.6365 21.3393L37.5365 20.4393C37.8776 20.0862 37.8728 19.5249 37.5255 19.1776C37.1784 18.8305 36.6171 18.8256 36.2639 19.1667Z" fill="#E4772F" stroke="white" stroke-width="0.4"/>
<path id="Vector_44" d="M39.8639 20.4393C40.8179 21.3942 40.9322 21.603 41.4002 21.603C41.7642 21.603 42.0923 21.3836 42.2316 21.0474C42.3709 20.7111 42.2938 20.3241 42.0365 20.0667L41.1365 19.1667C40.7835 18.8256 40.222 18.8305 39.8749 19.1776C39.5278 19.5249 39.5229 20.0862 39.8639 20.4393Z" fill="#E4772F" stroke="white" stroke-width="0.4"/>
<path id="Vector_45" d="M37.5365 15.5667L36.6365 14.6667C36.2835 14.3256 35.722 14.3305 35.3749 14.6776C35.0278 15.0249 35.0229 15.5862 35.3639 15.9393L36.2639 16.8393C36.6171 17.1804 37.1784 17.1755 37.5255 16.8284C37.8728 16.4811 37.8776 15.9198 37.5365 15.5667Z" fill="#E4772F" stroke="white" stroke-width="0.4"/>
<path id="Vector_46" d="M45.8998 7.20376C46.3768 7.20376 46.5073 6.96886 47.4361 6.04006C47.6701 5.81409 47.7639 5.47947 47.6816 5.1648C47.5992 4.85013 47.3535 4.6044 47.0388 4.52203C46.7241 4.43967 46.3895 4.53349 46.1635 4.76746L45.2635 5.66746C45.0062 5.92485 44.9293 6.31189 45.0685 6.64814C45.2078 6.9844 45.5359 7.20368 45.8998 7.20376Z" fill="#E4772F" stroke="white" stroke-width="0.4"/>
<path id="Vector_47" d="M40.7635 11.4389C41.115 11.7902 41.6847 11.7902 42.0361 11.4389L42.9361 10.5389C43.2772 10.1858 43.2723 9.62449 42.9251 9.27727C42.578 8.93012 42.0167 8.92524 41.6635 9.26629L40.7635 10.1663C40.4122 10.5177 40.4122 11.0874 40.7635 11.4389Z" fill="#E4772F" stroke="white" stroke-width="0.4"/>
<path id="Vector_48" d="M45.2624 10.5389C46.2164 11.4938 46.3307 11.7026 46.7987 11.7026C47.1626 11.7026 47.4908 11.4833 47.63 11.147C47.7693 10.8108 47.6923 10.4237 47.435 10.1663L46.535 9.26629C46.1819 8.92524 45.6205 8.93012 45.2733 9.27727C44.9262 9.62449 44.9214 10.1858 45.2624 10.5389Z" fill="#E4772F" stroke="white" stroke-width="0.4"/>
<path id="Vector_49" d="M41.6624 6.93892C42.0155 7.27999 42.5769 7.27511 42.9241 6.92796C43.2712 6.58079 43.2761 6.01946 42.935 5.66632L42.035 4.76632C41.6819 4.42524 41.1205 4.43011 40.7733 4.77728C40.4262 5.12444 40.4214 5.68578 40.7624 6.03892L41.6624 6.93892Z" fill="#E4772F" stroke="white" stroke-width="0.4"/>
</g>
</g>
<defs>
<clipPath id="clip0_220_1017">
<rect width="54" height="54" fill="white"/>
</clipPath>
</defs>
</svg>
