<svg width="54" height="54" viewBox="0 0 54 54" fill="none" xmlns="http://www.w3.org/2000/svg">
<g id="Endokrinologiya" clip-path="url(#clip0_109_6675)">
<g id="Group">
<path id="Vector" d="M45.3415 45.8318C42.4178 45.0521 40.376 42.394 40.376 39.3689V24.1751C45.2479 19.4762 48.5806 13.2924 49.7223 6.4398L49.9172 5.2693L48.032 4.95596L47.8381 6.12539C46.7259 12.7926 43.4172 18.7958 38.572 23.2654H38.465V23.3619C36.2684 25.3694 33.7603 27.0643 30.9999 28.3638L29.6517 28.9982H24.3231C21.0401 27.6223 18.082 25.6694 15.5337 23.2979V23.2664H15.4985C10.5979 18.6915 7.24707 12.5365 6.2294 5.75172L5.96858 4.01465L4.07869 4.29751L4.33951 6.03458C5.38196 12.9865 8.71932 19.3242 13.6228 24.1293V39.368C13.6228 42.393 11.5809 45.0511 8.65814 45.8318L0 48.1402L0.493067 49.9861L9.15156 47.6777C12.9093 46.6744 15.5341 43.2577 15.5341 39.3689V25.8453C17.9877 27.8929 20.7508 29.5955 23.7692 30.8376C23.8847 30.8863 24.009 30.9101 24.1332 30.9101H29.8661C30.0065 30.9101 30.145 30.8795 30.273 30.8193L31.8133 30.0941C34.2238 28.96 36.4511 27.5402 38.4652 25.8891V39.3687C38.4652 43.2575 41.0899 46.6743 44.8487 47.6775L53.5072 49.9858L54 48.1402L45.3415 45.8318Z" fill="#E4772F" stroke="white" stroke-width="0.4"/>
<path id="Vector_2" d="M33.0122 13.9897C32.633 14.37 32.0893 14.5419 31.558 14.456L27.589 13.7948C27.1982 13.7298 26.8026 13.7298 26.4119 13.7948L22.4438 14.456C21.9145 14.5429 21.3689 14.37 20.9887 13.9897L19.6367 15.3408C20.4527 16.1558 21.6193 16.5313 22.7581 16.3411L26.7271 15.68C26.9086 15.6504 27.094 15.6504 27.2756 15.68L31.2446 16.3411C31.4395 16.3736 31.6343 16.3899 31.8293 16.3899C32.7713 16.3899 33.6886 16.0163 34.3641 15.3408L33.0122 13.9897Z" fill="#E4772F" stroke="white" stroke-width="0.4"/>
<path id="Vector_3" d="M24.6621 17.1278L25.5163 18.8371C26.4461 18.3727 27.5552 18.3727 28.484 18.8371L29.3382 17.1278C27.8744 16.3968 26.1259 16.3968 24.6621 17.1278Z" fill="#E4772F" stroke="white" stroke-width="0.4"/>
<path id="Vector_4" d="M33.5175 34.1644C32.6011 33.2471 31.2291 32.9663 30.0243 33.4469L27.0003 34.6575L23.9752 33.4469C22.7694 32.9663 21.3994 33.2473 20.4822 34.1644C19.7302 34.9165 19.3949 35.9893 19.5859 37.0347L20.9417 44.492C21.2216 46.0333 22.5622 47.152 24.1291 47.152H25.099C25.7916 47.152 26.451 46.9361 27.0003 46.5358C27.5497 46.9361 28.209 47.152 28.9017 47.152H29.8715C31.4385 47.152 32.778 46.0333 33.0579 44.492L34.4137 37.0356C34.6039 35.9893 34.2694 34.9165 33.5175 34.1644ZM32.5353 36.6926L31.1796 44.15C31.0639 44.7825 30.5146 45.2412 29.8715 45.2412H28.9017C28.5462 45.2412 28.2128 45.1026 27.9625 44.8523L27.6759 44.5656C27.4895 44.3793 27.2449 44.2857 27.0003 44.2857C26.7558 44.2857 26.5112 44.3794 26.3248 44.5656L26.0381 44.8523C25.7869 45.1026 25.4534 45.2412 25.099 45.2412H24.1291C23.4871 45.2412 22.9367 44.7826 22.8221 44.15L21.4663 36.6917C21.3879 36.2637 21.5255 35.825 21.8341 35.5155C22.2106 35.14 22.7724 35.0224 23.2664 35.2212L26.6458 36.5733C26.8732 36.665 27.1284 36.665 27.3557 36.5733L30.7342 35.2212C31.2274 35.0226 31.7899 35.139 32.1675 35.5155C32.4761 35.8241 32.6136 36.2636 32.5353 36.6926Z" fill="#E4772F" stroke="white" stroke-width="0.4"/>
<path id="Vector_5" d="M29.8679 37.5996H27.957V39.5106H29.8679V37.5996Z" fill="#E4772F" stroke="white" stroke-width="0.4"/>
<path id="Vector_6" d="M26.0456 37.5996H24.1348V39.5106H26.0456V37.5996Z" fill="#E4772F" stroke="white" stroke-width="0.4"/>
<path id="Vector_7" d="M29.8679 41.4209H27.957V43.3318H29.8679V41.4209Z" fill="#E4772F" stroke="white" stroke-width="0.4"/>
<path id="Vector_8" d="M26.0456 41.4209H24.1348V43.3318H26.0456V41.4209Z" fill="#E4772F" stroke="white" stroke-width="0.4"/>
</g>
</g>
<defs>
<clipPath id="clip0_109_6675">
<rect width="54" height="54" fill="white"/>
</clipPath>
</defs>
</svg>
