<svg width="54" height="54" viewBox="0 0 54 54" fill="none" xmlns="http://www.w3.org/2000/svg">
<g id="Fizioterapiya" clip-path="url(#clip0_109_6629)">
<g id="Group">
<path id="Vector" d="M52.4737 18.0946C52.4258 18.1214 47.1915 20.7001 42.0758 20.7001C36.856 20.7001 29.7645 18.9449 29.6947 18.9269C29.398 18.8527 29.0838 18.9339 28.8605 19.1431C28.6373 19.3523 28.5354 19.6603 28.5903 19.9614L30.1956 28.8001H18.5761L17.263 17.6402C17.0314 15.6754 17.651 13.7053 18.9654 12.2266C20.2793 10.7478 22.1633 9.901 24.1417 9.9001H51.9758V8.1001H24.1417C21.65 8.10098 19.2774 9.16669 17.6215 11.0286C15.9657 12.8906 15.1843 15.3713 15.4744 17.8463L16.7633 28.8001H15.9758C15.4788 28.8001 15.0758 29.2031 15.0758 29.7001V37.8001H0.675781V39.6001H4.27578V52.2001H0.675781V54.0001H41.1758C41.6729 54.0001 42.0758 53.5971 42.0758 53.1001H50.1758V51.3001H42.0758V41.4001H50.1758V39.6001H42.0758V38.7001C42.0758 38.2031 41.6729 37.8001 41.1758 37.8001H33.9758V29.7001C33.9758 29.2031 33.5728 28.8001 33.0758 28.8001H32.0273L30.6061 20.987C34.3709 21.8638 38.2125 22.3705 42.0758 22.5001C45.961 22.3419 49.7729 21.3922 53.2779 19.71L52.4737 18.0946ZM6.07578 39.6001H7.87578V52.2001H6.07578V39.6001ZM40.2758 39.6001V52.2001H28.5319C29.2662 51.7387 29.9468 51.1977 30.5621 50.5864C32.755 48.4054 33.9841 45.4378 33.9758 42.3449V39.6001H40.2758ZM32.1758 42.3449C32.1762 47.788 27.7637 52.2006 22.3206 52.2001H9.67578V39.6001H15.9758C16.4728 39.6001 16.8758 39.1971 16.8758 38.7001V30.6001H32.1758V42.3449Z" fill="#E4772F" stroke="white" stroke-width="0.5"/>
<path id="Vector_2" d="M7.87539 27.0001V25.2001H9.67539V23.4001H7.87539V21.6001H6.07539V23.4001H4.27539V25.2001H6.07539V27.0001H7.87539Z" fill="#E4772F" stroke="white" stroke-width="0.5"/>
<path id="Vector_3" d="M11.475 6.2999V4.4999H13.275V2.6999H11.475V0.899902H9.675V2.6999H7.875V4.4999H9.675V6.2999H11.475Z" fill="#E4772F" stroke="white" stroke-width="0.5"/>
<path id="Vector_4" d="M34.8754 5.4V3.6H36.6754V1.8H34.8754V0H33.0754V1.8H31.2754V3.6H33.0754V5.4H34.8754Z" fill="#E4772F" stroke="white" stroke-width="0.5"/>
<path id="Vector_5" d="M42.975 31.5001V29.7001H44.775V27.9001H42.975V26.1001H41.175V27.9001H39.375V29.7001H41.175V31.5001H42.975Z" fill="#E4772F" stroke="white" stroke-width="0.5"/>
<path id="Vector_6" d="M26.7754 11.7002H43.8754V13.5002H26.7754V11.7002Z" fill="#E4772F" stroke="white" stroke-width="0.5"/>
<path id="Vector_7" d="M45.6758 11.7002H47.4758V13.5002H45.6758V11.7002Z" fill="#E4772F" stroke="white" stroke-width="0.5"/>
</g>
</g>
<defs>
<clipPath id="clip0_109_6629">
<rect width="54" height="54" fill="white"/>
</clipPath>
</defs>
</svg>
