<svg width="54" height="54" viewBox="0 0 54 54" fill="none" xmlns="http://www.w3.org/2000/svg">
<g id="flebologiya" clip-path="url(#clip0_109_6074)">
<g id="Group">
<path id="Vector" d="M42.7354 52.4593C41.7294 53.4598 40.3933 54.0076 38.9732 53.9998L14.7567 53.869C14.2961 53.8664 13.8552 53.6816 13.5305 53.355C9.10349 48.9002 12.3795 43.6599 13.1875 41.9277C14.326 39.4871 13.4608 37.9165 11.5534 27.9716C8.76726 13.4459 7.79506 8.16594 11.0327 1.02321C11.4299 0.147027 12.4621 -0.241421 13.3384 0.155845C14.2146 0.553002 14.603 1.58531 14.2058 2.4616C11.5892 8.23388 11.7744 12.2395 16.1133 32.938C17.4279 39.2083 17.696 40.7208 16.0124 44.0776C14.9381 46.2193 14.0295 48.3771 15.5565 50.3894L39.002 50.5161C40.0009 50.5161 40.8124 49.7081 40.8124 48.7056C40.8124 47.8086 40.1692 47.0564 39.2832 46.917L33.2041 45.9608C27.1015 45.0006 22.7961 39.3868 23.509 33.2065L26.9806 3.99623C27.094 3.04089 27.9601 2.35861 28.9158 2.47205C29.8712 2.5856 30.5536 3.45199 30.44 4.40732L26.969 33.6116C26.4732 37.91 29.4679 41.8462 33.7454 42.5191L39.8244 43.4754C44.1733 44.1595 45.7596 49.4514 42.7354 52.4593Z" fill="#E4772F" stroke="white" stroke-width="2"/>
<path id="Vector_2" d="M21.3378 17.7187L19.582 19.3094V16.4275L22.3012 13.964C22.4291 13.8484 22.5008 13.6913 22.5008 13.5277V9.56123C22.5008 9.22048 22.1958 8.94402 21.8195 8.94402C21.4434 8.94402 21.1383 9.22048 21.1383 9.56123V13.272L18.9008 15.2992L16.6633 13.272V12.5142L19.3095 10.7162C19.4811 10.5995 19.582 10.4166 19.582 10.2225V6.91698C19.582 6.57625 19.2771 6.2998 18.9008 6.2998C18.5245 6.2998 18.2195 6.57625 18.2195 6.91698V9.91385L16.6633 10.9713V9.56123C16.6633 9.22048 16.3581 8.94402 15.982 8.94402C15.6058 8.94402 15.3008 9.22048 15.3008 9.56123V13.5277C15.3008 13.6913 15.3724 13.8484 15.5002 13.964L18.2195 16.4275V22.7826C18.2195 23.1233 18.5245 23.3998 18.9008 23.3998C19.2771 23.3998 19.582 23.1233 19.582 22.7826V21.055L22.3013 18.5915C22.5673 18.3505 22.5673 17.9598 22.3013 17.7187C22.0352 17.4776 21.6038 17.4776 21.3378 17.7187Z" fill="#E4772F"/>
</g>
</g>
<defs>
<clipPath id="clip0_109_6074">
<rect width="54" height="54" fill="white"/>
</clipPath>
</defs>
</svg>
