<svg width="54" height="44" viewBox="0 0 54 44" fill="none" xmlns="http://www.w3.org/2000/svg">
<path d="M47.1487 5.71081C43.0529 1.78337 38.958 0.054816 34.9893 0.574566C30.1477 1.2078 27.0254 4.98793 26.0024 6.42091C21.4554 5.34937 20.5312 1.47592 20.491 1.29565C20.383 0.803337 19.899 0.48489 19.4048 0.596535C18.9107 0.701763 18.5959 1.18858 18.7021 1.68364C18.7505 1.91057 19.9676 7.25827 26.265 8.34079L26.8772 8.44411L27.2012 7.91617C27.2314 7.86676 30.2465 3.03245 35.24 2.38732C38.6322 1.94717 42.212 3.51194 45.8822 7.03129C53.2468 14.0929 53.1168 23.1722 50.54 29.315C50.3259 29.8257 50.0916 30.3216 49.8445 30.8057C49.7146 30.7343 49.5719 30.683 49.4126 30.683C48.9075 30.683 48.4976 31.093 48.4976 31.5981C48.4976 31.9312 48.6851 32.2103 48.9514 32.3704C48.5268 33.0522 48.0693 33.7037 47.5779 34.3214C47.5651 33.8273 47.1652 33.4283 46.6674 33.4283C46.1623 33.4283 45.7524 33.8382 45.7524 34.3433C45.7524 34.8485 46.1623 35.2584 46.6674 35.2584C46.7159 35.2584 46.7571 35.2383 46.8029 35.231C46.1834 35.9218 45.5227 36.5624 44.8245 37.1517C44.8272 37.1297 44.8382 37.1115 44.8382 37.0885C44.8382 36.5834 44.4282 36.1735 43.9231 36.1735C43.418 36.1735 43.0081 36.5834 43.0081 37.0885C43.0081 37.5434 43.3457 37.9039 43.7813 37.9753C43.1609 38.4309 42.5213 38.8565 41.8551 39.2316C41.6876 39.0431 41.4497 38.9187 41.1779 38.9187C40.6728 38.9187 40.2628 39.3286 40.2628 39.8338C40.2628 39.8951 40.2858 39.9482 40.2977 40.0058C37.794 41.1231 35.0506 41.6969 32.2076 41.6007L32.1288 41.5989L32.0528 41.6099C31.9861 41.6209 25.307 42.481 17.5518 37.8416L16.859 37.44L16.3604 38.0658C16.3347 38.0979 15.718 38.8565 14.6126 38.9187C13.4953 38.9955 12.1657 38.2891 10.7903 36.9147C9.87801 36.0024 8.60333 35.7315 7.46041 36.2018C6.59201 36.5606 4.5752 37.9029 4.5752 42.6C4.5752 43.106 4.98515 43.515 5.49027 43.515C5.99539 43.515 6.40534 43.106 6.40534 42.6C6.40534 39.6645 7.31125 38.2434 8.15952 37.8919C8.61706 37.6998 9.10482 37.8179 9.49461 38.2077C10.7546 39.4677 11.9973 40.251 13.2171 40.574C13.3644 40.6756 13.5328 40.7488 13.7259 40.7488C13.7945 40.7488 13.8549 40.7241 13.9189 40.7104C14.2017 40.7433 14.4836 40.7607 14.7636 40.7433C15.8818 40.6674 16.709 40.1787 17.2169 39.7669C22.9397 43.0218 27.9836 43.5205 30.5412 43.5205C31.4224 43.5205 32.0089 43.461 32.2249 43.4345C40.8512 43.6285 48.7108 38.4062 52.2273 30.0242C55.8163 21.4711 53.8699 12.1547 47.1487 5.71081Z" fill="#E4772F" stroke="white" stroke-width="0.4"/>
<path d="M5.86101 31.683C9.44712 29.5482 14.5395 31.6711 15.999 32.3629C16.0613 32.4013 16.1244 32.4343 16.1958 32.4571C16.3229 32.5203 16.409 32.5642 16.4154 32.5678L17.067 32.9211L17.5474 32.3583C20.2239 29.227 24.3234 30.5191 24.4927 30.573L25.5551 30.928L25.6905 29.8163C25.9989 27.2889 29.564 25.9254 29.6006 25.9117L30.1973 25.6884V19.4531L29.6876 19.2015C27.1473 17.9451 26.9954 14.6097 26.9936 14.5795L26.9708 13.8419L26.246 13.7074C15.5388 11.7217 13.9996 4.23458 13.9392 3.91618C13.8468 3.42204 13.3737 3.08713 12.8759 3.18321C12.3791 3.2738 12.0487 3.74963 12.1393 4.24655C12.2052 4.60799 13.8505 12.9561 25.2403 15.3719C25.4298 16.6219 26.0886 19.1447 28.3671 20.5576V24.4522C27.2489 24.9801 24.8972 26.3271 24.1056 28.6011C22.4997 28.3064 19.2201 28.1143 16.6487 30.6408C14.7692 29.7623 9.20007 27.5698 4.93039 30.1054C1.65902 32.05 0 36.2538 0 42.5998C0 43.1058 0.409951 43.5148 0.915066 43.5148C1.42018 43.5148 1.83013 43.1058 1.83013 42.5998C1.83013 36.9483 3.18627 33.2752 5.86101 31.683Z" fill="#E4772F" stroke="white" stroke-width="0.4"/>
<path d="M41.1778 29.768C41.6832 29.768 42.0928 29.3584 42.0928 28.853C42.0928 28.3477 41.6832 27.938 41.1778 27.938C40.6724 27.938 40.2627 28.3477 40.2627 28.853C40.2627 29.3584 40.6724 29.768 41.1778 29.768Z" fill="#E4772F" stroke="white" stroke-width="0.4"/>
<path d="M46.6692 29.768C47.1746 29.768 47.5843 29.3584 47.5843 28.853C47.5843 28.3477 47.1746 27.938 46.6692 27.938C46.1638 27.938 45.7542 28.3477 45.7542 28.853C45.7542 29.3584 46.1638 29.768 46.6692 29.768Z" fill="#E4772F" stroke="white" stroke-width="0.4"/>
<path d="M49.4132 27.0224C49.9185 27.0224 50.3282 26.6127 50.3282 26.1073C50.3282 25.6019 49.9185 25.1923 49.4132 25.1923C48.9077 25.1923 48.498 25.6019 48.498 26.1073C48.498 26.6127 48.9077 27.0224 49.4132 27.0224Z" fill="#E4772F" stroke="white" stroke-width="0.4"/>
<path d="M21.9609 32.5137C22.4663 32.5137 22.876 32.1041 22.876 31.5987C22.876 31.0933 22.4663 30.6836 21.9609 30.6836C21.4556 30.6836 21.0459 31.0933 21.0459 31.5987C21.0459 32.1041 21.4556 32.5137 21.9609 32.5137Z" fill="#E4772F" stroke="white" stroke-width="0.4"/>
<path d="M27.4532 32.5137C27.9586 32.5137 28.3682 32.1041 28.3682 31.5987C28.3682 31.0933 27.9586 30.6836 27.4532 30.6836C26.9478 30.6836 26.5381 31.0933 26.5381 31.5987C26.5381 32.1041 26.9478 32.5137 27.4532 32.5137Z" fill="#E4772F" stroke="white" stroke-width="0.4"/>
<path d="M32.9425 32.5137C33.4478 32.5137 33.8575 32.1041 33.8575 31.5987C33.8575 31.0933 33.4478 30.6836 32.9425 30.6836C32.437 30.6836 32.0273 31.0933 32.0273 31.5987C32.0273 32.1041 32.437 32.5137 32.9425 32.5137Z" fill="#E4772F" stroke="white" stroke-width="0.4"/>
<path d="M38.4317 32.5137C38.9371 32.5137 39.3468 32.1041 39.3468 31.5987C39.3468 31.0933 38.9371 30.6836 38.4317 30.6836C37.9264 30.6836 37.5166 31.0933 37.5166 31.5987C37.5166 32.1041 37.9264 32.5137 38.4317 32.5137Z" fill="#E4772F" stroke="white" stroke-width="0.4"/>
<path d="M43.9239 32.5137C44.4293 32.5137 44.8389 32.1041 44.8389 31.5987C44.8389 31.0933 44.4293 30.6836 43.9239 30.6836C43.4185 30.6836 43.0088 31.0933 43.0088 31.5987C43.0088 32.1041 43.4185 32.5137 43.9239 32.5137Z" fill="#E4772F" stroke="white" stroke-width="0.4"/>
<path d="M13.7256 35.2593C14.2309 35.2593 14.6407 34.8497 14.6407 34.3443C14.6407 33.8389 14.2309 33.4292 13.7256 33.4292C13.2202 33.4292 12.8105 33.8389 12.8105 34.3443C12.8105 34.8497 13.2202 35.2593 13.7256 35.2593Z" fill="#E4772F" stroke="white" stroke-width="0.4"/>
<path d="M19.2157 35.2595C19.7211 35.2595 20.1308 34.8498 20.1308 34.3444C20.1308 33.839 19.7211 33.4293 19.2157 33.4293C18.7103 33.4293 18.3007 33.839 18.3007 34.3444C18.3007 34.8498 18.7103 35.2595 19.2157 35.2595Z" fill="#E4772F" stroke="white" stroke-width="0.4"/>
<path d="M21.9609 38.005C22.4663 38.005 22.876 37.5953 22.876 37.0898C22.876 36.5845 22.4663 36.1748 21.9609 36.1748C21.4556 36.1748 21.0459 36.5845 21.0459 37.0898C21.0459 37.5953 21.4556 38.005 21.9609 38.005Z" fill="#E4772F" stroke="white" stroke-width="0.4"/>
<path d="M24.7071 35.2595C25.2125 35.2595 25.6221 34.8498 25.6221 34.3444C25.6221 33.839 25.2125 33.4293 24.7071 33.4293C24.2018 33.4293 23.792 33.839 23.792 34.3444C23.792 34.8498 24.2018 35.2595 24.7071 35.2595Z" fill="#E4772F" stroke="white" stroke-width="0.4"/>
<path d="M30.1963 35.2593C30.7016 35.2593 31.1113 34.8497 31.1113 34.3443C31.1113 33.8389 30.7016 33.4292 30.1963 33.4292C29.6909 33.4292 29.2812 33.8389 29.2812 34.3443C29.2812 34.8497 29.6909 35.2593 30.1963 35.2593Z" fill="#E4772F" stroke="white" stroke-width="0.4"/>
<path d="M24.7071 40.7474C25.2125 40.7474 25.6221 40.3376 25.6221 39.8323C25.6221 39.3269 25.2125 38.9172 24.7071 38.9172C24.2018 38.9172 23.792 39.3269 23.792 39.8323C23.792 40.3376 24.2018 40.7474 24.7071 40.7474Z" fill="#E4772F" stroke="white" stroke-width="0.4"/>
<path d="M30.1963 40.7471C30.7016 40.7471 31.1113 40.3374 31.1113 39.832C31.1113 39.3267 30.7016 38.917 30.1963 38.917C29.6909 38.917 29.2812 39.3267 29.2812 39.832C29.2812 40.3374 29.6909 40.7471 30.1963 40.7471Z" fill="#E4772F" stroke="white" stroke-width="0.4"/>
<path d="M27.4532 38.005C27.9586 38.005 28.3682 37.5953 28.3682 37.0898C28.3682 36.5845 27.9586 36.1748 27.4532 36.1748C26.9478 36.1748 26.5381 36.5845 26.5381 37.0898C26.5381 37.5953 26.9478 38.005 27.4532 38.005Z" fill="#E4772F" stroke="white" stroke-width="0.4"/>
<path d="M32.9425 38.0052C33.4478 38.0052 33.8575 37.5955 33.8575 37.0901C33.8575 36.5847 33.4478 36.175 32.9425 36.175C32.437 36.175 32.0273 36.5847 32.0273 37.0901C32.0273 37.5955 32.437 38.0052 32.9425 38.0052Z" fill="#E4772F" stroke="white" stroke-width="0.4"/>
<path d="M35.6886 35.2593C36.1939 35.2593 36.6036 34.8497 36.6036 34.3443C36.6036 33.8389 36.1939 33.4292 35.6886 33.4292C35.1831 33.4292 34.7734 33.8389 34.7734 34.3443C34.7734 34.8497 35.1831 35.2593 35.6886 35.2593Z" fill="#E4772F" stroke="white" stroke-width="0.4"/>
<path d="M41.1778 35.2595C41.6832 35.2595 42.0928 34.8498 42.0928 34.3444C42.0928 33.839 41.6832 33.4293 41.1778 33.4293C40.6724 33.4293 40.2627 33.839 40.2627 34.3444C40.2627 34.8498 40.6724 35.2595 41.1778 35.2595Z" fill="#E4772F" stroke="white" stroke-width="0.4"/>
<path d="M35.6886 40.7471C36.1939 40.7471 36.6036 40.3374 36.6036 39.832C36.6036 39.3267 36.1939 38.917 35.6886 38.917C35.1831 38.917 34.7734 39.3267 34.7734 39.832C34.7734 40.3374 35.1831 40.7471 35.6886 40.7471Z" fill="#E4772F" stroke="white" stroke-width="0.4"/>
<path d="M38.4317 38.005C38.9371 38.005 39.3468 37.5953 39.3468 37.0898C39.3468 36.5845 38.9371 36.1748 38.4317 36.1748C37.9264 36.1748 37.5166 36.5845 37.5166 37.0898C37.5166 37.5953 37.9264 38.005 38.4317 38.005Z" fill="#E4772F" stroke="white" stroke-width="0.4"/>
</svg>
