<svg width="54" height="54" viewBox="0 0 54 54" fill="none" xmlns="http://www.w3.org/2000/svg">
<g clip-path="url(#clip0_109_6641)">
<path d="M49.9559 4.0441C47.8921 1.98028 45.1482 0.84375 42.2297 0.84375H41.704C39.6537 0.84375 37.6515 1.41835 35.9075 2.50763C33.2345 4.1791 30.154 5.0625 27 5.0625C23.846 5.0625 20.7655 4.1791 18.0867 2.50425C16.3477 1.41835 14.3455 0.84375 12.296 0.84375H11.7703C8.85178 0.84375 6.1079 1.98028 4.0441 4.0441C1.98028 6.1079 0.84375 8.85178 0.84375 11.7703C0.84375 14.7437 2.00222 17.539 4.104 19.6417L5.67928 21.217C7.2149 22.7525 9.25173 23.603 11.4202 23.6225C12.9524 25.4728 15.1529 26.6701 17.5289 26.9401C18.1145 29.0545 19.078 31.0643 20.3993 32.8252L21.2827 34.0031C23.3373 36.7411 24.4688 40.1363 24.4688 43.5611V53.1562H26.1562V43.5611C26.1562 39.7735 24.905 36.0197 22.6319 32.989L21.7485 31.811C19.694 29.0714 18.5625 25.6762 18.5625 22.2513C18.5625 18.5575 17.4277 15.0154 15.2803 12.01L14.1868 10.4785C14.1598 10.4405 14.1295 10.4052 14.0965 10.3722L11.7703 8.046C10.9342 7.20985 9.82377 6.75 8.64253 6.75C6.20325 6.75 4.21875 8.7345 4.21875 11.1738V11.4395C4.21875 13.9708 6.27835 16.0312 8.81044 16.0312C9.46773 16.0312 10.1115 16.2573 10.6245 16.6675L12.7473 18.3667C13.2258 18.749 13.5 19.3193 13.5 19.9319C13.5 21.038 12.6005 21.9375 11.4944 21.9375C9.74871 21.9375 8.10675 21.2575 6.87235 20.023L5.29706 18.4477C3.51338 16.664 2.53125 14.2923 2.53125 11.7703C2.53125 9.30231 3.49228 6.98287 5.23715 5.23715C6.98203 3.49228 9.30231 2.53125 11.7703 2.53125H12.296C14.029 2.53125 15.7225 3.01725 17.1973 3.93862C20.1403 5.778 23.5297 6.75 27 6.75C30.4703 6.75 33.8597 5.778 36.8077 3.9361C38.2775 3.01725 39.971 2.53125 41.704 2.53125H42.2297C44.6977 2.53125 47.0171 3.49228 48.7628 5.23715C50.5077 6.98203 51.4688 9.30231 51.4688 11.7703C51.4688 14.2931 50.4867 16.664 48.703 18.4486L47.1277 20.0239C45.8932 21.2575 44.2513 21.9375 42.5056 21.9375C41.3995 21.9375 40.5 21.038 40.5 19.9319C40.5 19.3193 40.7742 18.749 41.2535 18.3659L43.3755 16.6675C43.8885 16.2573 44.5323 16.0312 45.1895 16.0312C47.7208 16.0312 49.7812 13.9717 49.7812 11.4395V11.1738C49.7812 8.7345 47.7967 6.75 45.3575 6.75C44.1762 6.75 43.065 7.20985 42.2297 8.046L39.9035 10.3722C39.8705 10.4052 39.8402 10.4405 39.8132 10.4785L38.7197 12.01C36.5723 15.0154 35.4375 18.5575 35.4375 22.2513C35.4375 25.6762 34.306 29.0714 32.2515 31.811L31.3681 32.989C29.095 36.0188 27.8438 39.7735 27.8438 43.5611V53.1562H29.5312V43.5611C29.5312 40.1363 30.6627 36.7411 32.7173 34.0015L33.6007 32.8235C34.9212 31.0627 35.8847 29.0528 36.4711 26.9384C38.8471 26.6684 41.0476 25.4712 42.5798 23.6208C44.7483 23.6014 46.7851 22.7517 48.3207 21.2153L49.896 19.64C51.9978 17.539 53.1562 14.7437 53.1562 11.7703C53.1562 8.85178 52.0197 6.1079 49.9559 4.0441ZM13.8012 17.0488L11.6783 15.3503C10.8675 14.7007 9.84906 14.3438 8.81044 14.3438C7.209 14.3438 5.90625 13.041 5.90625 11.4395V11.1738C5.90625 9.66519 7.1339 8.4375 8.64253 8.4375C9.37323 8.4375 10.06 8.72185 10.5772 9.23904L12.8545 11.5163L13.9075 12.9912C15.849 15.709 16.875 18.911 16.875 22.2513C16.875 23.2276 16.961 24.2013 17.1239 25.1615C15.6752 24.8788 14.3328 24.1793 13.2722 23.1492C14.4078 22.5188 15.1875 21.3207 15.1875 19.9319C15.1875 18.8038 14.6821 17.7525 13.8012 17.0488ZM37.125 22.2513C37.125 18.911 38.151 15.709 40.0933 12.9903L41.1463 11.5155L43.4236 9.23823C43.9408 8.72185 44.6276 8.43665 45.3583 8.43665C46.8661 8.4375 48.0938 9.66519 48.0938 11.1738V11.4395C48.0938 13.041 46.791 14.3438 45.1895 14.3438C44.1509 14.3438 43.1325 14.7007 42.3208 15.3495L40.1988 17.048C39.3179 17.7525 38.8125 18.8038 38.8125 19.9319C38.8125 21.3207 39.5922 22.518 40.7278 23.1492C39.6664 24.1793 38.3248 24.8788 36.8761 25.1615C37.039 24.2013 37.125 23.2276 37.125 22.2513Z" fill="#E4772F" stroke="white" stroke-width="0.3"/>
<path d="M27.8444 34.5945V34.0166C27.8444 31.3292 28.819 28.7355 30.5884 26.7131C32.6277 24.3826 33.7507 21.3941 33.7507 18.2974V18.1962C33.7507 16.8614 33.9886 15.5519 34.4569 14.3014L36.2279 9.57815L34.6476 8.98584L32.8766 13.7091C32.3374 15.1494 32.0632 16.6589 32.0632 18.1962V18.2974C32.0632 20.9848 31.0887 23.5785 29.3194 25.6009C28.3153 26.7484 27.5365 28.0563 27.0007 29.4569C26.4658 28.0563 25.6861 26.7476 24.6821 25.6009C22.9128 23.5785 21.9382 20.9848 21.9382 18.2974V18.1962C21.9382 16.6589 21.664 15.1494 21.1249 13.7091L19.3538 8.98584L17.7734 9.57815L19.5445 14.3014C20.0128 15.5519 20.2507 16.8614 20.2507 18.1962V18.2974C20.2507 21.3941 21.3738 24.3826 23.4131 26.7131C25.1824 28.7355 26.1569 31.3292 26.1569 34.0166V34.5945H27.8444Z" fill="#E4772F" stroke="white" stroke-width="0.3"/>
</g>
<defs>
<clipPath id="clip0_109_6641">
<rect width="54" height="54" fill="white"/>
</clipPath>
</defs>
</svg>
