<svg width="54" height="54" viewBox="0 0 54 54" fill="none" xmlns="http://www.w3.org/2000/svg">
<g id="Kardiologiya" clip-path="url(#clip0_109_6483)">
<g id="Group">
<path id="Vector" d="M46.9328 23.6093L46.6154 23.5354L46.8372 23.2982C47.6678 22.4073 47.62 21.0059 46.7299 20.1727L46.0067 19.4981C45.5747 19.0959 45.0111 18.8796 44.4223 18.9057C43.8316 18.9256 43.2842 19.1744 42.8811 19.6054L40.6817 21.9627C39.357 20.0753 37.5968 18.352 35.1917 16.8821C36.0574 16.7279 36.7598 16.5421 37.3641 16.1977H42.3292C44.3186 16.1977 45.9363 14.5799 45.9363 12.5906C45.9363 10.6013 44.3186 8.98347 42.3292 8.98347H36.9195C36.2693 8.67416 35.492 8.51906 34.4279 8.50733C34.2412 8.50553 34.0726 8.38018 34.0103 8.19532C33.8643 7.77058 33.6975 7.35486 33.5107 6.95357L34.3414 6.12304C35.7481 4.71628 35.7481 2.42848 34.3414 1.02261C32.9788 -0.339967 30.6035 -0.341771 29.24 1.02261L28.267 1.99563C26.4517 1.46087 24.5417 1.74764 22.8302 2.82075C22.685 2.91363 22.4713 2.85682 22.3523 2.69991C21.9185 2.12007 21.3937 1.47079 20.6615 1.09836C19.5982 0.559101 18.0183 1.06319 17.2356 1.59524C16.5205 2.0822 16.5061 3.13547 16.7044 4.56838C16.7766 5.09051 16.948 5.62526 17.112 6.14288C17.2148 6.46662 17.3664 6.94365 17.4277 7.26108L17.4322 7.46488C17.434 7.5244 17.4313 7.55777 17.434 7.56588C17.4142 7.59383 17.3826 7.62089 17.3564 7.64884C17.3276 7.6786 17.3032 7.70927 17.2662 7.73812C17.232 7.76607 17.1878 7.79133 17.1472 7.81837C17.103 7.84724 17.0633 7.87699 17.0129 7.90494C16.966 7.9311 16.911 7.95454 16.8587 7.9789C16.8045 8.00504 16.754 8.0312 16.6954 8.05554C16.6341 8.08079 16.5674 8.10244 16.5016 8.12589C16.4448 8.14572 16.3906 8.16827 16.3302 8.1863C16.2535 8.20975 16.1715 8.22958 16.0913 8.25033C16.0381 8.26385 15.9867 8.28008 15.9325 8.29181C15.8387 8.31254 15.744 8.32788 15.6485 8.34321C15.6052 8.35043 15.5619 8.36034 15.5177 8.36665C15.4113 8.38108 15.3031 8.3892 15.1949 8.39642C15.1652 8.39822 15.1345 8.40362 15.1056 8.40453C14.9685 8.41084 14.8341 8.40994 14.7053 8.40092C14.4987 8.3883 14.3003 8.38108 14.1082 8.38289L9.83202 4.10667C8.99517 3.27164 7.53701 3.27344 6.70467 4.10667L6.004 4.80645C5.1419 5.66855 5.1419 7.07081 6.004 7.9329L10.3578 12.2857C10.3523 12.3787 10.3478 12.4725 10.3451 12.5708C10.2793 15.3914 10.2116 18.3087 9.27204 20.7787C9.09978 21.2314 8.93837 21.6967 8.78326 22.1765C8.6516 22.5759 8.53527 22.9727 8.42345 23.3686C8.41083 23.4137 8.3964 23.4543 8.38378 23.4994L8.30532 23.7807C8.27105 23.9087 8.22957 24.0386 8.19711 24.1666L7.96986 24.9818L8.01946 24.9701C6.40438 32.3123 8.22416 38.8736 13.4842 44.517C19.4188 50.8835 27.1623 54.0027 37.0818 54.0027C38.2271 54.0027 39.4021 53.9612 40.606 53.8782C43.8776 53.6519 45.8669 51.5489 45.9282 48.253C45.9724 45.8651 45.8128 43.2797 45.4547 40.5726V40.5717C45.3123 39.4932 45.1906 38.4038 45.0688 37.3126C44.7343 34.3134 44.3889 31.2771 43.5989 28.3905L45.7046 28.8802C45.8723 28.9199 46.0418 28.9388 46.2105 28.9388C46.6181 28.9388 47.0185 28.8243 47.3737 28.6042C47.8751 28.2913 48.2241 27.8026 48.3585 27.2282L48.5831 26.2651C48.8608 25.0774 48.1204 23.8862 46.9328 23.6093ZM36.0177 10.7879H39.2244C38.9143 11.3208 38.723 11.9314 38.723 12.5915C38.723 13.2516 38.9143 13.8621 39.2244 14.3951H36.0177C35.0231 14.3951 34.2142 13.5861 34.2142 12.5915C34.2142 11.5968 35.0231 10.7879 36.0177 10.7879ZM44.1337 12.5915C44.1337 13.5861 43.3248 14.3951 42.3301 14.3951C41.3354 14.3951 40.5266 13.5861 40.5266 12.5915C40.5266 11.5968 41.3354 10.7879 42.3301 10.7879C43.3248 10.7879 44.1337 11.5968 44.1337 12.5915ZM7.28001 6.6578C7.23131 6.6091 7.20516 6.5568 7.18712 6.5081C7.17089 6.46391 7.16007 6.41702 7.16007 6.37013V6.36923C7.16007 6.32234 7.17089 6.27544 7.18712 6.23035C7.20516 6.18256 7.23131 6.13116 7.28001 6.08246L7.98069 5.38179C8.08348 5.27899 8.20433 5.26275 8.26744 5.26275C8.32967 5.26275 8.45141 5.27899 8.55511 5.38269L13.3967 10.2243L13.8035 10.1982C14.0415 10.1819 14.3039 10.1819 14.5925 10.2018C14.7449 10.2108 14.9099 10.2126 15.084 10.2072C15.1877 10.2036 15.2995 10.1928 15.4086 10.1838C15.4835 10.1774 15.5547 10.1738 15.6323 10.1648C15.7449 10.1513 15.8595 10.1314 15.9749 10.1116C16.057 10.0981 16.1372 10.0863 16.2202 10.0692C16.3293 10.0476 16.4366 10.0187 16.5458 9.99072C16.6377 9.96732 16.7297 9.94473 16.8208 9.91683C16.9218 9.88614 17.0201 9.85095 17.1192 9.81576C17.2175 9.78066 17.3141 9.74457 17.4097 9.70398C17.4998 9.66609 17.5873 9.6246 17.6747 9.58221C17.7731 9.53442 17.8678 9.48303 17.9597 9.42894C18.0381 9.38295 18.1139 9.33516 18.187 9.28467C18.2772 9.22338 18.361 9.1575 18.443 9.08901C18.5089 9.03393 18.572 8.97986 18.6315 8.92034C18.6586 8.89329 18.692 8.87074 18.7181 8.84279C20.2322 10.0728 21.5091 11.8502 20.7344 14.101C19.857 16.6513 15.1877 20.6867 10.6202 22.3766C10.7302 22.0583 10.8339 21.7418 10.9566 21.4189C12.0062 18.6595 12.081 15.4474 12.1478 12.6113C12.1523 12.4003 12.1694 12.2136 12.1875 12.0261L12.2262 11.6041L7.28001 6.6578ZM43.2779 37.5111C43.4006 38.6149 43.5232 39.7159 43.6683 40.8071C44.0156 43.4258 44.1697 45.9192 44.1264 48.2179C44.0831 50.5471 42.79 51.9188 40.4842 52.0765C29.4239 52.8412 21.0312 49.9637 14.8044 43.286C9.70125 37.8122 8.10964 31.6333 9.97629 24.4732C15.139 23.0133 21.1988 18.2988 22.4416 14.6881C23.4172 11.8529 22.2594 9.11781 19.1898 6.94365C19.1149 6.50269 18.9742 6.04639 18.8309 5.59551C18.6893 5.15094 18.5431 4.69013 18.4908 4.3213C18.3818 3.52864 18.3908 3.1553 18.4097 2.98938C18.9273 2.70893 19.6406 2.60522 19.8444 2.70713C20.2313 2.90372 20.5965 3.36452 20.9103 3.78294C21.5885 4.68562 22.8519 4.93721 23.7888 4.34925C25.2028 3.46371 26.7204 3.29688 28.1777 3.87041L28.7278 4.08684L30.5151 2.29862C31.2176 1.59433 32.3637 1.59614 33.0662 2.29862C33.7687 3.00111 33.7687 4.14636 33.0662 4.84884L31.3059 6.6091L31.6198 7.19796C31.8849 7.69664 32.1158 8.22958 32.3042 8.77967C32.5008 9.35586 32.9156 9.81396 33.4351 10.0755C33.3566 10.1558 33.2944 10.2496 33.224 10.337C33.1555 10.4218 33.0788 10.5011 33.0175 10.5922C32.9454 10.6996 32.8922 10.8176 32.8327 10.9331C32.7858 11.0233 32.7298 11.1072 32.6902 11.201C32.6324 11.3389 32.5964 11.4859 32.5558 11.632C32.5333 11.7131 32.499 11.7889 32.4828 11.8718C32.435 12.1046 32.4097 12.3453 32.4097 12.5915C32.4097 12.8593 32.444 13.119 32.4999 13.3706C32.518 13.4527 32.5495 13.5284 32.5739 13.6077C32.6225 13.7737 32.6757 13.937 32.747 14.0911C32.7876 14.1786 32.8363 14.2589 32.8832 14.3427C32.9598 14.4788 33.0401 14.6105 33.132 14.735C33.1916 14.8153 33.2556 14.8892 33.3214 14.964C33.4216 15.0776 33.527 15.1841 33.6406 15.2842C33.683 15.3212 33.7155 15.368 33.7597 15.4032C33.3756 15.6314 33.1023 16.0146 33.0184 16.4781C32.8949 17.1518 33.2006 17.8091 33.7967 18.1509C36.2188 19.5468 37.9656 21.2025 39.2524 23.0485L39.4868 23.411C39.5121 23.4488 39.5346 23.4885 39.5599 23.5264C40.3174 24.7041 40.9297 25.9873 41.4293 27.4473L41.5916 27.9207L41.5961 27.9216C42.543 30.9101 42.9064 34.17 43.2779 37.5111ZM46.8282 25.8548L46.6037 26.8178C46.5703 26.9612 46.4747 27.0379 46.4224 27.0713C46.3682 27.1046 46.2583 27.1542 46.1149 27.1227L42.9686 26.3895C42.9668 26.385 42.965 26.3813 42.9641 26.3777C42.6079 25.4048 42.1903 24.4534 41.6818 23.5363L44.2022 20.8373C44.3014 20.73 44.4223 20.7102 44.4845 20.7074C44.5476 20.712 44.6702 20.7165 44.7767 20.8175L45.4998 21.4911C45.664 21.6444 45.6721 21.9032 45.5188 22.0673L43.1697 24.585L46.5234 25.3651C46.7417 25.4174 46.8787 25.6365 46.8282 25.8548Z" fill="#E4772F" stroke="white" stroke-width="0.5"/>
<path id="Vector_2" d="M39.1246 39.7966L36.8674 41.3017C35.3344 40.4928 33.9565 39.6397 32.7337 38.7434H36.017C36.5157 38.7434 36.9188 38.3402 36.9188 37.8416C36.9188 37.3429 36.5157 36.9398 36.017 36.9398H30.6064C30.5865 36.9398 30.5703 36.9497 30.5505 36.9506C28.2076 34.7683 26.6927 32.3678 26.0272 29.7688C25.6854 28.4324 25.6061 27.1519 25.6773 25.9706C25.6881 25.9634 25.7017 25.9625 25.7125 25.9553C27.2969 24.8479 29.1455 24.8515 31.2124 25.9598C31.9428 26.3512 32.6832 26.8787 33.4127 27.5117C33.3487 27.6371 33.3126 27.776 33.3126 27.9202V31.5273C33.3126 32.026 33.7157 32.4291 34.2144 32.4291C34.7131 32.4291 35.1161 32.026 35.1161 31.5273V29.2187C35.6374 29.8121 36.1451 30.4515 36.6266 31.1413C36.8016 31.3921 37.082 31.5273 37.367 31.5273C37.5446 31.5273 37.7241 31.4741 37.8819 31.365C38.2904 31.08 38.3896 30.5183 38.1056 30.1088C37.477 29.2088 36.8052 28.3792 36.1081 27.6254L38.3616 25.9355C38.7602 25.6369 38.8414 25.0715 38.542 24.6738C38.2435 24.2743 37.6772 24.195 37.2805 24.4935L34.8096 26.3467C33.9069 25.5368 32.9817 24.8614 32.0637 24.369C29.9121 23.2148 27.8415 23.0299 25.9902 23.7793C26.5782 21.1732 27.7261 19.4391 27.745 19.4102C28.0246 18.999 27.9182 18.4381 27.507 18.1577C27.0976 17.8763 26.5367 17.9818 26.2554 18.3921C26.1111 18.6041 22.8106 23.5403 24.1849 29.7607C24.0442 29.795 23.909 29.8509 23.7944 29.9538C19.8041 33.5347 19.6589 39.931 23.4067 44.3658L23.3922 46.8512C23.3895 47.3499 23.7908 47.7557 24.2886 47.7584C24.2904 47.7584 24.2922 47.7584 24.294 47.7584C24.79 47.7584 25.1931 47.358 25.1958 46.862L25.2057 45.053H26.9993C27.498 45.053 27.9011 44.65 27.9011 44.1513C27.9011 43.6526 27.498 43.2495 26.9993 43.2495H24.8351C21.7663 39.6677 21.7294 34.5726 24.7133 31.5823C25.6448 34.1326 27.3104 36.4835 29.7046 38.6171V43.2495C29.7046 43.7482 30.1077 44.1513 30.6064 44.1513C31.1051 44.1513 31.5082 43.7482 31.5082 43.2495V40.0816C32.841 41.0726 34.3434 42.0113 36.017 42.896V45.0539C36.017 45.5526 36.4201 45.9557 36.9188 45.9557C37.4175 45.9557 37.8205 45.5526 37.8205 45.0539V42.8311L40.1246 41.2953C40.5394 41.0185 40.6512 40.4594 40.3744 40.0446C40.0993 39.6316 39.5403 39.5207 39.1246 39.7966Z" fill="#E4772F" stroke="white" stroke-width="0.5"/>
</g>
</g>
<defs>
<clipPath id="clip0_109_6483">
<rect width="54" height="54" fill="white"/>
</clipPath>
</defs>
</svg>
