<svg width="54" height="54" viewBox="0 0 54 54" fill="none" xmlns="http://www.w3.org/2000/svg">
<g id="&#208;&#189;&#208;&#181;&#208;&#185;&#209;&#128;&#208;&#190;&#209;&#133;&#208;&#184;&#209;&#128;&#209;&#131;&#209;&#128;&#208;&#179;&#208;&#184;&#209;&#143;_1" clip-path="url(#clip0_109_6496)">
<g id="&#208;&#161;&#208;&#187;&#208;&#190;&#208;&#185;_x0020_1">
<g id="_3026996711120">
<g id="Vector">
<mask id="path-1-inside-1_109_6496" fill="white">
<path fill-rule="evenodd" clip-rule="evenodd" d="M15.6372 12.6763V11.9944C15.6372 10.1944 17.3609 8.47004 19.1616 8.47004C20.6664 8.47004 21.4375 8.7314 22.4282 9.86396C22.9013 10.404 22.8048 10.6128 22.7998 11.5394V22.1133C21.0826 22.2559 18.9341 24.3849 18.9341 26.7746C18.9341 28.4803 20.5922 28.3701 21.0228 27.4989C21.2431 27.0532 21.2042 24.8724 22.7998 24.5008V34.7335C22.2036 34.8724 21.8724 35.2116 20.8939 34.9365C20.3042 34.7709 19.6267 34.0509 19.2754 34.0509C17.7569 34.0509 17.2327 35.8495 19.7916 36.9453C20.7946 37.3752 21.727 37.3708 22.7998 37.121V47.6949C22.8026 48.6727 22.897 48.9326 22.4635 49.5187C20.9083 51.6211 17.5495 51.4879 16.1354 49.1292C15.8676 48.682 15.8402 48.3451 15.6372 47.9217C16.62 47.4019 17.5013 47.0426 18.2537 45.9914C19.0558 44.8704 20.6664 41.2142 18.2515 41.2142C17.0527 41.2142 17.3738 42.6146 17.0491 43.5355C16.7345 44.429 16.229 45.036 15.4781 45.4896C13.2432 46.8388 10.5979 45.5673 9.9384 43.3742C9.49559 41.8996 10.5454 43.3065 13.0898 41.3956C14.4413 40.3812 15.5234 38.656 15.5234 36.4384C15.5234 35.5622 14.5428 35.0949 13.817 35.5233C13.0762 35.9611 13.331 36.9525 13.0387 37.8201C12.1675 40.41 8.61792 41.387 6.50903 39.2004C5.7948 38.4602 5.40456 37.5148 5.40456 36.0979C5.89848 36.1087 9.33575 36.9856 9.33647 35.074C9.33647 33.5613 7.41839 34.0509 7.22327 34.0509C2.77151 34.0509 1.6404 28.3824 4.38144 26.5471C5.47008 28.6048 10.2934 30.407 10.2934 27.9115C10.2934 27.3916 9.81167 26.9884 9.36959 26.902C8.64455 26.7602 8.32415 26.7861 7.68984 26.5356C6.80063 26.182 6.12168 25.3958 5.7444 24.5016C4.6968 22.0147 6.58823 19.4162 8.01959 19.3845C8.63735 22.0363 13.4765 24.377 13.4765 21.8858C13.4765 21.294 13.1035 20.921 12.6708 20.759C10.9039 20.0973 9.83831 19.4688 9.83831 16.8832C9.83831 15.8997 10.3776 14.9256 10.9126 14.4331C11.7953 13.6202 12.2071 13.654 13.4765 13.3588C13.4916 14.0414 13.9092 14.8197 14.1562 15.2942C14.4629 15.8853 14.9028 16.3389 15.3787 16.8004C16.4407 17.8308 20.526 19.6207 20.526 17.1108C20.526 15.7068 18.8326 16.4282 17.43 15.5455C16.6502 15.0544 15.6372 13.8787 15.6372 12.6763ZM13.4765 11.0844C10.181 11.3594 7.56455 13.7224 7.56455 16.997C6.34631 17.5816 5.58384 17.7588 4.54128 19.0893C3.51744 20.3954 2.66352 22.9392 3.3576 24.3871C0.170875 26.5212 -0.526805 31.3999 2.8212 34.5873C3.5916 35.3203 3.13008 35.3282 3.13008 36.4384C3.13008 38.9455 4.58231 40.96 6.61703 42.048C6.95975 42.2308 7.24127 42.2935 7.56455 42.4648C7.56455 45.6292 10.1983 48.263 13.3627 48.263C14.0957 49.7908 13.5838 49.8852 15.3233 51.6463C17.3767 53.7256 20.6074 53.7703 23.0755 52.0632C23.4773 51.7852 23.581 51.5707 23.9366 51.3331C25.265 52.2223 25.715 53.2656 28.7117 53.2656C30.7529 53.2656 32.8697 51.7953 33.6775 50.2725C33.9511 49.7577 34.381 48.9528 34.3968 48.263C37.3596 48.263 39.5995 46.3147 40.2238 43.6305C40.3058 43.2756 40.3296 42.7507 40.4225 42.3511C41.5802 42.0811 42.81 41.1069 43.4472 40.2588C44.1492 39.3235 44.7432 38.0253 44.7432 36.4384C44.7432 35.38 44.3393 35.2713 44.993 34.6428C47.3899 32.3352 47.9566 29.3781 46.4114 26.47C45.9557 25.6125 45.3905 25.0106 44.6294 24.5008C44.6294 23.392 45.235 21.8858 43.4918 21.8858C42.3694 21.8858 42.5659 22.9449 42.3838 23.7333C42.1886 24.5786 41.887 25.1496 41.3642 25.6694C39.6701 27.3542 37.5799 26.4427 37.5799 27.9115C37.5799 30.6489 43.0771 28.103 43.4918 26.5471C45.5057 27.6127 45.7073 32.2574 42.5054 33.6333C40.6327 34.4383 40.1338 33.7716 39.3511 33.9955C38.3791 34.2727 37.9061 36.3247 40.5362 36.3247C41.365 36.3247 41.7847 36.113 42.4687 36.0979C42.4687 41.2084 36.3206 41.7434 34.8792 37.8892C34.5559 37.0238 34.7964 36.0028 34.1282 35.5672C33.3816 35.0805 32.3498 35.5608 32.3498 36.4384C32.3498 38.9563 33.8568 41.0385 35.7576 42.0134C36.8268 42.5628 38.035 42.5138 38.035 42.8054C38.035 44.55 35.875 46.612 33.2534 45.882C32.2166 45.5925 31.5298 44.8855 31.0301 44.0121C30.2971 42.7327 31.1597 41.2142 29.3942 41.2142C27.551 41.2142 28.5238 44.488 29.5872 45.9093C30.4534 47.0664 30.9746 47.2543 32.2361 47.9217C31.9128 48.5971 32.1223 48.9096 31.0733 49.9428C29.3726 51.6182 26.5279 51.2157 25.3154 49.3862C24.8885 48.7425 25.0735 45.918 25.0735 44.9654C25.0735 41.8586 25.0735 38.7504 25.0735 35.6428C25.4537 35.5543 25.8583 35.3016 26.3242 35.3016C27.7087 35.3016 28.0406 36.3247 28.7117 36.3247C30.4044 36.3247 30.3569 33.8997 27.6036 33.2265C26.4732 32.95 26.1838 32.9968 25.0735 33.2553V20.8627C27.6468 22.2242 25.9447 24.328 27.7354 24.5455C29.5282 24.7622 28.8924 22.1493 28.5209 21.281C28.0349 20.1441 26.4228 18.6184 25.0735 18.5889V10.7438C25.0735 9.75524 26.7346 8.47004 28.1429 8.47004C32.6616 8.47004 32.0078 12.3739 32.5514 13.0435C33.2585 13.9161 34.5106 13.1904 34.5106 12.5625C34.5106 10.7078 34.0714 9.24476 32.766 7.94012C32.573 7.74644 32.6083 7.82348 32.3866 7.63772C31.8278 7.16972 32.0093 7.25108 31.1777 6.80036C29.2596 5.76212 26.4271 6.04868 24.7128 7.42676C24.4018 7.67732 24.2693 7.90628 23.9366 8.12876C23.3362 7.727 23.6846 7.68668 22.2554 6.85364C21.1841 6.2294 20.2711 6.19628 19.0478 6.19628C16.3622 6.19628 13.6673 8.79332 13.4765 11.0844Z"/>
</mask>
<path fill-rule="evenodd" clip-rule="evenodd" d="M15.6372 12.6763V11.9944C15.6372 10.1944 17.3609 8.47004 19.1616 8.47004C20.6664 8.47004 21.4375 8.7314 22.4282 9.86396C22.9013 10.404 22.8048 10.6128 22.7998 11.5394V22.1133C21.0826 22.2559 18.9341 24.3849 18.9341 26.7746C18.9341 28.4803 20.5922 28.3701 21.0228 27.4989C21.2431 27.0532 21.2042 24.8724 22.7998 24.5008V34.7335C22.2036 34.8724 21.8724 35.2116 20.8939 34.9365C20.3042 34.7709 19.6267 34.0509 19.2754 34.0509C17.7569 34.0509 17.2327 35.8495 19.7916 36.9453C20.7946 37.3752 21.727 37.3708 22.7998 37.121V47.6949C22.8026 48.6727 22.897 48.9326 22.4635 49.5187C20.9083 51.6211 17.5495 51.4879 16.1354 49.1292C15.8676 48.682 15.8402 48.3451 15.6372 47.9217C16.62 47.4019 17.5013 47.0426 18.2537 45.9914C19.0558 44.8704 20.6664 41.2142 18.2515 41.2142C17.0527 41.2142 17.3738 42.6146 17.0491 43.5355C16.7345 44.429 16.229 45.036 15.4781 45.4896C13.2432 46.8388 10.5979 45.5673 9.9384 43.3742C9.49559 41.8996 10.5454 43.3065 13.0898 41.3956C14.4413 40.3812 15.5234 38.656 15.5234 36.4384C15.5234 35.5622 14.5428 35.0949 13.817 35.5233C13.0762 35.9611 13.331 36.9525 13.0387 37.8201C12.1675 40.41 8.61792 41.387 6.50903 39.2004C5.7948 38.4602 5.40456 37.5148 5.40456 36.0979C5.89848 36.1087 9.33575 36.9856 9.33647 35.074C9.33647 33.5613 7.41839 34.0509 7.22327 34.0509C2.77151 34.0509 1.6404 28.3824 4.38144 26.5471C5.47008 28.6048 10.2934 30.407 10.2934 27.9115C10.2934 27.3916 9.81167 26.9884 9.36959 26.902C8.64455 26.7602 8.32415 26.7861 7.68984 26.5356C6.80063 26.182 6.12168 25.3958 5.7444 24.5016C4.6968 22.0147 6.58823 19.4162 8.01959 19.3845C8.63735 22.0363 13.4765 24.377 13.4765 21.8858C13.4765 21.294 13.1035 20.921 12.6708 20.759C10.9039 20.0973 9.83831 19.4688 9.83831 16.8832C9.83831 15.8997 10.3776 14.9256 10.9126 14.4331C11.7953 13.6202 12.2071 13.654 13.4765 13.3588C13.4916 14.0414 13.9092 14.8197 14.1562 15.2942C14.4629 15.8853 14.9028 16.3389 15.3787 16.8004C16.4407 17.8308 20.526 19.6207 20.526 17.1108C20.526 15.7068 18.8326 16.4282 17.43 15.5455C16.6502 15.0544 15.6372 13.8787 15.6372 12.6763ZM13.4765 11.0844C10.181 11.3594 7.56455 13.7224 7.56455 16.997C6.34631 17.5816 5.58384 17.7588 4.54128 19.0893C3.51744 20.3954 2.66352 22.9392 3.3576 24.3871C0.170875 26.5212 -0.526805 31.3999 2.8212 34.5873C3.5916 35.3203 3.13008 35.3282 3.13008 36.4384C3.13008 38.9455 4.58231 40.96 6.61703 42.048C6.95975 42.2308 7.24127 42.2935 7.56455 42.4648C7.56455 45.6292 10.1983 48.263 13.3627 48.263C14.0957 49.7908 13.5838 49.8852 15.3233 51.6463C17.3767 53.7256 20.6074 53.7703 23.0755 52.0632C23.4773 51.7852 23.581 51.5707 23.9366 51.3331C25.265 52.2223 25.715 53.2656 28.7117 53.2656C30.7529 53.2656 32.8697 51.7953 33.6775 50.2725C33.9511 49.7577 34.381 48.9528 34.3968 48.263C37.3596 48.263 39.5995 46.3147 40.2238 43.6305C40.3058 43.2756 40.3296 42.7507 40.4225 42.3511C41.5802 42.0811 42.81 41.1069 43.4472 40.2588C44.1492 39.3235 44.7432 38.0253 44.7432 36.4384C44.7432 35.38 44.3393 35.2713 44.993 34.6428C47.3899 32.3352 47.9566 29.3781 46.4114 26.47C45.9557 25.6125 45.3905 25.0106 44.6294 24.5008C44.6294 23.392 45.235 21.8858 43.4918 21.8858C42.3694 21.8858 42.5659 22.9449 42.3838 23.7333C42.1886 24.5786 41.887 25.1496 41.3642 25.6694C39.6701 27.3542 37.5799 26.4427 37.5799 27.9115C37.5799 30.6489 43.0771 28.103 43.4918 26.5471C45.5057 27.6127 45.7073 32.2574 42.5054 33.6333C40.6327 34.4383 40.1338 33.7716 39.3511 33.9955C38.3791 34.2727 37.9061 36.3247 40.5362 36.3247C41.365 36.3247 41.7847 36.113 42.4687 36.0979C42.4687 41.2084 36.3206 41.7434 34.8792 37.8892C34.5559 37.0238 34.7964 36.0028 34.1282 35.5672C33.3816 35.0805 32.3498 35.5608 32.3498 36.4384C32.3498 38.9563 33.8568 41.0385 35.7576 42.0134C36.8268 42.5628 38.035 42.5138 38.035 42.8054C38.035 44.55 35.875 46.612 33.2534 45.882C32.2166 45.5925 31.5298 44.8855 31.0301 44.0121C30.2971 42.7327 31.1597 41.2142 29.3942 41.2142C27.551 41.2142 28.5238 44.488 29.5872 45.9093C30.4534 47.0664 30.9746 47.2543 32.2361 47.9217C31.9128 48.5971 32.1223 48.9096 31.0733 49.9428C29.3726 51.6182 26.5279 51.2157 25.3154 49.3862C24.8885 48.7425 25.0735 45.918 25.0735 44.9654C25.0735 41.8586 25.0735 38.7504 25.0735 35.6428C25.4537 35.5543 25.8583 35.3016 26.3242 35.3016C27.7087 35.3016 28.0406 36.3247 28.7117 36.3247C30.4044 36.3247 30.3569 33.8997 27.6036 33.2265C26.4732 32.95 26.1838 32.9968 25.0735 33.2553V20.8627C27.6468 22.2242 25.9447 24.328 27.7354 24.5455C29.5282 24.7622 28.8924 22.1493 28.5209 21.281C28.0349 20.1441 26.4228 18.6184 25.0735 18.5889V10.7438C25.0735 9.75524 26.7346 8.47004 28.1429 8.47004C32.6616 8.47004 32.0078 12.3739 32.5514 13.0435C33.2585 13.9161 34.5106 13.1904 34.5106 12.5625C34.5106 10.7078 34.0714 9.24476 32.766 7.94012C32.573 7.74644 32.6083 7.82348 32.3866 7.63772C31.8278 7.16972 32.0093 7.25108 31.1777 6.80036C29.2596 5.76212 26.4271 6.04868 24.7128 7.42676C24.4018 7.67732 24.2693 7.90628 23.9366 8.12876C23.3362 7.727 23.6846 7.68668 22.2554 6.85364C21.1841 6.2294 20.2711 6.19628 19.0478 6.19628C16.3622 6.19628 13.6673 8.79332 13.4765 11.0844Z" fill="#E4772F" stroke="white" mask="url(#path-1-inside-1_109_6496)"/>
</g>
<path id="Vector_2" d="M45.9455 6.03969L45.7096 5.98468C45.4718 5.92923 45.2182 5.82834 44.9746 5.73141C44.8916 5.69841 44.8098 5.66587 44.7302 5.63574C44.4012 5.51124 44.076 5.41226 43.7359 5.40608C43.0871 5.39431 42.282 5.7218 41.2906 7.2205C41.1268 7.46845 40.9804 7.67059 40.8334 7.87353C40.7654 7.96739 40.6973 8.06142 40.6273 8.16022L40.6271 8.16049C40.1056 8.89446 38.6364 11.0161 37.2708 13.049C36.588 14.0655 35.9322 15.0582 35.4341 15.8435C35.1849 16.2363 34.9764 16.5753 34.824 16.8386C34.7478 16.9703 34.6869 17.081 34.6423 17.1688C34.5954 17.2612 34.5738 17.3143 34.5676 17.3364L34.5676 17.3365C34.2104 18.5979 34.0309 19.3406 34.0579 19.9628C34.0841 20.5645 34.3056 21.0749 34.8314 21.8605L34.9251 22.0004L34.8306 22.1398L30.1463 29.0518L30.1462 29.052C29.6789 29.74 29.657 30.1867 29.7708 30.434C29.8821 30.6758 30.1804 30.8453 30.6449 30.8453C30.9162 30.8453 31.187 30.6419 31.4632 30.2907C31.644 30.0607 31.7921 29.8169 31.9293 29.591C32.0021 29.4711 32.0718 29.3562 32.1418 29.2511L32.1419 29.2509C32.27 29.0588 32.5688 28.625 32.9492 28.0725C33.3581 27.4786 33.8613 26.7477 34.3484 26.0328C34.8199 25.3407 35.2773 24.6622 35.6232 24.132C35.7963 23.8666 35.9404 23.6402 36.0439 23.4686C36.0958 23.3825 36.1363 23.3125 36.1647 23.2593C36.187 23.2176 36.1969 23.1955 36.2003 23.1878C36.2019 23.1842 36.2021 23.1837 36.2015 23.1858L36.2639 22.9518L36.4998 23.0067C37.3969 23.2155 37.7759 23.2926 38.1484 23.2151C38.333 23.1767 38.527 23.0971 38.7897 22.9535C39.0398 22.8167 39.3386 22.6298 39.741 22.3781L39.8126 22.3333L39.8127 22.3333C40.6721 21.7961 41.1034 21.4275 41.4565 20.999C41.6976 20.7063 41.9009 20.3892 42.1742 19.9629C42.3158 19.742 42.4762 19.4918 42.6705 19.2005M45.9455 6.03969L42.8785 19.3391M45.9455 6.03969L46.0079 5.80565C46.0347 5.70538 46.1445 5.49258 46.3318 5.19347C46.5121 4.90559 46.746 4.56561 46.9942 4.22348C47.4938 3.53487 48.0359 2.85924 48.3024 2.59103L48.3025 2.591C49.1157 1.77225 50.3801 1.18177 51.4337 1.01632C51.9625 0.933274 52.4047 0.962723 52.7017 1.09277C52.8464 1.15617 52.951 1.24073 53.0202 1.34323C53.0889 1.44495 53.1333 1.57976 53.1333 1.76177C53.1333 2.0211 53.0815 2.19688 53.0105 2.31893C52.9403 2.43954 52.8418 2.52433 52.7196 2.58692C52.4728 2.71321 52.1581 2.73916 51.8359 2.76572C51.8168 2.7673 51.7976 2.76888 51.7784 2.77048L51.7783 2.77049C50.6162 2.86822 49.7751 3.51454 49.1007 4.31154C48.6394 4.85667 48.2367 5.49876 47.86 6.09926C47.695 6.36228 47.5351 6.61731 47.3774 6.85273L47.2842 6.99184L47.3774 7.13096C47.5602 7.40394 47.7689 7.64645 47.9586 7.86675C48.0158 7.93329 48.0714 7.9978 48.1239 8.06052C48.3577 8.33954 48.5419 8.59255 48.6429 8.88321C48.8365 9.44017 48.7556 10.2392 47.7412 11.7642L47.742 11.7631L47.9487 11.9037M45.9455 6.03969L47.5851 6.99185C47.7587 7.25101 47.9536 7.47762 48.1415 7.69594C48.9411 8.6252 49.6115 9.40427 47.9487 11.9037M42.6705 19.2005L42.8785 19.3391M42.6705 19.2005C42.6704 19.2005 42.6704 19.2006 42.6704 19.2006L42.8785 19.3391M42.6705 19.2005C42.8993 18.8567 43.1164 18.5452 43.3293 18.2401L43.3458 18.2165C43.5534 17.919 43.757 17.6271 43.9665 17.3132L43.9678 17.3114L47.7406 11.7652L47.9487 11.9037M42.8785 19.3391C43.1117 18.9887 43.3328 18.6719 43.5514 18.3587C43.7586 18.0618 43.9635 17.7681 44.1745 17.452L47.9487 11.9037M36.5078 17.3537L36.5075 17.3535L36.5004 17.365C36.3213 17.6584 36.1614 18.1672 36.0467 18.6794C35.9305 19.1984 35.8518 19.7613 35.8518 20.1808C35.8518 20.2494 35.8772 20.304 35.8895 20.3285C35.905 20.3594 35.9241 20.3884 35.9424 20.4135C35.9793 20.4643 36.0279 20.5198 36.0816 20.5755C36.1901 20.6881 36.3367 20.8194 36.4979 20.9444C36.6588 21.0693 36.8406 21.1928 37.02 21.2862C37.1925 21.3761 37.392 21.4539 37.58 21.4539C37.7787 21.4539 38.0132 21.3661 38.2301 21.2613C38.4569 21.1517 38.7026 21.0042 38.9358 20.8482C39.3942 20.5417 39.8424 20.1765 40.0156 19.9686L40.0233 19.9593L40.0301 19.9493L42.8828 15.7603C43.0373 15.5524 43.354 15.1253 43.6478 14.6941C43.7955 14.4773 43.9393 14.2566 44.0543 14.0606C44.165 13.872 44.2634 13.6829 44.3023 13.5369L44.3665 13.2957L44.1254 13.2311C44.1049 13.2256 44.0477 13.2008 43.9445 13.1407C43.848 13.0845 43.7293 13.0084 43.593 12.9171C43.3899 12.7811 43.1561 12.6168 42.9083 12.4429C42.8227 12.3828 42.7354 12.3215 42.6472 12.2599C42.3064 12.0216 41.9529 11.7785 41.6398 11.5844C41.3374 11.3969 41.0393 11.2334 40.8199 11.1822L40.5838 11.127L40.5215 11.3614C40.5135 11.3914 40.4796 11.4692 40.4057 11.6029C40.336 11.7289 40.2416 11.8857 40.1287 12.0647C39.9033 12.4224 39.6103 12.8595 39.309 13.2996C38.9774 13.7839 38.6324 14.2763 38.3608 14.6639C38.1444 14.9727 37.9748 15.2149 37.8957 15.3332C37.8954 15.3337 37.8951 15.3342 37.8947 15.3347L36.5078 17.3537ZM41.9997 9.42866L41.9689 9.54421L42.0395 9.64074C42.0659 9.6768 42.1026 9.71149 42.1305 9.73683C42.1631 9.7663 42.2032 9.80021 42.2487 9.83713C42.3399 9.91119 42.4597 10.0033 42.5979 10.1062C42.8747 10.3125 43.2319 10.5674 43.5963 10.8184C43.9606 11.0694 44.3344 11.3181 44.6441 11.5117C44.7987 11.6083 44.9396 11.6925 45.0565 11.7568C45.1652 11.8166 45.276 11.8721 45.3607 11.8947L45.553 11.946L45.6461 11.77C45.8694 11.3478 46.0973 11.0151 46.2977 10.7374C46.3378 10.6819 46.3776 10.6274 46.4166 10.5742C46.5662 10.3697 46.7036 10.182 46.7938 10.0145C46.9134 9.79274 46.9853 9.54518 46.8746 9.27818C46.7746 9.03695 46.5439 8.83191 46.2237 8.62229L46.2236 8.62222C45.8245 8.36121 45.4963 8.11435 45.2134 7.90096L45.1905 7.88369C44.922 7.68121 44.6823 7.5004 44.4678 7.37931C44.247 7.25465 44.0094 7.16724 43.7569 7.21437C43.5034 7.26168 43.2969 7.43269 43.1084 7.67622L43.1084 7.67622C42.9598 7.86828 42.715 8.1958 42.4938 8.52385C42.3833 8.68775 42.2769 8.85445 42.1909 9.00602C42.1079 9.15246 42.0333 9.30274 41.9997 9.42866Z" fill="#E4772F" stroke="white" stroke-width="0.5"/>
<path id="Vector_3" fill-rule="evenodd" clip-rule="evenodd" d="M15.5232 29.2761C15.5232 29.7945 15.1711 30.3985 14.873 30.6729C14.2869 31.2136 14.1782 31.0631 13.2926 31.2525C11.9268 31.5441 12.2587 33.483 13.4762 33.483C15.8745 33.483 17.7969 31.5354 17.7969 29.1623C17.7969 27.0037 15.9393 24.9561 13.4762 24.9561C12.2443 24.9561 11.9124 26.8288 13.2991 27.1794C13.7009 27.2817 15.5232 27.2889 15.5232 29.2761Z" fill="#E4772F"/>
</g>
</g>
</g>
<defs>
<clipPath id="clip0_109_6496">
<rect width="54" height="54" fill="white"/>
</clipPath>
</defs>
</svg>
