<svg width="54" height="54" viewBox="0 0 54 54" fill="none" xmlns="http://www.w3.org/2000/svg">
<g id="Nevrologiya" clip-path="url(#clip0_109_6490)">
<g id="Group">
<path id="Vector" d="M53.7476 20.286C53.6508 20.0183 53.5203 19.7554 53.3488 19.4829C53.3449 19.4768 53.3412 19.4709 53.3372 19.4649L53.2103 19.274C53.207 19.2692 53.2035 19.2641 53.2002 19.2592C53.1569 19.1971 53.1125 19.1369 53.0664 19.078C52.9706 18.9557 52.8689 18.841 52.7644 18.7372L52.4883 18.463L52.7418 18.1675C52.9117 17.9693 53.0536 17.7324 53.2013 17.3991C53.2037 17.3936 53.2059 17.3882 53.2084 17.3826C53.2726 17.2292 53.3333 17.0793 53.3683 16.9376C53.4105 16.7714 53.4438 16.6027 53.4691 16.427C53.5728 15.7435 53.4825 14.9923 53.2053 14.2468C53.1372 14.0689 53.0492 13.8977 52.9647 13.7376C52.9618 13.732 52.9589 13.7265 52.9558 13.7211L52.9309 13.6762C52.8476 13.5262 52.769 13.3845 52.6833 13.2734L52.6748 13.2623C52.5645 13.1145 52.446 12.9705 52.3256 12.8373C52.1929 12.6894 52.0808 12.5818 51.9674 12.4929C51.6335 12.2267 51.395 12.0726 51.152 11.9644C50.8646 11.833 50.5738 11.738 50.2881 11.6818L49.9106 11.6076L49.9531 11.2251C49.9853 10.9351 49.982 10.6269 49.9442 10.3162C49.9143 10.051 49.8431 9.77887 49.7057 9.40636C49.7036 9.40042 49.7014 9.39466 49.6992 9.38891C49.4555 8.76987 49.046 8.19064 48.5217 7.71983C48.2396 7.46111 47.9199 7.26452 47.6727 7.12214C47.667 7.11886 47.661 7.11539 47.6552 7.11222C47.3991 6.97258 47.111 6.85857 46.7489 6.75321C46.4955 6.67937 46.2074 6.63751 45.8423 6.62126C45.8376 6.62105 45.8328 6.62095 45.828 6.62085C45.7817 6.61958 45.7358 6.61884 45.6901 6.61884C45.617 6.61884 45.509 6.62074 45.3992 6.63086C45.2506 6.64637 45.1031 6.66978 44.9609 6.70058L44.5561 6.78833L44.4643 6.38438C44.1986 5.21484 43.2898 4.15014 42.0935 3.60592C41.5074 3.33909 40.8929 3.20366 40.267 3.20366C39.6279 3.20366 39.0062 3.34953 38.4688 3.62543L38.0981 3.8157L37.9063 3.44561C37.3435 2.36045 36.2583 1.56131 35.0061 1.30818C34.7031 1.24596 34.3949 1.21442 34.0901 1.21442C33.124 1.21442 32.2052 1.52861 31.5029 2.09909L31.173 2.36698L30.9102 2.03307C30.7332 1.80821 30.525 1.60181 30.2954 1.42272C30.0671 1.24258 29.8151 1.08174 29.5465 0.945159C29.5368 0.940308 29.5271 0.935457 29.5171 0.930921C28.9115 0.651535 28.296 0.508097 27.6877 0.504828C27.6634 0.504406 27.5829 0.50293 27.5541 0.50293C26.983 0.50293 26.4001 0.626644 25.8216 0.870593C25.8116 0.874812 25.8017 0.879241 25.7919 0.883776C25.5194 1.01129 25.2607 1.16485 25.0266 1.3374C24.7904 1.50963 24.5775 1.70749 24.3936 1.92559L24.1198 2.25055L23.799 1.97168C23.0747 1.34183 22.1113 0.995046 21.0861 0.995046C20.8346 0.995046 20.5797 1.01646 20.3288 1.05864C19.0697 1.2699 17.9588 2.02758 17.3569 3.08532L17.1512 3.44645L16.7887 3.24343C16.2075 2.91784 15.5287 2.74572 14.8255 2.74572C14.2667 2.74572 13.7153 2.8534 13.1864 3.0655C13.1814 3.0675 13.1761 3.06972 13.171 3.07182C12.8472 3.20915 12.5551 3.36576 12.3028 3.53757C12.2965 3.5419 12.2902 3.54622 12.284 3.55076C12.0266 3.73627 11.7893 3.94321 11.5789 4.16575C11.5721 4.17281 11.5657 4.17988 11.5593 4.18716C11.1326 4.67041 10.8398 5.18911 10.6894 5.72879L10.5786 6.1262L10.1798 6.02115C9.87336 5.94046 9.58239 5.89627 9.31464 5.89026C9.31068 5.89015 9.3069 5.89016 9.30294 5.89016L9.23958 5.88963C8.96241 5.88963 8.67723 5.91695 8.39193 5.97084C8.38528 5.97211 8.37885 5.97337 8.37231 5.97485C8.08491 6.03613 7.78707 6.1359 7.45484 6.28292C7.19086 6.40242 6.90472 6.57823 6.57967 6.82039C6.57386 6.82471 6.56806 6.82914 6.56237 6.83368C6.32327 7.02163 6.08659 7.25576 5.83864 7.54992C5.83241 7.5573 5.8263 7.56489 5.82018 7.57249C5.63403 7.80915 5.4618 8.08443 5.30814 8.39092C5.30349 8.4001 5.29907 8.40948 5.29474 8.41877C5.02611 9.0064 4.90018 9.61903 4.93045 10.1904L4.95186 10.5921L4.55129 10.6291C4.41155 10.642 4.26811 10.6632 4.12499 10.6926C4.11496 10.6947 4.10495 10.697 4.09504 10.6994C3.96994 10.7297 3.83315 10.7722 3.68307 10.8276C3.34103 10.9563 3.06513 11.099 2.84459 11.2604L2.8331 11.2693C2.50773 11.4981 2.26431 11.7153 2.07341 11.9454L2.06128 11.9598C1.9478 12.0906 1.83779 12.2297 1.73423 12.3726C1.72484 12.3856 1.71566 12.399 1.7069 12.4125C1.61747 12.5522 1.52803 12.7085 1.43554 12.887C1.10458 13.5192 0.930339 14.2686 0.945 15.0015C0.952488 15.2973 1.00438 15.6246 1.0992 15.9744C1.1012 15.9819 1.10342 15.9894 1.10552 15.9968C1.18568 16.2633 1.3133 16.5393 1.48522 16.8173L1.6837 17.1384L1.3846 17.3688C0.596112 17.9759 -0.22475 19.3269 0.0564291 21.1356C0.058855 21.1505 0.0613862 21.1654 0.0646558 21.1803C0.107054 21.3816 0.158944 21.5835 0.221487 21.7892L0.240682 21.8499C0.2738 21.956 0.289199 22.0038 0.314511 22.0637C0.358175 22.1641 0.403843 22.2628 0.448772 22.3539C0.535257 22.5261 0.628702 22.7079 0.735753 22.8696C0.742081 22.8791 0.74862 22.8885 0.755264 22.8978C0.869276 23.0559 0.992565 23.2107 1.11734 23.3516L1.15024 23.388C1.20487 23.4489 1.24685 23.4949 1.28904 23.5353C1.29716 23.5429 1.30528 23.5504 1.31372 23.5578C1.3827 23.6189 1.45241 23.6772 1.52202 23.7325C1.65607 23.839 1.79392 23.9368 1.93177 24.0232C1.94811 24.0333 1.96488 24.0432 1.98176 24.0522C2.26673 24.2052 2.56142 24.3155 2.85736 24.3806L3.18916 24.4536L3.18589 24.7934C3.18283 25.1106 3.22386 25.4345 3.30455 25.7298C3.3075 25.7408 3.31077 25.7517 3.31425 25.7626C3.36382 25.9188 3.42457 26.0781 3.49439 26.235C3.52751 26.3095 3.56273 26.3841 3.60049 26.4588C3.60777 26.4731 3.61536 26.4872 3.62348 26.5011C3.66304 26.5695 3.70511 26.6362 3.74909 26.7042C3.84813 26.8559 3.95782 27.0074 4.07542 27.1543C4.0827 27.1635 4.09028 27.1725 4.09788 27.1812C4.1986 27.2969 4.31694 27.417 4.48558 27.5738C4.5592 27.6414 4.63493 27.7081 4.70949 27.7706C4.77193 27.8216 4.82815 27.8602 4.87339 27.8912L4.93573 27.9343C5.09277 28.0414 5.25793 28.1437 5.42668 28.2383C5.43923 28.2453 5.45189 28.252 5.46476 28.2585C6.10759 28.5773 6.77489 28.7459 7.3943 28.7459C7.43027 28.7459 7.46581 28.7455 7.51064 28.7439C7.672 28.7402 7.83231 28.7287 7.98735 28.7095C7.99347 28.7088 7.99959 28.7079 8.00581 28.707C8.16548 28.6837 8.32612 28.6427 8.4414 28.6115C8.76307 28.5211 9.02925 28.4125 9.25488 28.279L9.61443 28.0667L9.82746 28.4258C10.4356 29.4514 11.6064 30.198 12.8813 30.3743C13.0884 30.4034 13.2982 30.418 13.5045 30.418C14.5402 30.418 15.5264 30.0509 16.2818 29.3842L16.6025 29.1013L16.8783 29.4279C17.6466 30.3369 18.7956 30.8815 20.0311 30.9227C20.0893 30.9245 20.147 30.9231 20.2048 30.9228C19.8876 31.5338 19.7139 32.2199 19.7139 32.9343C19.7139 35.054 21.2337 36.8248 23.2409 37.216C23.447 41.101 25.7754 44.6504 29.293 46.3654L32.4109 47.8857L32.4356 47.8977C33.5075 48.4143 34.1735 49.4523 34.1735 50.6069C34.1735 52.201 35.4704 53.4979 37.0645 53.4979H38.1037C39.6977 53.4979 40.9947 52.201 40.9947 50.6069C40.9947 48.3072 40.163 46.1085 38.7326 44.3744C38.9925 44.3926 39.2533 44.4029 39.5144 44.4029C39.6682 44.4029 39.8223 44.3997 39.9762 44.3932C45.9312 44.1463 50.5932 39.2786 50.5894 33.3116C50.5892 32.8408 50.2074 32.4596 49.7368 32.4596C49.7367 32.4596 49.7364 32.4596 49.7363 32.4596C49.2654 32.4598 48.8839 32.8419 48.8841 33.3128C48.8874 38.3617 44.9435 42.4806 39.9056 42.6895C38.3464 42.7542 36.7879 42.431 35.4007 41.7545L32.2828 40.2342C31.2033 39.7078 30.4292 38.7125 30.1555 37.568C30.1628 37.5675 30.1701 37.5676 30.1772 37.567C30.846 37.5135 31.4446 37.3445 31.9533 37.0664C32.4904 36.7759 32.9403 36.4006 33.2911 35.9511L33.551 35.6177L33.8817 35.8813C34.3235 36.2336 34.858 36.5028 35.4275 36.6602C35.4373 36.663 35.4471 36.6655 35.457 36.6678C35.8138 36.7527 36.1758 36.7957 36.533 36.7957C36.7925 36.7957 37.0579 36.7725 37.3008 36.7287C37.3046 36.728 37.3082 36.7273 37.312 36.7264C37.9895 36.5946 38.5831 36.3475 39.0683 35.9972C39.3203 35.8194 39.5467 35.6238 39.741 35.4161C39.7459 35.4108 39.7507 35.4057 39.7553 35.4003C39.9519 35.1794 40.1232 34.9419 40.2646 34.6942L40.4696 34.3347L40.8312 34.5359C41.1131 34.6928 41.3822 34.8077 41.6351 34.8787C41.925 34.9586 42.2312 35.0091 42.5389 35.0286L42.5532 35.0297C42.827 35.0522 43.1357 35.0322 43.5056 34.9671C43.8798 34.9017 44.1881 34.8104 44.4751 34.6794L44.4977 34.6695C45.7601 34.1307 46.7252 33.0158 46.9571 31.8275L47.0332 31.4377L47.4265 31.4934C47.5623 31.5126 47.7071 31.5313 47.8638 31.5313C47.8639 31.5313 47.8641 31.5313 47.8643 31.5313C48.0156 31.5298 48.1719 31.519 48.3289 31.4988C48.487 31.4787 48.6485 31.4491 48.8107 31.4103C48.9605 31.3742 49.12 31.3099 49.2607 31.2534C49.2638 31.2522 49.2684 31.2503 49.2715 31.249C49.4296 31.1832 49.5894 31.1073 49.7461 31.0236C49.7518 31.0206 49.7577 31.0174 49.7633 31.0143C49.9026 30.9355 50.0396 30.836 50.1917 30.7233C50.1967 30.7195 50.2017 30.7159 50.2065 30.7121C50.3399 30.6087 50.491 30.4916 50.6201 30.3639C50.6247 30.3592 50.6293 30.3545 50.634 30.3498C50.7704 30.2084 50.902 30.0596 51.0251 29.9064C51.0802 29.8378 51.1341 29.769 51.1855 29.6991C51.1969 29.6835 51.2078 29.6676 51.2181 29.6514C51.2652 29.5773 51.3104 29.5027 51.3546 29.427C51.4481 29.2668 51.5346 29.1018 51.6123 28.9368C51.6193 28.9221 51.6257 28.9072 51.6318 28.892C51.7705 28.5472 51.8667 28.2137 51.9177 27.9008C51.9198 27.8874 51.9218 27.874 51.9233 27.8604C51.9548 27.5835 51.985 27.2233 51.938 26.8909C51.8879 26.5397 51.8125 26.25 51.7077 26.0052L51.5561 25.6509L51.8965 25.4706C52.1566 25.3329 52.4042 25.161 52.6324 24.9597C52.641 24.9522 52.6496 24.9442 52.6577 24.9363C52.8979 24.7063 53.1028 24.4645 53.2713 24.21C53.6508 23.6238 53.8979 22.9328 53.9668 22.2702L53.9683 22.2571C54.0488 21.5892 53.9752 20.9274 53.7476 20.286ZM31.5349 41.7676L34.6529 43.2879C34.6541 43.2885 34.6553 43.2891 34.6565 43.2897C37.4706 44.6459 39.2891 47.5181 39.2891 50.6074C39.2891 51.2611 38.7572 51.793 38.1034 51.793H37.0642C36.4104 51.793 35.8785 51.2611 35.8785 50.6074C35.8785 48.7919 34.8428 47.1652 33.1721 46.3601L30.0402 44.8332C27.1021 43.4008 25.1491 40.4491 24.9477 37.2091C25.0147 37.1956 25.0817 37.1817 25.148 37.1652C25.6046 37.0499 25.881 36.5863 25.7659 36.1298C25.6504 35.6732 25.187 35.3967 24.7305 35.5119C24.5184 35.5655 24.2984 35.5925 24.0768 35.5925C22.6113 35.5925 21.4191 34.4003 21.4191 32.9348C21.4191 32.4329 21.5591 31.9534 21.813 31.5412C22.4667 33.0359 23.8649 34.1196 25.4943 34.351L25.7587 34.3887L25.836 34.6443C26.0474 35.3437 26.4479 35.9763 26.9939 36.4734C27.4035 36.8466 27.8818 37.1348 28.3792 37.311C28.6039 39.2133 29.7923 40.918 31.5349 41.7676ZM52.2743 22.0617L52.2713 22.089C52.2291 22.4952 52.076 22.9196 51.8449 23.2765C51.755 23.4123 51.6329 23.5562 51.4913 23.6933C51.3674 23.801 51.2355 23.8921 51.0988 23.9645L50.2426 24.4178C50.2181 24.4156 50.1935 24.414 50.1684 24.414H48.6884C47.7007 24.414 46.8974 23.6107 46.8974 22.623C46.8974 20.6951 45.3289 19.1265 43.401 19.1265H43.2767C41.3489 19.1265 39.7804 20.695 39.7804 22.623C39.7804 23.4985 39.0681 24.2106 38.1926 24.2106C37.2049 24.2106 36.4016 23.4073 36.4016 22.4196V21.6738C36.4016 21.2029 36.0197 20.8212 35.5489 20.8212C35.078 20.8212 34.6964 21.203 34.6964 21.6738V22.4196C34.6964 24.3474 36.2648 25.916 38.1928 25.916C40.0084 25.916 41.4857 24.4388 41.4857 22.623C41.4857 21.6354 42.289 20.832 43.2767 20.832H43.401C44.3887 20.832 45.1921 21.6354 45.1921 22.623C45.1921 24.5509 46.7605 26.1195 48.6884 26.1195H49.901L50.1401 26.6778C50.1845 26.7817 50.2215 26.9349 50.2496 27.1318C50.2639 27.2337 50.2578 27.407 50.2311 27.647C50.2006 27.8248 50.1425 28.022 50.0586 28.234C50.0048 28.3469 49.945 28.4598 49.8811 28.5697C49.8531 28.6176 49.8244 28.6651 49.7947 28.7125C49.7626 28.7552 49.7294 28.7973 49.6959 28.8388C49.6078 28.9485 49.5133 29.0558 49.4153 29.1577C49.359 29.2118 49.2552 29.2926 49.169 29.3594C49.0988 29.4115 48.9895 29.492 48.9307 29.5266C48.8261 29.5822 48.7207 29.6321 48.6239 29.6724C48.5623 29.6971 48.4474 29.7435 48.4124 29.753C48.3113 29.7772 48.2102 29.7958 48.1127 29.8082C48.0212 29.8199 47.9316 29.8261 47.8536 29.8271C47.8144 29.8271 47.7021 29.8111 47.6653 29.8058L46.4705 29.6364C46.0211 29.5725 45.6009 29.872 45.514 30.3173L45.283 31.5015C45.1579 32.1419 44.5718 32.7856 43.8241 33.1032C43.8206 33.1047 43.8167 33.1063 43.8132 33.1079L43.7808 33.1223C43.7773 33.1238 43.7736 33.1254 43.7702 33.1269C43.618 33.1968 43.4405 33.2478 43.2104 33.288C43.0351 33.3188 42.8933 33.3339 42.7769 33.3339C42.7488 33.3339 42.7209 33.333 42.6834 33.33L42.6528 33.3278C42.455 33.3152 42.2649 33.284 42.0914 33.2363C42.0084 33.213 41.8661 33.1611 41.6599 33.0464L40.5609 32.4349C40.1523 32.2075 39.6372 32.3516 39.4056 32.7575L38.7826 33.8496C38.7018 33.9913 38.6027 34.129 38.4877 34.2592C38.3739 34.3797 38.2379 34.4959 38.0768 34.6097C37.7873 34.8185 37.4219 34.9673 36.9911 35.0519C36.6484 35.113 36.248 35.1016 35.8656 35.0128C35.5218 34.9159 35.2033 34.7555 34.9437 34.5485L34.3714 34.0922C34.3743 34.0641 34.3758 34.0355 34.3758 34.0066V33.8823C34.3758 31.9545 32.8073 30.386 30.8795 30.386C30.0039 30.386 29.2917 29.6737 29.2917 28.7982C29.2917 27.8106 30.095 27.0072 31.0828 27.0072H31.8284C32.2994 27.0072 32.6811 26.6253 32.6811 26.1546C32.6811 25.6838 32.2992 25.302 31.8284 25.302H31.0828C29.1549 25.302 27.5864 26.8704 27.5864 28.7983C27.5864 30.6141 29.0635 32.0913 30.8793 32.0913C31.867 32.0913 32.6704 32.8947 32.6704 33.8823V33.973L31.9451 34.9027C31.74 35.1657 31.4693 35.3892 31.1373 35.5689C30.8374 35.7328 30.4683 35.8333 30.0414 35.8674C29.8283 35.8842 29.6038 35.8684 29.3703 35.8212C29.3669 35.8204 29.3633 35.8196 29.3597 35.8188C29.2332 35.7926 29.1042 35.7578 28.9726 35.7128C28.6788 35.6131 28.3913 35.4399 28.1412 35.2122C27.8229 34.9222 27.5898 34.5551 27.4674 34.1502L27.2327 33.3738C27.1365 33.0561 26.865 32.8231 26.5364 32.7764L25.7334 32.6623C24.5885 32.4995 23.6196 31.6805 23.2649 30.5757L22.909 29.4669C22.7937 29.1078 22.4607 28.8748 22.0976 28.8748C22.0351 28.8748 21.9716 28.8817 21.9083 28.8961L20.7723 29.1541C20.5498 29.2047 20.3154 29.2259 20.0863 29.2184C19.3322 29.1933 18.6373 28.8684 18.1797 28.327L17.3417 27.3352C17.1937 27.16 16.9814 27.0519 16.7526 27.0351C16.5237 27.0187 16.2982 27.0945 16.1263 27.2462L15.1526 28.1055C14.6179 28.5775 13.8816 28.7925 13.1154 28.6852C12.3527 28.5798 11.6375 28.1365 11.293 27.5559L10.646 26.4646C10.4062 26.0601 9.88398 25.9263 9.47898 26.1654L8.38666 26.8106C8.29131 26.8669 8.15421 26.9204 7.98725 26.9673C7.89211 26.9931 7.81797 27.01 7.76682 27.0181C7.67126 27.0296 7.57128 27.0366 7.46254 27.039C7.43312 27.04 7.41328 27.0404 7.39336 27.0404C7.04098 27.0404 6.64284 26.9365 6.24058 26.7399C6.12183 26.6726 6.00612 26.6008 5.90213 26.5299L5.83601 26.4841C5.81998 26.4731 5.80362 26.4627 5.79687 26.4578C5.74836 26.417 5.69246 26.3679 5.64205 26.3215C5.52993 26.2173 5.45262 26.1402 5.39409 26.0743C5.3153 25.9749 5.24221 25.8737 5.17777 25.7748C5.15468 25.7393 5.1319 25.7036 5.11006 25.667C5.0896 25.6257 5.0702 25.5842 5.05142 25.5421C5.00945 25.4478 4.97337 25.3544 4.94384 25.2637C4.90693 25.1223 4.88816 24.9658 4.88964 24.8099L4.89965 23.7777C4.90366 23.3742 4.62417 23.0232 4.23013 22.9366L3.22176 22.7149C3.0875 22.6855 2.94953 22.6344 2.81158 22.5628C2.73512 22.5136 2.65771 22.4579 2.58082 22.3968C2.54158 22.3657 2.50256 22.3332 2.46386 22.2996C2.44983 22.2846 2.43317 22.2657 2.41587 22.2466L2.38749 22.2153C2.30903 22.1265 2.22665 22.0233 2.1484 21.9159C2.09482 21.8324 2.03197 21.7088 1.97438 21.5943C1.94621 21.5372 1.91584 21.4717 1.88947 21.4118C1.88314 21.3924 1.87513 21.3664 1.86669 21.3392L1.84929 21.2842C1.80605 21.1422 1.7685 20.9968 1.73718 20.8518C1.56885 19.7168 2.08839 18.9783 2.4241 18.7197L3.33281 18.0201C3.67907 17.7533 3.76776 17.268 3.53795 16.8963L2.93498 15.9208C2.84533 15.7758 2.77836 15.6359 2.74092 15.5157C2.6846 15.3052 2.65296 15.1128 2.64906 14.9628C2.6403 14.523 2.74841 14.0546 2.94722 13.6747C3.0124 13.5491 3.0721 13.4434 3.12926 13.3525C3.19961 13.2565 3.27386 13.1631 3.35486 13.0697L3.37869 13.0416C3.47677 12.9233 3.61494 12.8033 3.82113 12.6582L3.84581 12.6403C3.94337 12.569 4.0905 12.496 4.27812 12.4254C4.35523 12.3971 4.42357 12.3751 4.48158 12.3603C4.55846 12.3451 4.6343 12.334 4.70728 12.3272L5.9247 12.2149C6.38086 12.1728 6.72215 11.778 6.69779 11.3204L6.63271 10.0999C6.61711 9.80651 6.6883 9.47558 6.8387 9.14194C6.93667 8.94864 7.04183 8.77915 7.15141 8.63782C7.31647 8.44323 7.4656 8.29368 7.60703 8.18136C7.82535 8.01925 8.01034 7.90345 8.15062 7.83985C8.3604 7.74703 8.55097 7.68154 8.7174 7.64515C8.89522 7.61214 9.07029 7.59547 9.23094 7.59538L9.27999 7.59579C9.37278 7.59833 9.52722 7.61351 9.74439 7.67068L10.9325 7.9836C11.6203 8.68276 11.6174 9.81083 10.9226 10.5057C10.2622 11.1661 9.89847 12.044 9.89847 12.9779C9.89847 13.9119 10.2621 14.7899 10.9226 15.4502L11.0104 15.5381C11.6708 16.1985 12.5488 16.5622 13.4827 16.5622C14.4167 16.5622 15.2946 16.1986 15.955 15.5381C16.574 14.9191 17.5813 14.9191 18.2003 15.5381C18.8987 16.2364 18.8987 17.3727 18.2003 18.0711L17.673 18.5983C17.3401 18.9313 17.3402 19.4712 17.673 19.8042C17.8396 19.9707 18.0578 20.0538 18.2759 20.0538C18.494 20.0538 18.7124 19.9707 18.8789 19.8041L19.406 19.2768C20.7692 17.9137 20.7692 15.6956 19.406 14.3322C18.122 13.0483 16.0331 13.0483 14.749 14.3322C14.4107 14.6706 13.961 14.8569 13.4825 14.8569C13.0041 14.8569 12.5544 14.6706 12.216 14.3322L12.1281 14.2444C11.7898 13.9061 11.6035 13.4564 11.6035 12.9778C11.6035 12.4995 11.7899 12.0498 12.1281 11.7114C13.4805 10.3589 13.4905 8.16607 12.16 6.80024L12.3309 6.18705C12.4105 5.90144 12.5772 5.61235 12.8267 5.32748C12.9585 5.18932 13.1078 5.05959 13.2704 4.94157C13.4268 4.83621 13.6143 4.73665 13.8278 4.64553C14.1516 4.51675 14.4868 4.45135 14.8244 4.45135C15.2363 4.45135 15.6271 4.54828 15.9542 4.73159L17.0555 5.34836C17.4643 5.57755 17.9814 5.43348 18.2131 5.02626L18.8377 3.92929C19.189 3.31229 19.8515 2.86806 20.6102 2.74076C20.768 2.71418 20.9278 2.70079 21.0849 2.70079C21.6989 2.70079 22.2649 2.89907 22.6789 3.25892L23.3519 3.84407C23.3517 3.84966 23.351 3.85514 23.351 3.86063V6.50134C23.351 8.42921 24.9194 9.99776 26.8474 9.99776C27.835 9.99776 28.6385 10.8011 28.6385 11.7888V11.913C28.6385 12.9008 27.8348 13.7041 26.8474 13.7041C25.0316 13.7041 23.5544 15.1813 23.5544 16.9971C23.5544 18.9249 25.1229 20.4935 27.0508 20.4935H27.7965C28.2674 20.4935 28.6491 20.1117 28.6491 19.6408C28.6491 19.1699 28.2673 18.7882 27.7965 18.7882H27.0508C26.0631 18.7882 25.2598 17.9846 25.2598 16.9971C25.2598 16.1216 25.9719 15.4095 26.8475 15.4095C28.7753 15.4095 30.3439 13.8409 30.3439 11.913V11.7888C30.3439 9.86096 28.7753 8.29242 26.8475 8.29242C25.8597 8.29242 25.0564 7.48906 25.0564 6.50134V3.86105C25.0564 3.8369 25.0548 3.81316 25.0528 3.78954L25.6966 3.02521C25.7921 2.91172 25.9043 2.80774 26.0338 2.71334C26.1769 2.60777 26.3333 2.51453 26.4988 2.43606C26.861 2.28535 27.2156 2.20878 27.553 2.20878C27.5799 2.20878 27.6585 2.21047 27.6593 2.21047C27.6641 2.21057 27.6687 2.21057 27.6735 2.21057C28.033 2.21195 28.4074 2.30011 28.7867 2.47297C28.9499 2.55714 29.1018 2.65428 29.2417 2.76481C29.3688 2.86395 29.476 2.96974 29.5693 3.08849L30.3677 4.10267C30.509 4.28219 30.7163 4.39746 30.9433 4.42267C31.1701 4.44788 31.3978 4.38101 31.5752 4.23704L32.577 3.42314C33.108 2.99167 33.8863 2.81986 34.6646 2.97955C35.4185 3.13183 36.0639 3.5997 36.3912 4.23082L36.9738 5.35469C37.1899 5.77161 37.7022 5.9353 38.1202 5.72078L39.2466 5.1426C39.5441 4.98977 39.8964 4.90909 40.2657 4.90909C40.6463 4.90909 41.0231 4.99273 41.386 5.1581C42.0971 5.48168 42.6524 6.11132 42.8004 6.76238L42.9028 7.21295C42.3055 7.47714 41.7912 7.9123 41.4144 8.48458C40.8979 9.26911 40.7057 10.2063 40.8731 11.1232C40.9493 11.5404 40.8585 11.9623 40.6174 12.3112C40.3763 12.66 40.0136 12.8941 39.5964 12.9704C39.1258 13.0563 38.6497 12.9538 38.2563 12.6817C37.8627 12.4097 37.5986 12.0007 37.5126 11.5301L37.3787 10.7964C37.2941 10.3331 36.8499 10.0267 36.3867 10.1108C35.9236 10.1954 35.6165 10.6394 35.7011 11.1027L35.835 11.8364C36.0028 12.755 36.5182 13.5535 37.2865 14.0844C37.8775 14.493 38.5636 14.7057 39.267 14.7057C39.478 14.7057 39.6904 14.6866 39.9024 14.6477C40.7677 14.4897 41.5196 14.0043 42.0197 13.2807C42.5199 12.557 42.7083 11.6821 42.5504 10.8168C42.4633 10.3407 42.5684 9.83224 42.8384 9.42211C43.1085 9.0118 43.5097 8.73982 43.9681 8.65596C43.9797 8.65386 43.9908 8.65048 44.0022 8.64784C44.0317 8.64457 44.0614 8.63993 44.0912 8.6335L45.3209 8.36677C45.4022 8.34915 45.4873 8.33576 45.564 8.32764C45.5684 8.32733 45.6093 8.32363 45.6889 8.32363C45.7168 8.32363 45.7446 8.32405 45.7727 8.3249C45.9914 8.33492 46.1544 8.35622 46.271 8.39029C46.5078 8.45916 46.6857 8.52751 46.8296 8.60482C46.9871 8.69573 47.2099 8.83136 47.3744 8.98228C47.7068 9.28072 47.9602 9.63415 48.1077 10.0049C48.1917 10.2336 48.2351 10.3887 48.2493 10.5141C48.2723 10.7043 48.2749 10.8752 48.2569 11.0367L48.128 12.1986C48.0792 12.6392 48.376 13.0438 48.811 13.1294L49.9584 13.355C50.1132 13.3854 50.2758 13.4393 50.4492 13.5185C50.5556 13.566 50.6956 13.6608 50.9084 13.8303C50.9451 13.8593 50.9915 13.9051 51.0573 13.9786C51.146 14.0767 51.2278 14.176 51.3114 14.2881L51.3226 14.3025C51.3446 14.334 51.401 14.4357 51.4385 14.5036L51.4589 14.5403C51.5156 14.648 51.5776 14.7682 51.6084 14.8487C51.7796 15.3092 51.8411 15.7788 51.7809 16.1769C51.7632 16.2986 51.7415 16.41 51.7136 16.5197C51.7026 16.5592 51.6582 16.6662 51.6375 16.7158C51.5636 16.8816 51.5012 16.9932 51.4464 17.0568L50.6765 17.9538C50.3854 18.293 50.4056 18.7993 50.7227 19.1142L51.5618 19.9475C51.6164 20.0016 51.6704 20.0628 51.7217 20.1283C51.7464 20.1599 51.7707 20.1927 51.7944 20.2264L51.9098 20.3999C52.0128 20.5647 52.089 20.717 52.1411 20.8611C52.2792 21.2473 52.3239 21.6487 52.2743 22.0617Z" fill="#E4772F" stroke="white" stroke-width="0.5"/>
</g>
</g>
<defs>
<clipPath id="clip0_109_6490">
<rect width="54" height="54" fill="white"/>
</clipPath>
</defs>
</svg>
