<svg width="54" height="54" viewBox="0 0 54 54" fill="none" xmlns="http://www.w3.org/2000/svg">
<g id="Oftalmologiya" clip-path="url(#clip0_109_6562)">
<path id="Vector" d="M52.9411 26.4372C52.8226 26.3049 49.9879 23.1619 45.3782 19.9776C41.0999 17.0227 34.4389 13.5 26.9999 13.5C19.5611 13.5 12.9 17.0227 8.6217 19.9776C4.01177 23.1619 1.1773 26.3049 1.05886 26.4372C0.92034 26.5919 0.84375 26.7924 0.84375 27C0.84375 27.2076 0.92034 27.4081 1.05886 27.5628C1.1773 27.6951 4.01198 30.8381 8.6217 34.0224C12.9 36.9773 19.5611 40.5 26.9999 40.5C34.4389 40.5 41.0999 36.9773 45.3782 34.0224C49.9882 30.8381 52.8226 27.6951 52.9411 27.5628C53.0796 27.4081 53.1562 27.2076 53.1562 27C53.1562 26.7924 53.0796 26.5919 52.9411 26.4372ZM44.4191 32.6338C40.3385 35.4526 34.0041 38.8125 26.9999 38.8125C20.0103 38.8125 13.6881 35.4655 9.61533 32.6577C7.19039 30.9851 4.9259 29.0911 2.85098 27C4.9156 24.9185 7.1685 23.0326 9.58086 21.3664C13.6615 18.5474 19.9958 15.1875 26.9999 15.1875C33.9896 15.1875 40.3118 18.5345 44.3846 21.3423C46.8095 23.0149 49.074 24.9089 51.1489 27C49.0843 29.0816 46.8314 30.9676 44.4191 32.6338H44.4191Z" fill="#E4772F"/>
<path id="Vector_2" d="M27 16.0312C24.8306 16.0312 22.7099 16.6746 20.9061 17.8799C19.1023 19.085 17.6964 20.7982 16.8662 22.8024C16.036 24.8067 15.8188 27.0122 16.242 29.1399C16.6652 31.2676 17.7099 33.2221 19.2439 34.7561C20.7779 36.2901 22.7324 37.3348 24.8601 37.758C26.9879 38.1812 29.1933 37.964 31.1976 37.1338C33.2018 36.3036 34.915 34.8977 36.1202 33.0939C37.3254 31.2901 37.9688 29.1695 37.9688 27C37.9654 24.0919 36.8087 21.3039 34.7524 19.2476C32.6961 17.1913 29.9081 16.0346 27 16.0312ZM27 36.2812C25.1644 36.2812 23.3699 35.7369 21.8436 34.7171C20.3173 33.6973 19.1277 32.2477 18.4253 30.5518C17.7228 28.8559 17.5389 26.9897 17.8971 25.1893C18.2552 23.3889 19.1391 21.7352 20.4372 20.4372C21.7352 19.1391 23.3889 18.2552 25.1893 17.8971C26.9897 17.5389 28.8559 17.7228 30.5518 18.4253C32.2477 19.1277 33.6973 20.3173 34.7171 21.8436C35.7369 23.3699 36.2813 25.1644 36.2813 27C36.2785 29.4607 35.2997 31.8198 33.5597 33.5597C31.8198 35.2997 29.4607 36.2785 27 36.2812Z" fill="#E4772F"/>
<path id="Vector_3" d="M29.5313 25.3125C28.6969 25.3125 27.8812 25.5599 27.1875 26.0235C26.4937 26.4871 25.9529 27.1459 25.6336 27.9168C25.3143 28.6877 25.2308 29.5359 25.3936 30.3543C25.5563 31.1727 25.9582 31.9244 26.5481 32.5144C27.1382 33.1043 27.8898 33.5062 28.7082 33.6689C29.5266 33.8317 30.3748 33.7482 31.1457 33.4289C31.9166 33.1096 32.5754 32.5688 33.039 31.875C33.5026 31.1813 33.75 30.3656 33.75 29.5312C33.7487 28.4127 33.3039 27.3405 32.513 26.5496C31.722 25.7586 30.6498 25.3138 29.5313 25.3125ZM29.5313 32.0625C29.0306 32.0625 28.5413 31.9141 28.125 31.6359C27.7087 31.3578 27.3843 30.9624 27.1927 30.4999C27.0011 30.0374 26.951 29.5285 27.0486 29.0374C27.1463 28.5464 27.3874 28.0954 27.7414 27.7414C28.0954 27.3874 28.5464 27.1463 29.0374 27.0486C29.5285 26.951 30.0374 27.0011 30.4999 27.1927C30.9624 27.3843 31.3578 27.7088 31.6359 28.125C31.914 28.5413 32.0625 29.0306 32.0625 29.5312C32.0617 30.2024 31.7948 30.8457 31.3203 31.3203C30.8457 31.7948 30.2024 32.0617 29.5313 32.0625Z" fill="#E4772F"/>
<path id="Vector_4" d="M22.7813 21.0938C22.2806 21.0938 21.7913 21.2422 21.375 21.5204C20.9587 21.7985 20.6343 22.1938 20.4427 22.6563C20.2511 23.1188 20.201 23.6278 20.2986 24.1188C20.3964 24.6099 20.6374 25.0609 20.9914 25.4148C21.3454 25.7689 21.7964 26.0099 22.2874 26.1076C22.7785 26.2053 23.2874 26.1552 23.7499 25.9636C24.2125 25.772 24.6078 25.4476 24.8859 25.0313C25.1641 24.615 25.3125 24.1257 25.3125 23.625C25.3118 22.9539 25.0449 22.3105 24.5703 21.836C24.0957 21.3614 23.4524 21.0945 22.7813 21.0938ZM22.7813 24.4688C22.6144 24.4688 22.4512 24.4192 22.3126 24.3265C22.1738 24.2338 22.0656 24.1021 22.0018 23.9479C21.9379 23.7938 21.9211 23.6241 21.9537 23.4604C21.9863 23.2967 22.0667 23.1464 22.1847 23.0284C22.3027 22.9104 22.453 22.83 22.6167 22.7974C22.7804 22.7649 22.95 22.7816 23.1042 22.8455C23.2584 22.9093 23.3901 23.0175 23.4828 23.1563C23.5755 23.295 23.625 23.4581 23.625 23.625C23.6248 23.8487 23.5358 24.0631 23.3776 24.2213C23.2194 24.3796 23.005 24.4685 22.7813 24.4688Z" fill="#E4772F"/>
<path id="Vector_5" d="M27 10.9688C27.2237 10.9688 27.4384 10.8798 27.5966 10.7216C27.7548 10.5634 27.8438 10.3487 27.8438 10.125V1.6875C27.8438 1.46372 27.7548 1.24911 27.5966 1.09088C27.4384 0.932643 27.2237 0.84375 27 0.84375C26.7763 0.84375 26.5616 0.932643 26.4034 1.09088C26.2452 1.24911 26.1562 1.46372 26.1562 1.6875V10.125C26.1562 10.3487 26.2452 10.5634 26.4034 10.7216C26.5616 10.8798 26.7763 10.9688 27 10.9688Z" fill="#E4772F"/>
<path id="Vector_6" d="M27 43.0312C26.7763 43.0312 26.5616 43.1202 26.4034 43.2784C26.2452 43.4366 26.1562 43.6513 26.1562 43.875V48.9375C26.1562 49.1612 26.2452 49.3759 26.4034 49.5341C26.5616 49.6923 26.7763 49.7812 27 49.7812C27.2237 49.7812 27.4384 49.6923 27.5966 49.5341C27.7548 49.3759 27.8438 49.1612 27.8438 48.9375V43.875C27.8438 43.6513 27.7548 43.4366 27.5966 43.2784C27.4384 43.1202 27.2237 43.0312 27 43.0312Z" fill="#E4772F"/>
<path id="Vector_7" d="M12.8883 14.083C13.0465 14.2413 13.2612 14.3301 13.4849 14.3302C13.7087 14.3302 13.9234 14.2413 14.0816 14.0831C14.2398 13.9249 14.3287 13.7102 14.3287 13.4864C14.3288 13.2627 14.2399 13.048 14.0817 12.8898L8.1153 6.92359C7.95648 6.76829 7.74281 6.68187 7.52067 6.68312C7.29853 6.68436 7.08585 6.77315 6.92878 6.93023C6.77169 7.08731 6.6829 7.3 6.68165 7.52213C6.68041 7.74427 6.76682 7.95793 6.92213 8.11676L12.8883 14.083Z" fill="#E4772F"/>
<path id="Vector_8" d="M41.1105 39.9176C41.0321 39.8393 40.9391 39.7771 40.8367 39.7347C40.7344 39.6923 40.6246 39.6704 40.5138 39.6704C40.403 39.6704 40.2933 39.6923 40.1908 39.7347C40.0885 39.7771 39.9955 39.8392 39.9172 39.9176C39.8388 39.9959 39.7766 40.0889 39.7342 40.1913C39.6918 40.2937 39.6699 40.4034 39.6699 40.5143C39.6699 40.625 39.6918 40.7348 39.7342 40.8371C39.7766 40.9395 39.8387 41.0326 39.9171 41.1109L45.8834 47.0771C45.9616 47.1562 46.0547 47.2191 46.1572 47.2621C46.2598 47.3051 46.3699 47.3275 46.4811 47.3278C46.5924 47.3282 46.7025 47.3066 46.8054 47.2641C46.9082 47.2217 47.0016 47.1594 47.0803 47.0807C47.1589 47.0021 47.2213 46.9087 47.2637 46.8058C47.3062 46.703 47.3278 46.5928 47.3275 46.4815C47.3271 46.3703 47.3048 46.2602 47.2618 46.1577C47.2188 46.0551 47.1559 45.962 47.0767 45.8838L41.1105 39.9176Z" fill="#E4772F"/>
<path id="Vector_9" d="M40.5138 14.3302C40.6246 14.3304 40.7344 14.3086 40.8368 14.2662C40.9392 14.2237 41.0321 14.1615 41.1104 14.083L47.0767 8.11681C47.1558 8.03862 47.2187 7.94557 47.2618 7.843C47.3048 7.74043 47.3271 7.63036 47.3275 7.51913C47.3277 7.40789 47.3061 7.29769 47.2637 7.19486C47.2213 7.09203 47.159 6.9986 47.0803 6.91995C47.0017 6.8413 46.9082 6.77897 46.8054 6.73658C46.7025 6.69417 46.5923 6.67251 46.4811 6.67286C46.3699 6.6732 46.2598 6.69553 46.1572 6.73856C46.0547 6.78161 45.9616 6.8445 45.8834 6.92364L39.917 12.8898C39.7991 13.0078 39.7187 13.1582 39.6861 13.3218C39.6536 13.4855 39.6703 13.6552 39.7342 13.8093C39.7981 13.9635 39.9062 14.0954 40.045 14.1881C40.1838 14.2808 40.3469 14.3302 40.5138 14.3302Z" fill="#E4772F"/>
<path id="Vector_10" d="M12.89 39.9176L6.92376 45.8838C6.84398 45.9619 6.78045 46.055 6.73689 46.1577C6.69332 46.2605 6.67056 46.3708 6.66993 46.4824C6.66931 46.594 6.69083 46.7046 6.73325 46.8079C6.77567 46.9111 6.83814 47.0049 6.91705 47.0837C6.99596 47.1626 7.08974 47.2251 7.19296 47.2676C7.29619 47.31 7.4068 47.3315 7.51839 47.3309C7.62999 47.3302 7.74035 47.3075 7.84309 47.2639C7.94583 47.2203 8.03891 47.1568 8.11693 47.0771L14.0833 41.1109C14.2416 40.9526 14.3304 40.738 14.3304 40.5143C14.3304 40.2904 14.2415 40.0758 14.0833 39.9176C13.925 39.7593 13.7104 39.6704 13.4866 39.6704C13.2628 39.6704 13.0482 39.7593 12.89 39.9176Z" fill="#E4772F"/>
<path id="Vector_11" d="M27 50.625C26.7763 50.625 26.5616 50.7139 26.4034 50.8721C26.2452 51.0304 26.1562 51.245 26.1562 51.4688V52.3125C26.1562 52.5362 26.2452 52.7509 26.4034 52.9091C26.5616 53.0673 26.7763 53.1562 27 53.1562C27.2237 53.1562 27.4384 53.0673 27.5966 52.9091C27.7548 52.7509 27.8438 52.5362 27.8438 52.3125V51.4688C27.8438 51.245 27.7548 51.0304 27.5966 50.8721C27.4384 50.7139 27.2237 50.625 27 50.625Z" fill="#E4772F"/>
</g>
<defs>
<clipPath id="clip0_109_6562">
<rect width="54" height="54" fill="white"/>
</clipPath>
</defs>
</svg>
