<svg width="54" height="54" viewBox="0 0 54 54" fill="none" xmlns="http://www.w3.org/2000/svg">
<g id="Onkologiya" clip-path="url(#clip0_109_6505)">
<g id="Group">
<path id="Vector" d="M53.525 22.9163C51.8503 20.0164 47.3847 20.8807 46.9744 24.261L43.6773 24.6146C42.8343 19.2394 39.4338 14.6107 34.5542 12.1919L35.9777 8.97595C38.1706 9.43569 40.2244 7.75359 40.2244 5.52763C40.2244 3.5847 38.644 2.00391 36.7011 2.00391C34.7582 2.00391 33.1774 3.5847 33.1774 5.52763C33.1774 6.65771 33.713 7.66419 34.5427 8.30936L33.1053 11.5566C31.9196 11.1027 30.6791 10.7821 29.4056 10.6079C28.9739 10.5476 28.5743 10.8518 28.515 11.2847C28.456 11.7173 28.7589 12.1161 29.1914 12.175C36.6636 13.1963 42.2984 19.6625 42.2984 27.2158C42.2984 37.9592 31.3564 45.3589 21.3793 41.2716L21.8473 40.2144C22.0241 39.8152 21.8436 39.348 21.444 39.1709C21.0452 38.9945 20.5776 39.1746 20.4008 39.5742L19.9485 40.5963C15.7694 38.3486 12.7589 34.2011 12.0795 29.317L13.1721 29.1995C13.6064 29.153 13.9207 28.7633 13.8741 28.329C13.8276 27.8948 13.4374 27.5801 13.0032 27.627L11.9436 27.7407C11.7739 22.7676 13.9735 18.244 17.622 15.3346L18.2177 16.1507C18.4748 16.5029 18.9692 16.5812 19.3227 16.3233C19.6758 16.0658 19.7528 15.571 19.4953 15.2179L18.9094 14.4154C20.8858 13.1543 23.1854 12.3353 25.6813 12.1013C26.1159 12.0605 26.4356 11.6749 26.3953 11.2402C26.3541 10.8051 25.9676 10.4846 25.5338 10.5262C22.8196 10.7805 20.2381 11.6888 17.9874 13.1522L15.8546 10.23C17.3443 8.56562 16.9266 5.94456 14.9915 4.82767C13.3089 3.85579 11.1497 4.43463 10.1783 6.11718C8.50064 9.02376 11.4669 12.398 14.5606 11.1397L16.7037 14.0764C12.5294 17.39 10.1449 22.4817 10.3669 27.9096L6.87946 28.2837C5.79018 24.982 1.03503 25.0826 0.127423 28.4695C-0.693666 31.5338 2.61994 33.9761 5.29249 32.4329C6.21699 31.8993 6.86587 30.9765 7.02119 29.8596L10.5058 29.4854C11.2478 34.941 14.6236 39.57 19.3062 42.0457L17.9669 45.0722C17.7518 45.031 17.5301 45.0087 17.3036 45.0087C15.3607 45.0087 13.7798 46.589 13.7798 48.532C13.7798 50.475 15.3607 52.0557 17.3036 52.0557C19.2465 52.0557 20.8268 50.475 20.8268 48.532C20.8268 47.3801 20.2711 46.3555 19.4137 45.7124L20.7387 42.7185C22.7055 43.5305 24.8594 43.9796 27.1158 43.9796C30.4698 43.9796 33.5964 42.9891 36.2195 41.286L38.1092 43.8749C37.3623 44.7422 37.0591 45.9286 37.371 47.0921C38.1765 50.098 42.2506 50.671 43.826 47.942C45.516 45.0145 42.4903 41.6189 39.3864 42.9413L37.5044 40.3631C41.701 37.0405 44.1935 31.8317 43.8478 26.1871L47.1442 25.8332C47.6435 27.2632 48.9808 28.2005 50.4792 28.2005C53.186 28.2009 54.8759 25.2568 53.525 22.9163ZM36.7011 3.58594C37.7718 3.58594 38.6428 4.45687 38.6428 5.52763C38.6428 6.59797 37.7718 7.46932 36.7011 7.46932C35.6304 7.46932 34.7594 6.59797 34.7594 5.52763C34.7594 4.45687 35.6304 3.58594 36.7011 3.58594ZM12.2592 9.56097C11.3318 9.02583 11.0129 7.83599 11.5485 6.90861C12.0841 5.98082 13.2743 5.66276 14.2009 6.19793C15.1278 6.7331 15.4467 7.92292 14.9116 8.8503C14.376 9.77724 13.1862 10.0961 12.2592 9.56097ZM4.50189 31.0634C3.5741 31.5989 2.38469 31.2797 1.84953 30.3527C1.10465 29.0628 2.03863 27.4407 3.52755 27.4407C5.50838 27.4407 6.21576 30.0738 4.50189 31.0634ZM17.3036 50.4745C16.2328 50.4745 15.3618 49.6031 15.3618 48.5329C15.3618 47.462 16.2328 46.5911 17.3036 46.5911C18.3739 46.5911 19.2452 47.462 19.2452 48.5329C19.2452 49.6031 18.3739 50.4745 17.3036 50.4745ZM40.7777 44.2395C42.2674 44.2395 43.2006 45.8619 42.4562 47.1515C41.921 48.0788 40.7311 48.3977 39.8038 47.8621C38.0932 46.8746 38.7949 44.2395 40.7777 44.2395ZM51.444 26.3597C50.5171 26.8953 49.3273 26.5765 48.7917 25.649C48.0468 24.3591 48.9811 22.7372 50.4701 22.7372C52.4506 22.7372 53.1583 25.3701 51.444 26.3597Z" fill="#E4772F" stroke="white" stroke-width="0.4"/>
<path id="Vector_2" d="M25.2284 31.3242C23.3188 31.3242 21.7656 32.8774 21.7656 34.787C21.7656 36.6965 23.3188 38.2497 25.2284 38.2497C27.1375 38.2497 28.6912 36.6965 28.6912 34.787C28.6912 32.8774 27.1375 31.3242 25.2284 31.3242ZM25.2284 36.6677C24.191 36.6677 23.3473 35.8239 23.3473 34.787C23.3473 33.75 24.191 32.9062 25.2284 32.9062C26.2654 32.9062 27.1091 33.75 27.1091 34.787C27.1091 35.8239 26.2654 36.6677 25.2284 36.6677Z" fill="#E4772F" stroke="white" stroke-width="0.4"/>
<path id="Vector_3" d="M32.6819 26.6836C31.4122 26.6836 30.3789 27.7169 30.3789 28.9866C30.3789 30.2568 31.4122 31.2901 32.6819 31.2901C33.9521 31.2901 34.9854 30.2568 34.9854 28.9866C34.9854 27.7169 33.9521 26.6836 32.6819 26.6836ZM32.6819 29.7084C32.2844 29.7084 31.9606 29.3846 31.9606 28.9866C31.9606 28.5891 32.2844 28.2653 32.6819 28.2653C33.0799 28.2653 33.4037 28.5891 33.4037 28.9866C33.4037 29.3846 33.0799 29.7084 32.6819 29.7084Z" fill="#E4772F" stroke="white" stroke-width="0.4"/>
<path id="Vector_4" d="M16.5137 28.0286C16.5137 29.1731 17.4452 30.1046 18.5901 30.1046C19.735 30.1046 20.6665 29.1731 20.6665 28.0286C20.6665 26.8836 19.735 25.9521 18.5901 25.9521C17.4452 25.9518 16.5137 26.8833 16.5137 28.0286ZM19.0849 28.0286C19.0849 28.3013 18.8628 28.523 18.5901 28.523C18.3173 28.523 18.0957 28.3009 18.0957 28.0286C18.0957 27.7558 18.3173 27.5338 18.5901 27.5338C18.8628 27.5338 19.0849 27.7558 19.0849 28.0286Z" fill="#E4772F" stroke="white" stroke-width="0.4"/>
<path id="Vector_5" d="M32.905 18.3408C31.51 18.3408 30.375 19.4758 30.375 20.8708C30.375 22.2658 31.51 23.4009 32.905 23.4009C34.3 23.4009 35.4351 22.2658 35.4351 20.8708C35.4351 19.4758 34.3 18.3408 32.905 18.3408ZM32.905 21.8192C32.3822 21.8192 31.9567 21.3936 31.9567 20.8708C31.9567 20.348 32.3822 19.9225 32.905 19.9225C33.4278 19.9225 33.8534 20.348 33.8534 20.8708C33.8534 21.3936 33.4278 21.8192 32.905 21.8192Z" fill="#E4772F" stroke="white" stroke-width="0.4"/>
<path id="Vector_6" d="M32.9983 33.2612L32.4817 33.7779C32.1728 34.0869 32.1728 34.5874 32.4817 34.8964C32.7907 35.205 33.2913 35.2054 33.6002 34.8964L34.1168 34.3794C34.4259 34.0708 34.4259 33.5698 34.1168 33.2608C33.8079 32.9519 33.3073 32.9522 32.9983 33.2612Z" fill="#E4772F" stroke="white" stroke-width="0.4"/>
<path id="Vector_7" d="M26.9211 27.8135L27.4615 28.3055C27.785 28.5996 28.2855 28.5753 28.5789 28.2523C28.873 27.9293 28.8491 27.4287 28.5258 27.135L27.9852 26.6434C27.6618 26.3493 27.1616 26.3732 26.8679 26.6962C26.5741 27.0196 26.5976 27.5198 26.9211 27.8135Z" fill="#E4772F" stroke="white" stroke-width="0.4"/>
<path id="Vector_8" d="M20.0488 22.1805C20.0488 25.7511 24.5164 27.3718 26.8157 24.6635C27.0983 24.3306 27.0576 23.8312 26.7247 23.5486C26.3914 23.266 25.8925 23.3068 25.6098 23.6401C24.2532 25.2382 21.6305 24.2738 21.6305 22.1805C21.6305 19.9643 24.5049 19.0847 25.7524 20.9074C25.9992 21.2679 26.4915 21.3602 26.852 21.1134C27.2125 20.8665 27.3048 20.3747 27.058 20.0142C24.9392 16.9181 20.0488 18.4099 20.0488 22.1805Z" fill="#E4772F" stroke="white" stroke-width="0.4"/>
</g>
</g>
<defs>
<clipPath id="clip0_109_6505">
<rect width="54" height="54" fill="white"/>
</clipPath>
</defs>
</svg>
