<svg width="54" height="54" viewBox="0 0 54 54" fill="none" xmlns="http://www.w3.org/2000/svg">
<g id="Ortopediya" clip-path="url(#clip0_109_6518)">
<g id="Group">
<path id="Vector" d="M39.0374 30.376C38.1262 30.376 37.3162 30.691 36.4724 31.0172C36.0674 31.1747 35.6399 31.3434 35.1674 31.4784C34.1437 31.7709 30.6674 32.2322 28.6987 32.4797V4.53475C28.6987 3.97229 28.2937 3.46604 27.7424 3.38725C27.0337 3.286 26.4375 3.826 26.4375 4.501V32.4685C24.4575 32.2209 20.9924 31.7597 19.9688 31.4672C19.5075 31.3322 19.08 31.1635 18.6637 31.0172C17.8087 30.691 16.9987 30.376 16.0875 30.376C12.9037 30.376 10.6875 33.0085 10.6875 36.7772C10.6875 40.8947 13.905 42.0535 17.3812 42.7059C19.0912 43.0322 19.9125 43.7522 20.6326 45.5859C21.5888 48.0272 25.9088 49.5009 27.5513 49.5009C29.1938 49.5009 33.5251 48.0272 34.4701 45.5859C35.1901 43.7522 36.0113 43.0209 37.7213 42.7059C41.1976 42.0534 44.4152 40.8834 44.4152 36.7772C44.4374 33.0085 42.2099 30.376 39.0374 30.376ZM37.3274 40.5122C34.8299 40.9847 33.39 42.2222 32.3887 44.7872C31.9499 45.901 28.8336 47.2734 27.5624 47.2734C26.2912 47.2734 23.1749 45.901 22.7362 44.7759C21.7237 42.2109 20.2948 40.9735 17.7973 40.501C13.6912 39.736 12.9373 38.6447 12.9373 36.7772C12.9373 34.8647 13.7587 32.6259 16.0874 32.6259C16.5823 32.6259 17.1674 32.8509 17.8537 33.1097C18.3149 33.2897 18.81 33.4697 19.3387 33.6272C20.4862 33.9647 23.5799 34.3811 26.7524 34.7747L27.4161 34.8647C27.4498 34.8647 27.4836 34.8647 27.5173 34.8647C27.5511 34.8647 27.5511 34.876 27.5624 34.876C27.5737 34.876 27.5962 34.8647 27.6074 34.8647C27.6187 34.8647 27.6749 34.8647 27.7087 34.8647L28.3837 34.7747C31.5449 34.3811 34.6388 33.9535 35.7749 33.6272C36.3149 33.4698 36.7987 33.2897 37.2712 33.1097C37.9687 32.851 38.5538 32.6259 39.0487 32.6259C41.3774 32.6259 42.1987 34.8647 42.1987 36.7772C42.1874 38.656 41.4337 39.736 37.3274 40.5122Z" fill="#E4772F" stroke="white" stroke-width="0.7"/>
<path id="Vector_2" d="M35.5617 11.2499C36.8892 11.2499 38.5092 10.9349 40.4217 10.0125C40.9954 9.77626 41.2654 9.11251 41.0178 8.53876C40.7816 7.96501 40.1179 7.69501 39.5442 7.94255C39.5104 7.95382 39.4767 7.9763 39.4429 7.98758C35.0554 10.1025 32.9404 8.28005 32.8279 8.1788C32.3778 7.75133 31.6691 7.76251 31.2303 8.21255C30.8029 8.66257 30.8141 9.37135 31.2641 9.8101C31.3654 9.88867 32.8168 11.2499 35.5617 11.2499Z" fill="#E4772F" stroke="white" stroke-width="0.7"/>
<path id="Vector_3" d="M32.5796 12.4966C32.0171 12.2266 31.3532 12.4516 31.0721 13.0142C30.8021 13.5542 31.0158 14.2179 31.5446 14.4992C31.6908 14.5779 34.0308 15.7479 37.2371 15.7479C39.1271 15.7592 40.9833 15.3316 42.6821 14.5104C43.2446 14.2404 43.4696 13.5654 43.1996 13.0029C42.9296 12.4405 42.2546 12.2154 41.6922 12.4854C37.0683 14.7241 32.6245 12.5191 32.5796 12.4966Z" fill="#E4772F" stroke="white" stroke-width="0.7"/>
<path id="Vector_4" d="M41.4796 25.797C42.0533 25.5607 42.3345 24.9081 42.0983 24.3344C41.8621 23.7606 41.2095 23.4794 40.6358 23.7156C35.2695 25.8981 32.9295 24.0194 32.8058 23.9181C32.3333 23.5131 31.6245 23.5694 31.2195 24.0306C30.8258 24.4807 30.8596 25.1669 31.2983 25.5831C31.3883 25.662 32.8959 27.0006 35.9671 27.0006C37.4408 27.0006 39.2746 26.6969 41.4796 25.797Z" fill="#E4772F" stroke="white" stroke-width="0.7"/>
<path id="Vector_5" d="M45.2481 16.8767C37.103 19.2167 32.6594 17.0004 32.5919 16.9666C32.0405 16.6742 31.3655 16.8767 31.0731 17.4279C30.7806 17.9791 30.9831 18.6541 31.5343 18.9466C31.6693 19.0254 33.953 20.2066 38.1606 20.2066C40.2644 20.2066 42.8405 19.9142 45.878 19.0367C46.4743 18.868 46.823 18.2491 46.6543 17.653C46.4856 17.0567 45.8556 16.708 45.2481 16.8767Z" fill="#E4772F" stroke="white" stroke-width="0.7"/>
<path id="Vector_6" d="M14.5919 9.96805C14.6256 9.9793 14.6594 10.0018 14.7044 10.013C16.6281 10.9356 18.2481 11.2505 19.5644 11.2505C22.3094 11.2505 23.7606 9.88921 23.8506 9.81055C24.3006 9.3718 24.3006 8.66306 23.8731 8.21302C23.4344 7.76299 22.7256 7.76299 22.2755 8.19056C22.2531 8.21303 20.1043 10.1143 15.6719 7.98806C15.1205 7.69549 14.4455 7.89799 14.1418 8.43799C13.8494 8.98928 14.0519 9.6643 14.5919 9.96805Z" fill="#E4772F" stroke="white" stroke-width="0.7"/>
<path id="Vector_7" d="M12.4418 14.5126C14.1406 15.3339 15.9968 15.7614 17.8868 15.7501C21.0931 15.7501 23.4332 14.5689 23.5793 14.49C24.1193 14.1863 24.3218 13.5 24.0181 12.96C23.7256 12.4424 23.0843 12.2288 22.5443 12.4875C22.4993 12.5099 18.0893 14.7374 13.4318 12.4762C12.8694 12.2062 12.1944 12.4424 11.9244 12.9938C11.6544 13.545 11.8907 14.2426 12.4418 14.5126Z" fill="#E4772F" stroke="white" stroke-width="0.7"/>
<path id="Vector_8" d="M22.2986 23.9191C22.2762 23.9416 19.9137 25.9104 14.48 23.7054C13.9062 23.4691 13.2425 23.7504 13.0174 24.3241C12.7811 24.8979 13.0625 25.5616 13.6362 25.7867C15.8412 26.6866 17.6749 26.9904 19.1487 26.9904C22.22 26.9904 23.7275 25.6517 23.8175 25.5729C24.2787 25.1566 24.3013 24.4367 23.885 23.9866C23.4687 23.5366 22.76 23.503 22.2986 23.9191Z" fill="#E4772F" stroke="white" stroke-width="0.7"/>
<path id="Vector_9" d="M22.3415 19.0473C22.9265 18.8223 23.2077 18.1698 22.9827 17.596C22.7577 17.011 22.1052 16.7298 21.5315 16.9548C21.4752 16.9773 15.2764 19.2948 8.81899 16.9435C8.23396 16.7297 7.59271 17.0334 7.37903 17.6185C7.16524 18.2035 7.46899 18.8448 8.05403 19.0584C10.2927 19.8573 12.6665 20.2623 15.0515 20.251C19.1577 20.251 22.1502 19.126 22.3415 19.0473Z" fill="#E4772F" stroke="white" stroke-width="0.7"/>
<path id="Vector_10" d="M47.0024 0H7.00868C4.53375 0 2.8125 1.91246 2.8125 4.64621V49.3425C2.8125 52.0425 4.57879 54 7.00879 54H47.0025C49.4662 54 51.1875 52.0875 51.1875 49.3425V4.64621C51.1874 1.91246 49.4662 0 47.0024 0ZM48.9375 49.3425C48.9375 50.5125 48.4312 51.75 47.0024 51.75H7.00868C5.56871 51.75 5.06246 50.4562 5.06246 49.3425V4.64621C5.06246 3.54375 5.56871 2.24996 7.00868 2.24996H47.0024C48.4312 2.24996 48.9375 3.48754 48.9375 4.64621V49.3425Z" fill="#E4772F" stroke="white" stroke-width="0.7"/>
<path id="Vector_11" d="M16.875 38.25C17.807 38.25 18.5625 37.4945 18.5625 36.5625C18.5625 35.6305 17.807 34.875 16.875 34.875C15.943 34.875 15.1875 35.6305 15.1875 36.5625C15.1875 37.4945 15.943 38.25 16.875 38.25Z" fill="#E4772F" stroke="white" stroke-width="0.7"/>
<path id="Vector_12" d="M38.25 38.25C39.182 38.25 39.9375 37.4945 39.9375 36.5625C39.9375 35.6305 39.182 34.875 38.25 34.875C37.318 34.875 36.5625 35.6305 36.5625 36.5625C36.5625 37.4945 37.318 38.25 38.25 38.25Z" fill="#E4772F" stroke="white" stroke-width="0.7"/>
</g>
</g>
<defs>
<clipPath id="clip0_109_6518">
<rect width="54" height="54" fill="white"/>
</clipPath>
</defs>
</svg>
