<svg width="54" height="54" viewBox="0 0 54 54" fill="none" xmlns="http://www.w3.org/2000/svg">
<g id="Otorinolaringologiya" clip-path="url(#clip0_109_6535)">
<g id="Group">
<path id="Vector" d="M30.1011 21.5391C30.2416 21.9524 30.6902 22.1739 31.1047 22.0335C31.5183 21.8926 31.7396 21.4435 31.5991 21.0295C31.5434 20.8659 31.4878 20.7007 31.4322 20.5342C31.2942 20.1198 30.8464 19.8957 30.4319 20.0341C30.0175 20.1722 29.7933 20.62 29.9314 21.0344C29.9878 21.2042 30.0442 21.3722 30.1011 21.5391Z" fill="#E4772F" stroke="white" stroke-width="0.2"/>
<path id="Vector_2" d="M33.046 24.9464C32.9818 24.7861 32.9179 24.6242 32.8536 24.461C32.6938 24.0544 32.2348 23.8542 31.8282 24.014C31.4216 24.1739 31.2214 24.6329 31.3812 25.0395C31.4463 25.2063 31.5118 25.3716 31.5773 25.5351C31.74 25.9406 32.2002 26.1375 32.606 25.9747C33.0118 25.8124 33.2087 25.3518 33.046 24.9464Z" fill="#E4772F" stroke="white" stroke-width="0.2"/>
<path id="Vector_3" d="M31.4745 44.3469C31.6451 44.2615 31.8149 44.1696 31.9792 44.0749C32.3574 43.8562 32.4868 43.3724 32.268 42.9939C32.0497 42.6156 31.5656 42.4863 31.1874 42.7051C31.0498 42.7845 30.9077 42.8612 30.7643 42.9333C30.3742 43.1294 30.2163 43.6048 30.4124 43.9949C30.609 44.3855 31.0843 44.543 31.4745 44.3469Z" fill="#E4772F" stroke="white" stroke-width="0.2"/>
<path id="Vector_4" d="M28.8296 17.4768C28.949 17.8966 29.3866 18.1405 29.8068 18.0206C30.227 17.9012 30.4709 17.4636 30.351 17.0434C30.3037 16.8765 30.2567 16.7089 30.2093 16.5399C30.0923 16.1193 29.6564 15.8725 29.2354 15.9904C28.8143 16.1074 28.5684 16.5436 28.6854 16.9643C28.7332 17.1361 28.7813 17.3071 28.8296 17.4768Z" fill="#E4772F" stroke="white" stroke-width="0.2"/>
<path id="Vector_5" d="M35.9853 37.9106C36.3614 37.9106 36.6952 37.6411 36.7636 37.258C36.7965 37.0709 36.8249 36.8802 36.8475 36.6906C36.8986 36.2568 36.5889 35.8638 36.155 35.8123C35.7216 35.7604 35.3278 36.0706 35.2762 36.5044C35.2573 36.6634 35.2338 36.8237 35.2058 36.9807C35.1197 37.4639 35.4905 37.9106 35.9853 37.9106Z" fill="#E4772F" stroke="white" stroke-width="0.2"/>
<path id="Vector_6" d="M28.7149 13.9437C29.1405 13.8444 29.4046 13.4188 29.3053 12.9932C29.2657 12.8243 29.2266 12.6542 29.1875 12.4836C29.0899 12.0575 28.6659 11.7914 28.2399 11.8887C27.8143 11.9859 27.5478 12.4103 27.645 12.8359C27.6845 13.0093 27.7245 13.1819 27.7649 13.3537C27.8642 13.7789 28.2898 14.0434 28.7149 13.9437Z" fill="#E4772F" stroke="white" stroke-width="0.2"/>
<path id="Vector_7" d="M33.8494 41.5868C34.1999 41.8485 34.6955 41.7759 34.9567 41.4257C35.0697 41.2742 35.1805 41.1164 35.2855 40.9569C35.5261 40.5923 35.4256 40.1016 35.0609 39.861C34.6963 39.6201 34.2057 39.7209 33.9651 40.0855C33.8765 40.2195 33.7834 40.3521 33.6883 40.4798C33.4271 40.83 33.4992 41.3261 33.8494 41.5868Z" fill="#E4772F" stroke="white" stroke-width="0.2"/>
<path id="Vector_8" d="M33.2759 29.4496C33.4617 29.8447 33.933 30.0148 34.3285 29.8291C34.724 29.6432 34.8937 29.1723 34.708 28.7769C34.6351 28.6211 34.5617 28.4638 34.4879 28.3038C34.305 27.9071 33.8353 27.7337 33.4386 27.9166C33.0419 28.0995 32.8685 28.5692 33.0513 28.966C33.1263 29.1295 33.2013 29.2906 33.2759 29.4496Z" fill="#E4772F" stroke="white" stroke-width="0.2"/>
<path id="Vector_9" d="M35.9725 33.7006C36.3911 33.575 36.6283 33.1341 36.5023 32.7156C36.4475 32.5334 36.3869 32.3505 36.3219 32.1717C36.1718 31.7614 35.7179 31.5496 35.3075 31.6995C34.8968 31.8491 34.6854 32.3035 34.8353 32.7138C34.8901 32.8639 34.9413 33.0175 34.987 33.1708C35.1131 33.5889 35.5539 33.8262 35.9725 33.7006Z" fill="#E4772F" stroke="white" stroke-width="0.2"/>
<path id="Vector_10" d="M18.2471 34.142C18.6014 34.142 18.924 33.9017 19.0138 33.5421C19.0525 33.3876 19.0961 33.2319 19.1439 33.0794C19.2746 32.6624 19.0426 32.2187 18.6257 32.0882C18.2087 31.9576 17.765 32.1895 17.6344 32.6065C17.5772 32.7885 17.5248 32.9744 17.4791 33.159C17.3543 33.6574 17.7316 34.142 18.2471 34.142Z" fill="#E4772F" stroke="white" stroke-width="0.2"/>
<path id="Vector_11" d="M20.4926 28.2985C20.0967 28.1131 19.6257 28.2841 19.4408 28.6796C19.3662 28.8387 19.2925 28.9956 19.2183 29.1501C19.0297 29.5443 19.1964 30.0165 19.5904 30.2052C19.9858 30.3943 20.4572 30.2262 20.6454 29.8332C20.7212 29.6746 20.7974 29.5135 20.8737 29.3499C21.0591 28.9544 20.8885 28.4835 20.4926 28.2985Z" fill="#E4772F" stroke="white" stroke-width="0.2"/>
<path id="Vector_12" d="M26.9359 45.3949C27.153 45.3974 27.387 45.3928 27.6231 45.3789C28.0589 45.3537 28.3923 44.9797 28.3672 44.5438C28.342 44.1075 27.9692 43.7729 27.5316 43.7993C27.347 43.81 27.1547 43.815 26.9548 43.8129C26.5189 43.8084 26.1597 44.1577 26.1543 44.5945C26.1494 45.0311 26.4992 45.3896 26.9359 45.3949Z" fill="#E4772F" stroke="white" stroke-width="0.2"/>
<path id="Vector_13" d="M17.3214 37.1422C17.3522 37.3292 17.3893 37.5188 17.4313 37.7045C17.5274 38.1305 17.9505 38.3983 18.3773 38.302C18.8033 38.2056 19.0711 37.7824 18.9747 37.3561C18.9393 37.1999 18.9083 37.0409 18.8824 36.8839C18.8107 36.4525 18.4033 36.1609 17.9723 36.2325C17.5414 36.3038 17.2497 36.7113 17.3214 37.1422Z" fill="#E4772F" stroke="white" stroke-width="0.2"/>
<path id="Vector_14" d="M25.9161 10.0189C26.1724 10.3728 26.6668 10.4523 27.0207 10.196C27.0261 10.1928 27.0425 10.1882 27.0619 10.1903C27.4953 10.2435 27.89 9.93449 27.9427 9.5006C27.9955 9.06725 27.6869 8.67253 27.2531 8.61979C26.1975 8.49125 25.4073 9.3161 25.9161 10.0189Z" fill="#E4772F" stroke="white" stroke-width="0.2"/>
<path id="Vector_15" d="M21.6354 26.4245C21.9473 26.4245 22.2431 26.2383 22.3684 25.9318C22.4347 25.7686 22.501 25.6035 22.5677 25.437C22.7296 25.0316 22.5319 24.5714 22.1261 24.4091C21.7203 24.2472 21.2601 24.4449 21.0982 24.8507C21.0331 25.0134 20.968 25.175 20.9029 25.3344C20.6911 25.8539 21.0743 26.4245 21.6354 26.4245Z" fill="#E4772F" stroke="white" stroke-width="0.2"/>
<path id="Vector_16" d="M22.8608 22.4323C23.2733 22.5749 23.7244 22.3565 23.8669 21.9428C23.9246 21.7764 23.9823 21.6083 24.0396 21.439C24.1796 21.0253 23.958 20.5763 23.5439 20.4362C23.1307 20.2957 22.6813 20.5177 22.5412 20.9318C22.4847 21.0979 22.4283 21.2627 22.3719 21.4259C22.2289 21.839 22.4481 22.2893 22.8608 22.4323Z" fill="#E4772F" stroke="white" stroke-width="0.2"/>
<path id="Vector_17" d="M25.1546 17.8841C25.2036 17.7147 25.2527 17.5438 25.3013 17.372C25.4208 16.9518 25.1764 16.5146 24.7562 16.3956C24.336 16.276 23.8985 16.5204 23.7795 16.9406C23.7317 17.1087 23.6834 17.2764 23.6352 17.4424C23.5132 17.8618 23.7542 18.301 24.1741 18.4229C24.5927 18.5449 25.0322 18.3043 25.1546 17.8841Z" fill="#E4772F" stroke="white" stroke-width="0.2"/>
<path id="Vector_18" d="M26.2428 13.7687C26.2836 13.5969 26.3244 13.4242 26.3648 13.2508C26.464 12.8252 26.1995 12.4 25.7739 12.3011C25.3484 12.2019 24.9232 12.4664 24.8239 12.892C24.7844 13.0625 24.744 13.2318 24.7036 13.4008C24.5849 13.8972 24.9615 14.3759 25.4736 14.3759C25.8316 14.3759 26.1559 14.1316 26.2428 13.7687Z" fill="#E4772F" stroke="white" stroke-width="0.2"/>
<path id="Vector_19" d="M22.5257 44.293C22.6946 44.3807 22.8688 44.4644 23.0427 44.5418C23.4423 44.7198 23.9095 44.5393 24.0871 44.1405C24.2646 43.7417 24.085 43.2742 23.6858 43.0962C23.54 43.0315 23.3941 42.9614 23.2524 42.8881C22.8647 42.687 22.3868 42.8391 22.1862 43.2268C21.9855 43.6153 22.1376 44.0924 22.5257 44.293Z" fill="#E4772F" stroke="white" stroke-width="0.2"/>
<path id="Vector_20" d="M19.4263 41.7885C19.7041 42.1263 20.2025 42.1746 20.54 41.8977C20.8774 41.6204 20.9264 41.1219 20.6487 40.7841C20.5478 40.6609 20.4489 40.5332 20.3546 40.4038C20.0975 40.0507 19.6026 39.9724 19.2496 40.2296C18.8961 40.4866 18.8183 40.9814 19.0753 41.3349C19.1878 41.489 19.3056 41.6414 19.4263 41.7885Z" fill="#E4772F" stroke="white" stroke-width="0.2"/>
<path id="Vector_21" d="M28.8984 1.58203H35.5169C35.8779 1.58203 36.1127 1.96065 35.952 2.28612C33.1979 7.87019 32.6199 13.8881 34.2344 20.1725C36.6907 29.7352 46.0284 34.6353 48.1011 40.7703C48.2412 41.1843 48.6894 41.4064 49.1039 41.2667C49.518 41.1267 49.74 40.678 49.6003 40.2639C47.3472 33.5955 38.1204 28.94 35.7667 19.7791C34.2493 13.8712 34.789 8.2212 37.3709 2.98608C38.0495 1.61046 37.0513 0 35.5169 0H28.8984C28.4613 0 28.1074 0.354309 28.1074 0.791015C28.1074 1.22813 28.4613 1.58203 28.8984 1.58203Z" fill="#E4772F" stroke="white" stroke-width="0.2"/>
<path id="Vector_22" d="M21.4357 51.9957C23.1088 53.3453 25.0946 54 27.0515 54C29.0406 54 31.0185 53.326 32.6677 51.9957C39.0412 54.7259 45.6539 54.3176 48.8238 48.0612C49.4715 46.7828 49.8752 45.5192 50.0248 44.3056C50.0779 43.8717 49.7697 43.477 49.3363 43.4238C48.9025 43.3699 48.5078 43.6784 48.4546 44.1123C48.3257 45.1583 47.985 46.2164 47.4124 47.346C44.1272 53.8311 37.1662 52.0731 33.9078 50.796C34.4908 50.1199 34.9938 49.3503 35.3967 48.5C35.9274 47.379 36.7921 46.5496 37.8308 46.1652C39.2175 45.6519 39.9714 46.2538 40.4761 47.6871C40.6211 48.0991 41.0727 48.3158 41.4847 48.1708C41.8971 48.0253 42.1133 47.5738 41.9683 47.1618C40.3381 42.5327 35.5904 44.3945 33.9667 47.8227C32.5738 50.7631 29.8373 52.418 27.0515 52.418C24.2352 52.418 21.516 50.735 20.1367 47.8227C18.5193 44.4073 13.7695 42.52 12.1351 47.1618C11.9901 47.5738 12.2063 48.0253 12.6188 48.1708C13.0307 48.3158 13.4823 48.0991 13.6273 47.6871C13.9182 46.8615 14.3038 46.3308 14.773 46.1104C15.6753 45.6869 17.7019 46.3783 18.7067 48.5C19.1096 49.3503 19.6123 50.1199 20.1956 50.796C16.9368 52.0731 9.97632 53.8315 6.6907 47.346C3.7454 41.5325 7.20155 37.8006 11.5769 33.0764C14.806 29.5897 18.4657 25.6379 19.8697 20.1725C21.4839 13.8881 20.9063 7.86978 18.1522 2.28612C17.9919 1.96106 18.2255 1.58203 18.5872 1.58203H25.2058C25.6429 1.58203 25.9969 1.22813 25.9969 0.791015C25.9969 0.354309 25.6429 0 25.2058 0H18.5872C17.053 0 16.0544 1.60963 16.7329 2.98608C19.3153 8.2212 19.8549 13.8712 18.3371 19.7791C17.0328 24.8568 13.6689 28.489 10.4159 32.0016C6.00392 36.7654 1.83666 41.2651 5.27923 48.0612C8.43752 54.2946 15.0133 54.7465 21.4357 51.9957Z" fill="#E4772F" stroke="white" stroke-width="0.2"/>
</g>
</g>
<defs>
<clipPath id="clip0_109_6535">
<rect width="54" height="54" fill="white"/>
</clipPath>
</defs>
</svg>
