<svg width="54" height="54" viewBox="0 0 54 54" fill="none" xmlns="http://www.w3.org/2000/svg">
<g id="Proktologiya" clip-path="url(#clip0_109_6577)">
<g id="Group">
<path id="Vector" d="M52.8998 16.5492C53.6108 15.5311 54 14.3203 54 13.0645C54 9.70272 51.2642 6.96775 47.9032 6.96775C46.6516 6.96775 45.4392 7.35347 44.4193 8.06793C43.3995 7.35347 42.187 6.96775 40.9355 6.96775C39.6805 6.96775 38.4689 7.35687 37.4508 8.06793C36.462 7.37644 35.2627 6.96775 33.9677 6.96775C32.7162 6.96775 31.5037 7.35432 30.4839 8.06793C29.464 7.35432 28.2516 6.96775 27 6.96775C25.705 6.96775 24.5057 7.37644 23.517 8.06793C22.4988 7.35687 21.2881 6.96775 20.0323 6.96775C18.7807 6.96775 17.5691 7.35347 16.5484 8.06709V2.99098L11.5637 0H9.58068V8.06709C7.95736 9.20088 6.96775 11.0717 6.96775 13.0645C6.96775 16.4263 9.70353 19.1613 13.0645 19.1613C14.3161 19.1613 15.5286 18.7747 16.5484 18.0611C17.5682 18.7747 18.7807 19.1613 20.0323 19.1613C21.3072 19.1613 22.5155 18.7599 23.5161 18.0619C24.5343 18.7722 25.745 19.1613 27 19.1613C28.2516 19.1613 29.464 18.7747 30.4839 18.0611C31.5037 18.7747 32.7162 19.1613 33.9677 19.1613C35.2228 19.1613 36.4335 18.7722 37.4508 18.0619C38.4523 18.7599 39.6605 19.1613 40.9355 19.1613C41.257 19.1613 41.5747 19.1307 41.8894 19.0805C41.8405 19.3939 41.8064 19.7099 41.8064 20.0323C41.8064 20.3546 41.837 20.674 41.8873 20.9887C40.3537 20.7586 38.7457 21.1209 37.4567 22.0077C36.4675 21.3144 35.2657 20.9032 33.9677 20.9032C32.7162 20.9032 31.5037 21.2898 30.4839 22.0034C29.464 21.2898 28.2516 20.9032 27 20.9032C25.745 20.9032 24.5334 21.2924 23.5153 22.0034C22.5265 21.3119 21.3272 20.9032 20.0323 20.9032C18.7573 20.9032 17.5491 21.3047 16.5484 22.0026C15.5303 21.2924 14.3195 20.9032 13.0645 20.9032C11.8129 20.9032 10.6005 21.289 9.58068 22.0034C8.56083 21.289 7.34836 20.9032 6.09677 20.9032C2.73581 20.9032 0 23.6381 0 27C0 28.295 0.401461 29.5007 1.09296 30.4936C0.386577 31.5101 0 32.717 0 33.9677C0 35.2228 0.389128 36.4343 1.1002 37.4524C0.409542 38.4412 0 39.6405 0 40.9355C0 44.2965 2.73581 47.0323 6.09677 47.0323C7.37346 47.0323 8.58082 46.6299 9.58068 45.9329C10.5979 46.6431 11.8086 47.0323 13.0645 47.0323C14.3161 47.0323 15.5286 46.6465 16.5484 45.932C17.5682 46.6465 18.7807 47.0323 20.0323 47.0323C21.3089 47.0323 22.5163 46.6299 23.517 45.9329C24.5343 46.6431 25.7458 47.0323 27 47.0323C28.2559 47.0323 29.4674 46.6419 30.4864 45.9303C31.4896 46.6299 32.6995 47.0323 33.9677 47.0323C35.2193 47.0323 36.4318 46.6465 37.4516 45.932V51.009L42.4363 54H44.4193V45.9329C46.0426 44.7991 47.0323 42.9292 47.0323 40.9355C47.0323 37.5745 44.2965 34.8387 40.9355 34.8387C39.6839 34.8387 38.4714 35.2245 37.4516 35.9389C36.4318 35.2245 35.2193 34.8387 33.9677 34.8387C32.7127 34.8387 31.5012 35.2291 30.483 35.9389C29.4943 35.2482 28.295 34.8387 27 34.8387C25.745 34.8387 24.5343 35.2278 23.5161 35.9381C22.4988 35.2278 21.2873 34.8387 20.0323 34.8387C18.7807 34.8387 17.5682 35.2245 16.5484 35.9389C15.5286 35.2245 14.3161 34.8387 13.0645 34.8387C12.7396 34.8387 12.4228 34.8718 12.1106 34.9208C12.1595 34.6078 12.1936 34.291 12.1936 33.9677C12.1936 33.6437 12.1603 33.3268 12.1106 33.013C12.4245 33.0628 12.7413 33.0968 13.0645 33.0968C14.3595 33.0968 15.5587 32.6872 16.5476 31.9966C17.5648 32.7064 18.7764 33.0968 20.0323 33.0968C21.2873 33.0968 22.4971 32.7076 23.5153 31.9974C24.5176 32.6962 25.7284 33.0968 27 33.0968C28.2516 33.0968 29.464 32.711 30.4839 31.9966C31.5037 32.711 32.7162 33.0968 33.9677 33.0968C35.2228 33.0968 36.4335 32.7076 37.4516 31.9974C38.4523 32.6953 39.6605 33.0968 40.9355 33.0968C42.2304 33.0968 43.4298 32.6872 44.4185 31.9966C45.4366 32.7076 46.6474 33.0968 47.9032 33.0968C51.2642 33.0968 54 30.361 54 27C54 25.7484 53.6143 24.5351 52.8998 23.5161C53.6143 22.4971 54 21.2838 54 20.0323C54 18.7373 53.5913 17.538 52.8998 16.5492ZM51.1426 24.0979C51.8617 24.8991 52.258 25.9304 52.258 27C52.258 29.4011 50.3043 31.3548 47.9032 31.3548C47.1297 31.3548 46.3816 31.1439 45.7232 30.7615C46.5402 29.7243 47.0323 28.4196 47.0323 27H45.2903C45.2903 29.4011 43.3366 31.3548 40.9355 31.3548C39.0932 31.3548 37.4418 30.1887 36.8282 28.4528L35.1861 29.0328C35.4111 29.6686 35.7394 30.2453 36.1409 30.7565C34.5619 31.6398 32.447 31.4786 31.0657 30.238L30.4839 29.7167L29.902 30.2394C29.1001 30.9585 28.0696 31.3548 27 31.3548C25.1789 31.3548 23.5345 30.207 22.9101 28.4982L21.2732 29.0975C21.4965 29.7069 21.8142 30.2644 22.2037 30.7581C20.8781 31.4969 19.1821 31.4969 17.8573 30.7556C18.6709 29.7193 19.1613 28.417 19.1613 27H17.4193C17.4193 29.4011 15.4656 31.3548 13.0645 31.3548C12.5002 31.3548 11.9584 31.2426 11.4447 31.0333C10.9535 30.1381 10.2356 29.3671 9.3348 28.8011L8.40816 30.2759C9.68778 31.0797 10.4516 32.4601 10.4516 33.9677C10.4516 34.5329 10.3402 35.0781 10.1309 35.594C8.24825 36.6321 6.96775 38.6368 6.96775 40.9355H8.70968C8.70968 38.5344 10.6634 36.5807 13.0645 36.5807C14.134 36.5807 15.1645 36.977 15.9666 37.6961L16.5484 38.2188L17.1301 37.6961C18.5132 36.4569 20.6281 36.2957 22.2071 37.1799C21.3736 38.2451 20.9032 39.5644 20.9032 40.9355H22.6452C22.6452 39.6996 23.1729 38.5177 24.0945 37.691C24.8932 36.9753 25.9253 36.5807 27 36.5807C29.4011 36.5807 31.3548 38.5344 31.3548 40.9355H33.0968C33.0968 39.5185 32.6065 38.2163 31.7929 37.1799C33.3728 36.2966 35.4877 36.4569 36.8699 37.6961L37.4516 38.2188L38.0334 37.6961C38.8354 36.977 39.8659 36.5807 40.9355 36.5807C43.3366 36.5807 45.2903 38.5344 45.2903 40.9355C45.2903 42.4813 44.456 43.9256 43.1121 44.7025L42.6775 44.9539V52.1135L39.1936 50.0233V44.9552L38.7589 44.7034C38.5021 44.5541 38.2579 44.3768 38.0334 44.1757L37.4516 43.6522L36.8699 44.1748C36.0678 44.894 35.0373 45.2903 33.9677 45.2903C32.1684 45.2903 30.532 44.1607 29.8944 42.4779L28.2648 43.0955C28.4859 43.6798 28.7942 44.2156 29.1706 44.6919C27.845 45.4306 26.1508 45.4306 24.8269 44.6902C25.2346 44.171 25.5672 43.5849 25.7917 42.9385L24.1468 42.3674C23.5378 44.1153 21.8848 45.2903 20.0323 45.2903C18.9627 45.2903 17.9322 44.894 17.1301 44.1748L16.5484 43.6522L15.9666 44.1748C14.5845 45.4149 12.4696 45.5761 10.8905 44.6919C11.2983 44.1735 11.6301 43.5883 11.8546 42.9423L10.2096 42.3691C9.60066 44.1161 7.94843 45.2903 6.09677 45.2903C3.69566 45.2903 1.74193 43.3366 1.74193 40.9355C1.74193 38.5344 3.69566 36.5807 6.09677 36.5807V34.8387C4.6772 34.8387 3.37244 35.3308 2.33519 36.1477C1.95372 35.4893 1.74193 34.7414 1.74193 33.9677C1.74193 33.1988 1.95202 32.4542 2.32967 31.798C3.11643 32.4147 4.06225 32.8467 5.11268 33.0185L5.39124 31.2983C3.27761 30.9542 1.74193 29.1468 1.74193 27C1.74193 24.5989 3.69566 22.6452 6.09677 22.6452C7.16549 22.6452 8.19594 23.0415 8.99971 23.7606L9.58068 24.2816L10.1615 23.7606C11.5463 22.5205 13.6595 22.3602 15.2377 23.2435C14.8362 23.7547 14.5079 24.3314 14.2829 24.9664L15.925 25.5472C16.5386 23.8113 18.19 22.6452 20.0323 22.6452C22.4334 22.6452 24.3871 24.5989 24.3871 27H26.1291C26.1291 25.5829 25.6387 24.2807 24.8251 23.2452C26.4042 22.361 28.5182 22.5205 29.9029 23.762L30.4839 24.2816L31.0648 23.7606C31.8685 23.0415 32.8991 22.6452 33.9677 22.6452C36.3688 22.6452 38.3225 24.5989 38.3225 27H40.0645C40.0645 25.5829 39.5742 24.2807 38.7607 23.2444C39.9148 22.5886 41.3459 22.4797 42.577 22.9777C42.7986 23.375 43.0589 23.753 43.368 24.097L44.6638 22.9335C43.9447 22.1332 43.5484 21.1019 43.5484 20.0323C43.5484 19.4628 43.6623 18.9147 43.8733 18.3949C44.2731 18.1738 44.6537 17.9114 45.0003 17.6005L43.8385 16.3039C43.0347 17.023 42.0042 17.4193 40.9355 17.4193C39.0932 17.4193 37.4418 16.2533 36.8282 14.5173L35.1861 15.0982C35.4111 15.7332 35.7386 16.3098 36.14 16.821C34.5602 17.7043 32.4487 17.544 31.0639 16.3039L30.4839 15.7829L29.9029 16.3039C28.5191 17.5431 26.4076 17.7043 24.8269 16.821C25.2283 16.3107 25.5558 15.734 25.7808 15.0999L24.1387 14.5181C23.5247 16.2533 21.8732 17.4193 20.0323 17.4193C18.9635 17.4193 17.9331 17.023 17.1293 16.3039L16.5484 15.7829L15.9674 16.3039C15.1636 17.023 14.1332 17.4193 13.0645 17.4193C10.6634 17.4193 8.70968 15.4656 8.70968 13.0645C8.70968 11.5195 9.54405 10.0752 10.8879 9.29655L11.3225 9.04482V1.88653L14.8064 3.97677V9.04482L15.241 9.29655C15.4971 9.44496 15.7412 9.62235 15.9666 9.82521L16.5484 10.3461L17.1293 9.82521C18.5149 8.58507 20.6281 8.42474 22.2071 9.30888C21.3935 10.3453 20.9032 11.6475 20.9032 13.0645H22.6452C22.6452 10.6634 24.5989 8.70968 27 8.70968C28.0687 8.70968 29.0992 9.10602 29.9029 9.82521L30.4839 10.3461L31.0648 9.82521C31.8685 9.10602 32.8991 8.70968 33.9677 8.70968C36.3688 8.70968 38.3225 10.6634 38.3225 13.0645H40.0645C40.0645 11.6475 39.5742 10.3453 38.7607 9.30978C40.3413 8.42559 42.4529 8.58592 43.8385 9.82647L44.4193 10.3461L45.0003 9.82521C45.8041 9.10602 46.8345 8.70968 47.9032 8.70968C50.3043 8.70968 52.258 10.6634 52.258 13.0645C52.258 13.8381 52.0471 14.5861 51.6648 15.2445C50.6275 14.4275 49.3228 13.9355 47.9032 13.9355V15.6775C50.3043 15.6775 52.258 17.6312 52.258 20.0323C52.258 21.1019 51.8617 22.1332 51.1426 22.9343L50.6199 23.5161L51.1426 24.0979Z" fill="#E4772F" stroke="white" stroke-width="0.3"/>
</g>
</g>
<defs>
<clipPath id="clip0_109_6577">
<rect width="54" height="54" fill="white"/>
</clipPath>
</defs>
</svg>
