<svg width="54.000000" height="54.000000" viewBox="0 0 54 54" fill="none" xmlns="http://www.w3.org/2000/svg" xmlns:xlink="http://www.w3.org/1999/xlink">
	<desc>
			Created with Pixso.
	</desc>
	<defs>
		<clipPath id="clip109_6583">
			<rect id="Psikhoterapiya" width="54.000000" height="54.000000" fill="white" fill-opacity="0"/>
		</clipPath>
	</defs>
	<rect id="Psikhoterapiya" width="54.000000" height="54.000000" fill="#FFFFFF" fill-opacity="0"/>
	<g clip-path="url(#clip109_6583)">
		<path id="Vector" d="M53.0801 25.4727C49.8457 25.3594 46.6777 25.8354 43.7031 26.8516C43.6445 23.6743 43.0059 20.5596 41.7988 17.5737C41.6035 17.0859 41.0488 16.8506 40.5605 17.0474C38.6758 17.8086 36.9102 18.7705 35.2793 19.9204C33.3203 16.0571 30.7656 12.5361 27.6719 9.44385C27.3008 9.07227 26.6973 9.07227 26.3262 9.44385C23.2305 12.5391 20.6777 16.0591 18.7188 19.9189C17.0879 18.7695 15.3242 17.8086 13.4414 17.0474C12.9531 16.8506 12.3984 17.0859 12.2012 17.5737C10.9922 20.5645 10.3535 23.6846 10.2969 26.8672C7.36133 25.8589 4.19922 25.3584 0.919922 25.4727C0.392578 25.4912 -0.0175781 25.9321 0 26.458C0.492188 40.5522 12.1152 51.6826 26.1094 51.6826C26.4043 51.6826 26.7031 51.6768 27 51.667C27.2988 51.6772 27.5957 51.6826 27.8906 51.6826C41.8848 51.6826 53.5078 40.5513 54 26.458C54.0176 25.9321 53.6055 25.4912 53.0801 25.4727ZM13.6211 19.1953C16.3047 20.4033 18.709 22.062 20.7812 24.1362C23.0039 26.3589 24.748 28.9561 25.9727 31.8599C25.1562 33.9683 24.6211 36.1475 24.3711 38.3706C21.5625 33.603 17.291 29.8149 12.1973 27.6045C12.166 24.7329 12.6445 21.9111 13.6211 19.1953ZM1.95703 27.3618C8.07031 27.3877 13.8613 29.6787 18.3574 33.8716C22.8535 38.0645 25.543 43.6812 25.9961 49.7773C13.3945 49.7183 2.89453 39.9268 1.95703 27.3618ZM22.1289 22.7891C21.5312 22.1914 20.9062 21.626 20.2598 21.0928C22.0039 17.5747 24.2676 14.3477 27 11.481C29.7305 14.3457 31.9922 17.5732 33.7383 21.0942C33.0918 21.627 32.4688 22.1914 31.8711 22.7886C29.8848 24.7739 28.2539 27.0381 27 29.5386C25.748 27.0396 24.1152 24.7754 22.1289 22.7891ZM26.9961 44.5293C26.748 43.6475 26.457 42.7847 26.1211 41.9438C26.1152 41.7402 26.1113 41.5254 26.1113 41.2896C26.1113 38.168 26.707 35.1113 27.8828 32.2046C29.1133 29.1587 30.9082 26.4443 33.2188 24.1357C35.291 22.062 37.6973 20.4028 40.3809 19.1953C41.3535 21.9053 41.832 24.7207 41.8027 27.5854C39.0898 28.7593 36.5703 30.4028 34.3438 32.478C30.7812 35.8003 28.2715 39.9531 26.9961 44.5293ZM28.0039 49.7773C28.457 43.6812 31.1465 38.0645 35.6426 33.8716C40.1387 29.6787 45.9297 27.3872 52.043 27.3613C51.1035 39.9277 40.6055 49.7192 28.0039 49.7773Z" fill="#E4772F" fill-opacity="1.000000" fill-rule="nonzero"/>
		<path id="Vector" d="M43.7031 26.8516C43.6445 23.6743 43.0059 20.5596 41.7988 17.5737C41.6035 17.0859 41.0488 16.8506 40.5605 17.0474C38.6758 17.8086 36.9102 18.7705 35.2793 19.9204C33.3203 16.0571 30.7656 12.5361 27.6719 9.44385C27.3008 9.07227 26.6973 9.07227 26.3262 9.44385C23.2305 12.5391 20.6777 16.0591 18.7188 19.9189C17.0879 18.7695 15.3242 17.8086 13.4414 17.0474C12.9531 16.8506 12.3984 17.0859 12.2012 17.5737C10.9922 20.5645 10.3535 23.6846 10.2969 26.8672C7.36133 25.8589 4.19922 25.3584 0.919922 25.4727C0.392578 25.4912 -0.0175781 25.9321 0 26.458C0.492188 40.5522 12.1152 51.6826 26.1094 51.6826C26.4043 51.6826 26.7031 51.6768 27 51.667C27.2988 51.6772 27.5957 51.6826 27.8906 51.6826C41.8848 51.6826 53.5078 40.5513 54 26.458C54.0176 25.9321 53.6055 25.4912 53.0801 25.4727C49.8457 25.3594 46.6777 25.8354 43.7031 26.8516ZM20.7812 24.1362C23.0039 26.3589 24.748 28.9561 25.9727 31.8599C25.1562 33.9683 24.6211 36.1475 24.3711 38.3706C21.5625 33.603 17.291 29.8149 12.1973 27.6045C12.166 24.7329 12.6445 21.9111 13.6211 19.1953C16.3047 20.4033 18.709 22.062 20.7812 24.1362ZM18.3574 33.8716C22.8535 38.0645 25.543 43.6812 25.9961 49.7773C13.3945 49.7183 2.89453 39.9268 1.95703 27.3618C8.07031 27.3877 13.8613 29.6787 18.3574 33.8716ZM20.2598 21.0928C22.0039 17.5747 24.2676 14.3477 27 11.481C29.7305 14.3457 31.9922 17.5732 33.7383 21.0942C33.0918 21.627 32.4688 22.1914 31.8711 22.7886C29.8848 24.7739 28.2539 27.0381 27 29.5386C25.748 27.0396 24.1152 24.7754 22.1289 22.7891C21.5312 22.1914 20.9062 21.626 20.2598 21.0928ZM26.1211 41.9438C26.1152 41.7402 26.1113 41.5254 26.1113 41.2896C26.1113 38.168 26.707 35.1113 27.8828 32.2046C29.1133 29.1587 30.9082 26.4443 33.2188 24.1357C35.291 22.062 37.6973 20.4028 40.3809 19.1953C41.3535 21.9053 41.832 24.7207 41.8027 27.5854C39.0898 28.7593 36.5703 30.4028 34.3438 32.478C30.7812 35.8003 28.2715 39.9531 26.9961 44.5293C26.748 43.6475 26.457 42.7847 26.1211 41.9438ZM35.6426 33.8716C40.1387 29.6787 45.9297 27.3872 52.043 27.3613C51.1035 39.9277 40.6055 49.7192 28.0039 49.7773C28.457 43.6812 31.1465 38.0645 35.6426 33.8716Z" stroke="#FFFFFF" stroke-opacity="1.000000" stroke-width="0.300000"/>
		<path id="Vector" d="M1.48438 22.6895C2.00977 22.6895 2.43555 22.2632 2.43555 21.7373C2.43555 21.2109 2.00977 20.7847 1.48438 20.7847C0.957031 20.7847 0.53125 21.2109 0.53125 21.7373C0.53125 22.2632 0.957031 22.6895 1.48438 22.6895Z" fill="#E4772F" fill-opacity="1.000000" fill-rule="nonzero"/>
		<path id="Vector" d="M2.43555 21.7373C2.43555 21.2109 2.00977 20.7847 1.48438 20.7847C0.957031 20.7847 0.53125 21.2109 0.53125 21.7373C0.53125 22.2632 0.957031 22.6895 1.48438 22.6895C2.00977 22.6895 2.43555 22.2632 2.43555 21.7373Z" stroke="#FFFFFF" stroke-opacity="1.000000" stroke-width="0.300000"/>
		<path id="Vector" d="M13.0859 12.1143C13.6113 12.1143 14.0371 11.688 14.0371 11.1621C14.0371 10.6357 13.6113 10.2095 13.0859 10.2095C12.5586 10.2095 12.1328 10.6357 12.1328 11.1621C12.1328 11.688 12.5586 12.1143 13.0859 12.1143Z" fill="#E4772F" fill-opacity="1.000000" fill-rule="nonzero"/>
		<path id="Vector" d="M14.0371 11.1621C14.0371 10.6357 13.6113 10.2095 13.0859 10.2095C12.5586 10.2095 12.1328 10.6357 12.1328 11.1621C12.1328 11.688 12.5586 12.1143 13.0859 12.1143C13.6113 12.1143 14.0371 11.688 14.0371 11.1621Z" stroke="#FFFFFF" stroke-opacity="1.000000" stroke-width="0.300000"/>
		<path id="Vector" d="M27 4.22168C27.5254 4.22168 27.9512 3.79541 27.9512 3.26953C27.9512 2.74316 27.5254 2.31689 27 2.31689C26.4727 2.31689 26.0469 2.74316 26.0469 3.26953C26.0469 3.79541 26.4727 4.22168 27 4.22168Z" fill="#E4772F" fill-opacity="1.000000" fill-rule="nonzero"/>
		<path id="Vector" d="M27.9512 3.26953C27.9512 2.74316 27.5254 2.31689 27 2.31689C26.4727 2.31689 26.0469 2.74316 26.0469 3.26953C26.0469 3.79541 26.4727 4.22168 27 4.22168C27.5254 4.22168 27.9512 3.79541 27.9512 3.26953Z" stroke="#FFFFFF" stroke-opacity="1.000000" stroke-width="0.300000"/>
		<path id="Vector" d="M40.918 12.1143C41.4434 12.1143 41.8691 11.688 41.8691 11.1621C41.8691 10.6357 41.4434 10.2095 40.918 10.2095C40.3906 10.2095 39.9648 10.6357 39.9648 11.1621C39.9648 11.688 40.3906 12.1143 40.918 12.1143Z" fill="#E4772F" fill-opacity="1.000000" fill-rule="nonzero"/>
		<path id="Vector" d="M41.8691 11.1621C41.8691 10.6357 41.4434 10.2095 40.918 10.2095C40.3906 10.2095 39.9648 10.6357 39.9648 11.1621C39.9648 11.688 40.3906 12.1143 40.918 12.1143C41.4434 12.1143 41.8691 11.688 41.8691 11.1621Z" stroke="#FFFFFF" stroke-opacity="1.000000" stroke-width="0.300000"/>
		<path id="Vector" d="M52.5137 22.6895C53.0391 22.6895 53.4648 22.2632 53.4648 21.7373C53.4648 21.2109 53.0391 20.7847 52.5137 20.7847C51.9863 20.7847 51.5605 21.2109 51.5605 21.7373C51.5605 22.2632 51.9863 22.6895 52.5137 22.6895Z" fill="#E4772F" fill-opacity="1.000000" fill-rule="nonzero"/>
		<path id="Vector" d="M53.4648 21.7373C53.4648 21.2109 53.0391 20.7847 52.5137 20.7847C51.9863 20.7847 51.5605 21.2109 51.5605 21.7373C51.5605 22.2632 51.9863 22.6895 52.5137 22.6895C53.0391 22.6895 53.4648 22.2632 53.4648 21.7373Z" stroke="#FFFFFF" stroke-opacity="1.000000" stroke-width="0.300000"/>
	</g>
</svg>
