<svg width="54.000000" height="54.000000" viewBox="0 0 54 54" fill="none" xmlns="http://www.w3.org/2000/svg" xmlns:xlink="http://www.w3.org/1999/xlink">
	<desc>
			Created with Pixso.
	</desc>
	<defs>
		<clipPath id="clip109_6600">
			<rect id="pulmonologiya 2" width="54.000000" height="54.000000" fill="white" fill-opacity="0"/>
		</clipPath>
	</defs>
	<rect id="pulmonologiya 2" width="54.000000" height="54.000000" fill="#FFFFFF" fill-opacity="0"/>
	<g clip-path="url(#clip109_6600)">
		<path id="Vector" d="M1.66211 46.7827C2.08398 46.667 2.33008 46.2314 2.21484 45.8101C1.16797 42.0088 1.4082 36.2056 2.95117 28.0674C3.96289 22.7202 5.59375 18.0938 7.79883 14.3154C9.38477 11.6006 11.2227 9.38037 13.2656 7.71631C14.5645 6.65625 16.4043 6.63916 17.7402 7.67432C18.7422 8.44971 19.2559 9.66992 19.1152 10.937C18.8281 13.5459 18.9492 17.3496 21.0645 20.9331C20.7773 21.2866 20.457 21.6675 20.0996 22.0757C20.0996 22.0767 20.0977 22.0781 20.0977 22.0786C19.3242 22.9678 18.502 23.8101 17.6699 24.6431C17.4648 24.8472 15.0488 27.1699 14.9883 27.1104C14.4121 26.5269 13.7402 25.7847 13.0762 24.9126C13.0859 24.1611 13.1582 21.9165 13.6758 20.4224C13.8184 20.0098 13.5996 19.5591 13.1855 19.4165C12.7734 19.2734 12.3242 19.4922 12.1797 19.9053C11.8848 20.7593 11.7148 21.7856 11.6191 22.7061C11.0684 21.7231 10.5977 20.6489 10.293 19.5068C10.1816 19.085 9.74805 18.8335 9.32617 18.9463C8.9043 19.0591 8.65234 19.4922 8.76562 19.9146C9.16602 21.4199 9.82227 22.8115 10.5723 24.0464C9.53906 23.9448 8.24219 23.9712 7.05859 24.4434C6.65234 24.6045 6.45312 25.0649 6.61523 25.4707C6.77344 25.8691 7.24609 26.0718 7.64258 25.9131C9.21094 25.2886 11.166 25.7012 11.8164 25.8691C12.4961 26.7598 13.1797 27.5229 13.7754 28.1323C13.4746 28.3794 13.1816 28.6382 12.8984 28.9102C11.75 30.0103 10.7422 31.3145 9.87695 32.812C8.76953 31.8853 7.37109 30.4575 6.83203 28.8169C6.69531 28.4019 6.24805 28.1758 5.83398 28.312C5.41797 28.4482 5.19336 28.8955 5.32812 29.3105C5.55469 30.0005 5.89258 30.6499 6.29688 31.2524C5.61328 31.3491 4.78906 31.5425 3.98242 31.9229C3.58594 32.1084 3.41602 32.5801 3.60352 32.9751C3.78516 33.3643 4.26562 33.5371 4.65625 33.354C5.76367 32.8325 6.94922 32.751 7.49219 32.7437C8.02539 33.311 8.5918 33.814 9.12695 34.2437C8.7832 34.9609 8.4668 35.7148 8.18164 36.5068C7.79492 37.5791 7.49609 38.6284 7.26172 39.6147C7.00195 39.5366 6.72852 39.4634 6.44336 39.3984C6.21875 38.998 5.8125 38.1621 5.7207 37.2134C5.67969 36.7788 5.29492 36.4595 4.85938 36.5015C4.42383 36.543 4.10547 36.9297 4.14648 37.3643C4.21094 38.0312 4.38672 38.644 4.58203 39.1504C4.03906 39.1348 3.49023 39.1724 2.95508 39.2905C2.5293 39.3853 2.25977 39.8076 2.35352 40.2344C2.44922 40.6611 2.87109 40.9302 3.29688 40.8359C4.49609 40.5698 5.85352 40.8296 6.93945 41.1704C6.75391 42.186 6.63867 43.0952 6.56836 43.8369C6.45898 44.9922 7.32812 46.0796 8.49219 46.1724C9.51758 46.2534 10.5078 45.5195 10.7207 44.5127C10.7852 44.2148 10.8672 43.8594 10.9707 43.458C11.8125 44.21 12.7559 45.2612 13.1445 46.4438C13.2793 46.8525 13.7344 47.083 14.1426 46.9492C14.5586 46.813 14.7832 46.3657 14.6484 45.9507C14.4766 45.4312 14.2324 44.9399 13.9414 44.479C14.4766 44.3892 15.0918 44.228 15.6973 43.9434C16.0918 43.7573 16.2617 43.2861 16.0762 42.8906C15.8906 42.4951 15.418 42.3257 15.0234 42.5117C14.1621 42.9175 13.2422 42.9946 12.7793 43.0054C12.3477 42.5498 11.8906 42.145 11.459 41.7974C12.1426 39.7104 13.293 37.0581 15.1602 34.6733C15.4082 35.0513 15.6914 35.4463 16.0117 35.8457C15.9023 36.7402 15.7051 39.1064 16.3867 40.999C16.5332 41.4033 16.9961 41.6201 17.4004 41.4746C17.8105 41.3262 18.0234 40.873 17.877 40.4624C17.5312 39.5078 17.4648 38.3574 17.4844 37.4312C18.0645 37.9668 18.7207 38.4795 19.4609 38.937C19.8203 39.1592 20.3203 39.0503 20.5488 38.6787C20.7793 38.3071 20.6641 37.8198 20.291 37.5903C18.3457 36.3892 17.0449 34.7397 16.2383 33.4199C16.5762 33.0645 16.9277 32.7183 17.3027 32.3867C19.3164 30.6064 20.9844 29.418 22.3242 28.4624C22.4512 28.373 22.5723 28.2856 22.6934 28.1992C23.1094 30.2021 23.623 33.5322 23.623 39.4966C23.623 45.1079 22.8789 48.3525 21.2109 50.0181C19.3691 51.8584 16.2148 51.8535 11.8516 51.8472C8.63477 51.8472 5.23438 51.4243 3.35547 48.4771C3.12109 48.1089 2.63086 48.0005 2.26367 48.2354C1.89453 48.4702 1.78711 48.9595 2.02148 49.3281C3.78125 52.0869 6.73438 53.4282 11.0469 53.4282C11.5703 53.4282 12.0918 53.4302 12.6133 53.4302C16.9648 53.4302 20.1484 53.3154 22.3301 51.1377C24.3184 49.1514 25.2051 45.5615 25.2051 39.4966C25.2051 32.6147 24.5312 29.1304 24.0879 27.1641C24.9473 26.4819 25.6113 25.8218 26.0703 24.998C26.25 24.6753 26.584 24.4746 26.9414 24.4746L27.0527 24.4746C27.4102 24.4746 27.7441 24.6753 27.9238 24.998C28.3828 25.8218 29.0469 26.4819 29.9062 27.1641C29.4629 29.1304 28.7891 32.6147 28.7891 39.4966C28.7891 45.5615 29.6758 49.1514 31.666 51.1377C33.8457 53.3159 37.0293 53.4302 41.3789 53.4302C41.9023 53.4302 42.4238 53.4282 42.9473 53.4282C46.7949 53.4282 49.541 52.3721 51.3418 50.1987C52.8945 48.3242 53.748 45.6318 53.9512 41.9663C54.1562 38.3018 53.7129 33.6587 52.5977 27.7729C51.5312 22.1421 49.793 17.2715 47.4297 13.2954C47.2051 12.9194 46.7207 12.7964 46.3438 13.0195C45.9688 13.2427 45.8457 13.728 46.0684 14.104C48.3379 17.9209 50.0117 22.6187 51.043 28.0669C53.1484 39.1787 52.8555 45.8906 50.123 49.1899C48.1602 51.5586 45.0078 51.8428 42.1426 51.8472C37.7793 51.8535 34.625 51.8584 32.7832 50.0181C31.1152 48.3525 30.3711 45.1079 30.3711 39.4966C30.3711 33.5322 30.8867 30.2021 31.3008 28.1992C31.4219 28.2856 31.5449 28.373 31.6699 28.4624C33.4004 29.6958 35.0977 30.9775 36.6914 32.3867C37.0664 32.7183 37.4199 33.0645 37.7539 33.4199C36.9492 34.7393 35.6484 36.3892 33.7031 37.5903C33.332 37.8198 33.2168 38.3071 33.4453 38.6787C33.6719 39.0454 34.168 39.1631 34.5332 38.937C35.2754 38.4795 35.9297 37.9658 36.5117 37.4297C36.5312 38.3545 36.4629 39.5039 36.1191 40.4619C35.9355 40.9673 36.3262 41.5215 36.8633 41.5215C37.1875 41.5215 37.4902 41.3208 37.6074 40.999C38.2891 39.1064 38.0938 36.7402 37.9844 35.8457C38.3027 35.4458 38.5859 35.0508 38.834 34.6733C40.7012 37.0581 41.8516 39.7104 42.5352 41.7974C42.1035 42.145 41.6484 42.5498 41.2148 43.0054C40.7539 42.9946 39.832 42.9175 38.9707 42.5117C38.5762 42.3257 38.1055 42.4956 37.918 42.8906C37.7324 43.2861 37.9023 43.7573 38.2969 43.9434C38.9023 44.228 39.5176 44.3892 40.0527 44.479C39.7617 44.9399 39.5176 45.4312 39.3477 45.9507C39.2109 46.3657 39.4355 46.813 39.8516 46.9492C40.2539 47.0811 40.7129 46.8584 40.8496 46.4438C41.2383 45.2612 42.1816 44.21 43.0234 43.458C43.127 43.8594 43.209 44.2148 43.2734 44.5127C43.2734 44.5137 43.2734 44.5146 43.2734 44.5161C43.4883 45.5166 44.4805 46.2524 45.502 46.1724C46.7227 46.0757 47.5312 44.917 47.416 43.7471C47.3457 43.022 47.2324 42.146 47.0566 41.1704C48.1406 40.8296 49.498 40.5698 50.6973 40.8359C51.123 40.9302 51.5449 40.6606 51.6406 40.2344C51.7344 39.8076 51.4648 39.3853 51.0391 39.2905C50.5039 39.1724 49.9551 39.1348 49.4121 39.1504C49.6074 38.644 49.7832 38.0312 49.8477 37.3643C49.8887 36.9297 49.5703 36.543 49.1348 36.5015C48.6992 36.4595 48.3145 36.7788 48.2734 37.2134C48.1816 38.1646 47.7773 38.9976 47.5508 39.3984C47.2676 39.4634 46.9922 39.5366 46.7324 39.6147C46.5 38.6284 46.1992 37.5786 45.8145 36.5068C45.7422 36.3066 44.8398 34.2651 44.8672 34.2437C45.4043 33.8135 45.9688 33.3105 46.5039 32.7427C47.043 32.748 48.2207 32.8276 49.3398 33.354C49.7207 33.5342 50.2051 33.3701 50.3926 32.9751C50.5781 32.5801 50.4082 32.1084 50.0117 31.9224C49.2051 31.5425 48.3809 31.3491 47.6992 31.2524C48.1016 30.6499 48.4395 30.0005 48.666 29.3105C48.8008 28.8955 48.5762 28.4482 48.1602 28.312C47.7461 28.1758 47.2988 28.4014 47.1621 28.8169C46.623 30.4575 45.2246 31.8853 44.1172 32.812C43.0391 30.9438 41.7363 29.3779 40.2188 28.1323C40.8145 27.5229 41.5 26.7593 42.1777 25.8682C42.8281 25.6987 44.7734 25.2847 46.3516 25.9131C46.752 26.0728 47.2188 25.8716 47.3789 25.4707C47.541 25.0649 47.3418 24.6045 46.9355 24.4434C45.752 23.9712 44.4551 23.9448 43.4219 24.0464C44.1719 22.8115 44.8281 21.4199 45.2305 19.9146C45.3418 19.4927 45.0918 19.0591 44.668 18.9463C44.2461 18.834 43.8125 19.085 43.7012 19.5073C43.3965 20.6489 42.9258 21.7236 42.375 22.7061C42.2793 21.7856 42.1094 20.7593 41.8145 19.9053C41.6719 19.4922 41.2207 19.2734 40.8086 19.4165C40.3945 19.5596 40.1758 20.0098 40.3184 20.4229C40.8359 21.917 40.9082 24.1611 40.918 24.9126C40.2539 25.7847 39.582 26.5269 39.0039 27.1108C38.9863 27.0952 38.9688 27.0796 38.9512 27.064C37.4219 25.7427 36.0391 24.3022 34.6133 22.876C33.9551 22.1611 33.3984 21.5088 32.9297 20.9336C35.0469 17.3491 35.166 13.5459 34.8789 10.937C34.7383 9.66992 35.2539 8.44971 36.2539 7.67432C37.5898 6.63916 39.4297 6.65625 40.7285 7.71631C42.043 8.78662 43.2891 10.1104 44.4375 11.6504C44.6992 12.001 45.1934 12.0732 45.5449 11.812C45.8945 11.5513 45.9668 11.0557 45.707 10.7051C44.4805 9.06104 43.1426 7.64258 41.7285 6.48975C39.8555 4.9624 37.2051 4.93506 35.2852 6.42383C33.8457 7.53955 33.1055 9.2915 33.3066 11.1104C33.5527 13.3398 33.4727 16.5229 31.877 19.5698C31.8184 19.4873 31.7598 19.4072 31.7051 19.3315C31.2637 18.7095 31.0293 17.9795 31.0293 17.2202L31.0293 2.70264C31.0293 1.50342 30.0527 0.527344 28.8535 0.527344L25.1406 0.527344C23.9414 0.527344 22.9648 1.50342 22.9648 2.70264L22.9648 17.2202C22.9648 17.9795 22.7305 18.7095 22.2891 19.3315C22.2344 19.4072 22.1777 19.4873 22.1172 19.5698C20.5215 16.5229 20.4434 13.3398 20.6895 11.1104C20.8887 9.2915 20.1504 7.53955 18.7109 6.42383C16.7891 4.93506 14.1387 4.9624 12.2656 6.48975C10.0762 8.27441 8.11523 10.6387 6.43359 13.5181C4.13672 17.4521 2.44141 22.248 1.39648 27.7729C-0.191406 36.1533 -0.421875 42.1909 0.689453 46.23C0.804688 46.6514 1.24023 46.8989 1.66211 46.7827ZM23.5781 20.2485C24.2129 19.3574 24.5469 18.3105 24.5469 17.2202L24.5469 2.70264C24.5469 2.37549 24.8125 2.10986 25.1406 2.10986L28.8535 2.10986C29.1816 2.10986 29.4473 2.37549 29.4473 2.70264L29.4473 17.2202C29.4473 18.3105 29.7812 19.3574 30.416 20.2485C31.7539 22.1294 33.3027 23.8608 34.9336 25.4912C36.582 27.1406 38.4609 28.5386 40.125 30.1743C44.4941 34.4707 45.5801 41.1533 45.8477 43.9702C45.8496 43.9751 45.8496 43.9805 45.8496 43.9854C45.877 44.2725 45.6738 44.5708 45.375 44.5947C45.3711 44.5952 45.3652 44.5942 45.3594 44.5947C45.1055 44.6069 44.873 44.4336 44.8203 44.1836C44.6523 43.3931 44.4727 42.5776 44.1992 41.8154C43.084 38.7339 41.8477 35.8276 39.7344 33.2725C37.7266 30.8423 35.1367 28.9907 32.5879 27.1738C31.4297 26.3481 30.0176 25.5059 29.3047 24.2275C28.3281 22.4751 25.668 22.4722 24.6895 24.2271C23.9746 25.5083 22.5684 26.3447 21.4062 27.1738C20.0352 28.1504 18.3301 29.3662 16.2559 31.2012C13.3477 33.7739 11.3594 37.2529 10.0957 40.8906C9.72266 41.9673 9.41016 43.0684 9.17383 44.1836C9.11914 44.439 8.88086 44.6157 8.61719 44.5947C8.31836 44.5708 8.11719 44.2715 8.14453 43.9854C8.24805 42.8794 8.48047 41.1704 8.98828 39.2417C9.61719 36.8623 10.5566 34.5391 11.9434 32.4971C12.7246 31.3472 13.6621 30.2705 14.7891 29.3472C16.2676 28.1348 17.6914 26.856 19.0469 25.5059C20.6836 23.874 22.2363 22.1338 23.5781 20.2485Z" fill="#E4772F" fill-opacity="1.000000" fill-rule="nonzero"/>
	</g>
</svg>
