<svg width="54" height="54" viewBox="0 0 54 54" fill="none" xmlns="http://www.w3.org/2000/svg">
<g id="Revmatologiya" clip-path="url(#clip0_109_6606)">
<path id="Vector" d="M46.6147 19.823L48.6742 18.7937L46.9092 17.0285L52.7597 13.3726L51.8653 11.9416L44.2158 16.7231L45.8257 18.333L44.9651 18.7633C44.1509 18.306 43.2953 17.9095 42.3917 17.5955L41.062 17.1332L44.6082 11.8125H41.7175L43.8218 6.2024L42.2415 5.6101L39.2825 13.5H41.4543L39.4158 16.5586L36.0163 15.3765C34.6613 14.9048 33.75 13.6232 33.75 12.188V11.41C37.2229 9.14031 40.0317 5.9206 41.8196 2.04018L42.3706 0.84375H11.6294L12.1803 2.04018C13.9683 5.92143 16.7771 9.14031 20.25 11.41V12.188C20.25 13.6232 19.3387 14.904 17.9837 15.3757L11.6083 17.593C5.16965 19.8332 0.84375 25.9175 0.84375 32.735V43.875C0.84375 48.9923 5.00765 53.1562 10.125 53.1562H11.8125H13.8316H53.1562V32.735C53.1562 27.5485 50.6478 22.7913 46.6147 19.823ZM14.3108 2.53125H39.6883C37.0094 7.49165 32.4573 11.1282 27 12.6258C21.5427 11.1282 16.9906 7.49165 14.3108 2.53125ZM51.4688 51.4688H43.0312V36.4863C43.0312 34.403 43.8421 32.4447 45.3153 30.9715L44.1222 29.7785C42.3301 31.5706 41.3438 33.9525 41.3438 36.4863V51.4688H15.6482L25.7006 42.1343L28.9137 41.5985C30.1345 41.3952 31.2432 40.8248 32.1182 39.949L38.885 33.1822C39.382 32.686 39.6562 32.0245 39.6562 31.3208C39.6562 30.2459 39.0074 29.3228 38.0827 28.9137C38.551 28.4225 38.8125 27.7838 38.8125 27.1021C38.8125 26.0272 38.1637 25.1041 37.2389 24.6948C37.7072 24.2038 37.9688 23.5651 37.9688 22.8833C37.9688 21.4312 36.7875 20.25 35.3354 20.25C34.6317 20.25 33.9702 20.5242 33.4733 21.0212L32.6767 21.8177C32.2658 20.8963 31.3453 20.25 30.2729 20.25C29.5692 20.25 28.9077 20.5242 28.4107 21.0212L25.1834 24.2485C24.8805 22.7779 24.0232 21.4667 22.7475 20.6128C22.3931 20.3757 21.9797 20.25 21.5527 20.25C20.3698 20.25 19.4062 21.2135 19.4062 22.3965V23.2664C19.4062 24.3599 18.9802 25.3893 18.2073 26.1622L16.918 27.4514C15.8026 28.5668 15.1883 30.0502 15.1883 31.628V34.2445L12.6571 36.7757V36.4863C12.6571 33.9525 11.6707 31.5706 9.87867 29.7785L8.68556 30.9715C10.1579 32.4447 10.9688 34.403 10.9688 36.4863V38.4632L5.30972 44.1222L6.50278 45.3153L16.875 34.943V31.628C16.875 30.5015 17.3137 29.4418 18.1102 28.6445L19.3995 27.3552C20.4922 26.2634 21.0938 24.8113 21.0938 23.2664V22.3965C21.0938 22.0522 21.5207 21.8228 21.8092 22.0151C22.9458 22.777 23.625 24.0485 23.625 25.418V25.807L20.4972 28.9347L20.4542 28.9777L21.6472 30.1708L21.6903 30.1278L25.3125 26.5055L29.6038 22.2143C29.7827 22.0362 30.0198 21.9375 30.2729 21.9375C30.7943 21.9375 31.2188 22.3619 31.2188 22.8833C31.2188 23.1365 31.12 23.3735 30.942 23.5525L24.716 29.7785L25.909 30.9715L32.135 24.7455L34.6663 22.2143C34.8452 22.0362 35.0823 21.9375 35.3354 21.9375C35.8568 21.9375 36.2812 22.3619 36.2812 22.8833C36.2812 23.1365 36.1825 23.3735 36.0045 23.5525L34.317 25.24L27.2472 32.3097L28.4403 33.5028L35.51 26.433C35.689 26.255 35.926 26.1562 36.1792 26.1562C36.7006 26.1562 37.125 26.5807 37.125 27.1021C37.125 27.3552 37.0263 27.5923 36.8483 27.7712L35.1608 29.4587L29.7785 34.841L30.9715 36.034L36.3538 30.6517C36.5327 30.4737 36.7698 30.375 37.0229 30.375C37.5443 30.375 37.9688 30.7994 37.9688 31.3208C37.9688 31.574 37.87 31.811 37.692 31.99L30.9252 38.7568C30.2999 39.382 29.5085 39.7895 28.636 39.9347L24.9244 40.5532L13.1684 51.4688H11.8125H10.125C5.93832 51.4688 2.53125 48.0617 2.53125 43.875V32.735C2.53125 26.6355 6.40153 21.1908 12.1627 19.1868L18.538 16.9695C20.5032 16.286 21.8328 14.4644 21.9206 12.3997C23.4461 13.2165 25.0737 13.8653 26.7848 14.3159L27 14.3725L27.2143 14.3159C28.9255 13.8653 30.5539 13.2165 32.0785 12.3997C32.1663 14.4644 33.496 16.286 35.4611 16.9695L38.448 18.0082L37.2659 19.7817L38.6699 20.7175L40.0942 18.581L41.8365 19.1868C42.2668 19.3362 42.6828 19.5109 43.0912 19.6982L38.4345 22.0261L39.1897 23.5355L44.8977 20.6812C48.9265 23.2825 51.4688 27.7932 51.4688 32.735V51.4688Z" fill="#E4772F" stroke="white" stroke-width="0.2"/>
<path id="Vector_2" d="M28.6875 9.28125H30.375C30.375 7.86206 28.8925 6.75 27 6.75C25.1075 6.75 23.625 7.86206 23.625 9.28125H25.3125C25.3125 8.937 25.9698 8.4375 27 8.4375C28.0302 8.4375 28.6875 8.937 28.6875 9.28125Z" fill="#E4772F" stroke="white" stroke-width="0.2"/>
</g>
<defs>
<clipPath id="clip0_109_6606">
<rect width="54" height="54" fill="white"/>
</clipPath>
</defs>
</svg>
