<svg width="54" height="54" viewBox="0 0 54 54" fill="none" xmlns="http://www.w3.org/2000/svg">
<g id="Terapiya" clip-path="url(#clip0_109_6612)">
<g id="Group">
<path id="Vector" d="M41.8492 27.9C38.1844 27.9 35.1568 30.654 34.7113 34.2H24.7492V28.6875C25.6852 28.4544 26.4943 27.8613 27.0046 27.0018L38.6326 7.3359C39.313 6.1884 39.3247 4.8105 38.6641 3.6513C38.0035 2.4921 36.8128 1.8 35.4781 1.8H33.4333C32.9257 0.7398 31.8511 0 30.5992 0C29.1628 0 25.6492 1.1043 25.6492 3.15C25.6492 5.1957 29.1628 6.3 30.5992 6.3C32.1814 6.3 33.4828 5.1228 33.7033 3.6H35.4772C36.1567 3.6 36.7633 3.9528 37.099 4.5432C37.4356 5.1327 37.4293 5.8347 37.0828 6.4197L25.4548 26.0856C25.1155 26.658 24.5152 27 23.8492 27C23.1832 27 22.5829 26.658 22.2373 26.0766L10.2844 6.4188C9.93792 5.8347 9.93162 5.1327 10.2682 4.5432C10.6048 3.9528 11.2114 3.6 11.89 3.6H13.9942C14.2156 5.1228 15.517 6.3 17.0992 6.3C18.5356 6.3 22.0492 5.1957 22.0492 3.15C22.0492 1.1043 18.5356 0 17.0992 0C15.8473 0 14.7727 0.7398 14.2651 1.8H11.89C10.5553 1.8 9.36462 2.493 8.70402 3.6522C8.04342 4.8114 8.05512 6.1884 8.74092 7.3449L20.6947 27.0027C21.2041 27.8622 22.0132 28.4544 22.9492 28.6875V34.2H14.8492C9.39072 34.2 4.94922 38.6415 4.94922 44.1C4.94922 49.5585 9.39072 54 14.8492 54C20.3077 54 24.7492 49.5585 24.7492 44.1V36H34.7113C35.1568 39.546 38.1844 42.3 41.8492 42.3C45.8191 42.3 49.0492 39.0699 49.0492 35.1C49.0492 31.1301 45.8191 27.9 41.8492 27.9ZM30.5992 4.5C29.4886 4.5 27.577 3.6099 27.451 3.15C27.577 2.6901 29.4886 1.8 30.5992 1.8C31.3435 1.8 31.9492 2.4057 31.9492 3.15C31.9492 3.8943 31.3435 4.5 30.5992 4.5ZM17.0992 1.8C18.2098 1.8 20.1214 2.6901 20.2474 3.15C20.1214 3.6099 18.2098 4.5 17.0992 4.5C16.3549 4.5 15.7492 3.8943 15.7492 3.15C15.7492 2.4057 16.3549 1.8 17.0992 1.8ZM22.9492 44.1C22.9492 48.5667 19.315 52.2 14.8492 52.2C10.3834 52.2 6.74922 48.5667 6.74922 44.1C6.74922 39.6333 10.3834 36 14.8492 36H22.9492V44.1ZM41.8492 40.5C38.8711 40.5 36.4492 38.0781 36.4492 35.1C36.4492 32.1219 38.8711 29.7 41.8492 29.7C44.8273 29.7 47.2492 32.1219 47.2492 35.1C47.2492 38.0781 44.8273 40.5 41.8492 40.5Z" fill="#E4772F" stroke="white" stroke-width="0.4"/>
<path id="Vector_2" d="M41.85 31.5C39.8646 31.5 38.25 33.1146 38.25 35.1C38.25 37.0854 39.8646 38.7 41.85 38.7C43.8354 38.7 45.45 37.0854 45.45 35.1C45.45 33.1146 43.8354 31.5 41.85 31.5ZM41.85 36.9C40.8573 36.9 40.05 36.0927 40.05 35.1C40.05 34.1073 40.8573 33.3 41.85 33.3C42.8427 33.3 43.65 34.1073 43.65 35.1C43.65 36.0927 42.8427 36.9 41.85 36.9Z" fill="#E4772F" stroke="white" stroke-width="0.4"/>
</g>
</g>
<defs>
<clipPath id="clip0_109_6612">
<rect width="54" height="54" fill="white"/>
</clipPath>
</defs>
</svg>
