<svg width="54" height="54" viewBox="0 0 54 54" fill="none" xmlns="http://www.w3.org/2000/svg">
<g id="Urologiya" clip-path="url(#clip0_109_6619)">
<g id="Group">
<path id="Vector" d="M21.2668 13.821H17.1716C17.1649 13.821 17.1582 13.8211 17.1515 13.8212C17.2415 13.3338 17.3597 12.8514 17.5061 12.3757L18.8915 7.87312C19.4653 6.00834 19.1296 4.03881 17.9705 2.46944C16.8113 0.900072 15.0275 0 13.0764 0C5.86606 0 0 5.86606 0 13.0764V19.2191C0 26.4295 5.86606 32.2955 13.0764 32.2955C15.0275 32.2955 16.8113 31.3954 17.9703 29.8261C19.1293 28.2567 19.465 26.2871 18.8914 24.4223L17.5059 19.9197C17.3595 19.444 17.2413 18.9616 17.1513 18.4742C17.158 18.4743 17.1647 18.4744 17.1715 18.4744H19.219C19.6558 18.4744 20.0101 18.1202 20.0101 17.6834C20.0101 17.2465 19.6561 16.8925 19.2192 16.8925H17.1716C17.0991 16.8925 17.0288 16.9023 16.9621 16.9205C16.9467 16.6636 16.9389 16.4059 16.9389 16.1478C16.9389 15.8897 16.9467 15.6319 16.9621 15.375C17.0288 15.3932 17.0991 15.403 17.1716 15.403H21.2668C21.7037 15.403 22.0578 15.0489 22.0578 14.612C22.0578 14.1752 21.7037 13.821 21.2668 13.821ZM15.9939 11.9106C15.9625 12.0127 15.9322 12.1153 15.903 12.2182C15.0317 12.1981 14.1829 12.0058 13.377 11.6456C11.9862 11.024 10.8868 9.97884 10.1977 8.6229C9.9999 8.23351 9.52353 8.07826 9.13419 8.27612C8.74482 8.47408 8.58957 8.95028 8.78743 9.33966C9.63036 10.9979 11.0309 12.3298 12.7314 13.0898C13.6337 13.4932 14.5796 13.7266 15.5514 13.7865C15.4651 14.306 15.4073 14.83 15.3784 15.3568H4.88614C4.44929 15.3568 4.09513 15.7109 4.09513 16.1478C4.09513 16.5846 4.44929 16.9388 4.88614 16.9388H15.3785C15.4062 17.4435 15.4604 17.946 15.5409 18.4442C14.573 18.5052 13.6305 18.7384 12.7315 19.1402C11.031 19.9003 9.63045 21.2321 8.78754 22.8903C8.58967 23.2799 8.74482 23.756 9.13428 23.9539C9.52371 24.1516 9.99999 23.9966 10.1979 23.6071C10.887 22.2513 11.9864 21.2061 13.3771 20.5844C14.1774 20.2267 15.0197 20.0346 15.8847 20.0122C15.9194 20.1368 15.9558 20.2612 15.9939 20.3848L17.3794 24.8876C17.8039 26.2675 17.5555 27.7249 16.6978 28.8862C15.8401 30.0476 14.5201 30.7136 13.0764 30.7136C6.73839 30.7136 1.58203 25.5572 1.58203 19.2192V13.0765C1.58203 6.73839 6.73839 1.58203 13.0764 1.58203C14.5201 1.58203 15.8401 2.24806 16.6978 3.40938C17.5555 4.57069 17.8039 6.02816 17.3794 7.40801L15.9939 11.9106Z" fill="#E4772F" stroke="white" stroke-width="0.2"/>
<path id="Vector_2" d="M32.1203 40.3436C31.6834 40.3436 31.3292 40.6978 31.3292 41.1346V51.6751C31.3292 52.0856 30.9953 52.4197 30.5846 52.4197C30.1738 52.4197 29.8398 52.0857 29.8398 51.6751V32.5303C29.8398 32.0934 29.4857 31.7393 29.0488 31.7393C28.612 31.7393 28.2578 32.0934 28.2578 32.5303V51.6751C28.2578 52.9579 29.3015 54.0018 30.5846 54.0018C31.8675 54.0018 32.9113 52.9581 32.9113 51.6751V41.1346C32.9113 40.6978 32.5571 40.3436 32.1203 40.3436Z" fill="#E4772F" stroke="white" stroke-width="0.2"/>
<path id="Vector_3" d="M29.0488 19.4521C28.612 19.4521 28.2578 19.8063 28.2578 20.2432V29.4573C28.2578 29.8941 28.612 30.2483 29.0488 30.2483C29.4857 30.2483 29.8398 29.8941 29.8398 29.4573V20.2432C29.8398 19.8063 29.4857 19.4521 29.0488 19.4521Z" fill="#E4772F" stroke="white" stroke-width="0.2"/>
<path id="Vector_4" d="M32.1191 19.4521C31.6823 19.4521 31.3281 19.8063 31.3281 20.2432V37.9689C31.3281 38.4058 31.6823 38.7599 32.1191 38.7599C32.556 38.7599 32.9101 38.4058 32.9101 37.9689V20.2432C32.9101 19.8063 32.556 19.4521 32.1191 19.4521Z" fill="#E4772F" stroke="white" stroke-width="0.2"/>
<path id="Vector_5" d="M40.9232 0C38.9721 0 37.1883 0.900072 36.0294 2.46955C34.8703 4.03892 34.5346 6.00854 35.1083 7.87323L36.4937 12.3758C36.6401 12.8514 36.7584 13.3338 36.8482 13.8211H26.488C23.5114 13.8211 21.0898 16.2427 21.0898 19.2192V51.6732C21.0898 52.9562 22.1336 54 23.4166 54C24.6996 54 25.7433 52.9563 25.7433 51.6732V19.2192C25.7433 18.8086 26.0774 18.4745 26.488 18.4745H36.8483C36.7584 18.9618 36.6401 19.4443 36.4938 19.9199L35.1084 24.4224C34.5347 26.2872 34.8704 28.2567 36.0295 29.8262C37.1886 31.3956 38.9723 32.2956 40.9233 32.2956C48.1337 32.2956 53.9997 26.4296 53.9997 19.2192V13.0765C53.9996 5.86606 48.1336 0 40.9232 0ZM26.4877 16.8925C25.2048 16.8925 24.161 17.9362 24.161 19.2192V51.6732C24.161 52.0838 23.8269 52.418 23.4163 52.418C23.0056 52.418 22.6716 52.084 22.6716 51.6732V19.2192C22.6716 17.115 24.3834 15.4031 26.4876 15.4031H37.0392C37.0536 15.6508 37.0608 15.8991 37.0608 16.1479C37.0608 16.3966 37.0537 16.6449 37.0392 16.8925H26.4877ZM52.4176 19.2192C52.4176 25.5572 47.2612 30.7136 40.9232 30.7136C39.4795 30.7136 38.1595 30.0476 37.3018 28.8862C36.4442 27.7249 36.1957 26.2675 36.6203 24.8876L38.0057 20.3851C38.0438 20.2613 38.0803 20.137 38.1149 20.0125C38.9798 20.0348 39.8224 20.2269 40.6225 20.5846C42.0133 21.2062 43.1127 22.2514 43.8018 23.6074C43.9996 23.9967 44.4759 24.1519 44.8653 23.9541C45.2547 23.7561 45.4099 23.2799 45.2121 22.8906C44.3692 21.2323 42.9686 19.9004 41.2681 19.1404C40.3691 18.7386 39.4267 18.5054 38.4587 18.4444C38.5414 17.9327 38.5964 17.4164 38.6234 16.8979C38.7026 16.9245 38.7874 16.939 38.8756 16.939H49.1135C49.5503 16.939 49.9045 16.5848 49.9045 16.148C49.9045 15.7111 49.5503 15.357 49.1135 15.357H38.8756C38.7874 15.357 38.7026 15.3714 38.6234 15.3981C38.5952 14.8576 38.5368 14.3197 38.4481 13.7867C39.4198 13.7268 40.3659 13.4934 41.2681 13.0901C42.9686 12.33 44.3692 10.9983 45.2121 9.34002C45.4099 8.95048 45.2548 8.47429 44.8653 8.27644C44.4758 8.07857 43.9996 8.23372 43.8018 8.62321C43.1127 9.97902 42.0132 11.0243 40.6225 11.6459C39.8165 12.0062 38.9679 12.1984 38.0965 12.2185C38.0674 12.1157 38.0371 12.0132 38.0056 11.9109L36.6202 7.40832C36.1955 6.02848 36.444 4.57101 37.3017 3.40969C38.1595 2.24806 39.4795 1.58203 40.9232 1.58203C47.2612 1.58203 52.4176 6.73839 52.4176 13.0764V19.2192Z" fill="#E4772F" stroke="white" stroke-width="0.2"/>
</g>
</g>
<defs>
<clipPath id="clip0_109_6619">
<rect width="54" height="54" fill="white"/>
</clipPath>
</defs>
</svg>
