<svg width="54" height="54" viewBox="0 0 54 54" fill="none" xmlns="http://www.w3.org/2000/svg">
<g id="Group">
<path id="Vector" d="M20.6719 47.3519C20.0897 47.3519 19.6172 47.8244 19.6172 48.4066C19.6172 48.9888 20.0897 49.4613 20.6719 49.4613C21.254 49.4613 21.7265 48.9888 21.7265 48.4066C21.7265 47.8244 21.254 47.3519 20.6719 47.3519Z" fill="#E4772F" stroke="white" stroke-width="0.6"/>
<path id="Vector_2" d="M35.4376 42.8168H1.05469C0.47229 42.8168 0 43.289 0 43.8715V52.9418C0 53.5243 0.47229 53.9965 1.05469 53.9965H35.4376C36.02 53.9965 36.4923 53.5243 36.4923 52.9418V43.8715C36.4923 43.289 36.02 42.8168 35.4376 42.8168ZM34.3829 51.8872H2.10938V44.9262H34.3829V51.8872Z" fill="#E4772F" stroke="white" stroke-width="0.6"/>
<path id="Vector_3" d="M16.4532 47.3519H5.27344C4.69104 47.3519 4.21875 47.8241 4.21875 48.4066C4.21875 48.9891 4.69104 49.4613 5.27344 49.4613H16.4532C17.0356 49.4613 17.5079 48.9891 17.5079 48.4066C17.5079 47.8241 17.0356 47.3519 16.4532 47.3519Z" fill="#E4772F" stroke="white" stroke-width="0.6"/>
<path id="Vector_4" d="M51.7085 1.45945C50.0663 0.064411 47.691 -0.376449 45.6577 0.336626C43.8882 0.956781 42.5324 2.22779 41.84 3.91624C41.429 4.92062 40.7586 5.8343 39.8807 6.59526C39.3582 6.23424 38.7315 6.03269 38.0795 6.03269C37.4267 6.03269 36.799 6.23086 36.2657 6.60539C35.1378 7.39566 34.6839 8.79397 35.0349 10.0507L20.4286 20.4597C18.8215 21.5851 18.2393 23.6366 18.8968 25.3945L14.9732 28.142C14.7677 28.2327 14.5924 28.3873 14.4787 28.5898C13.9277 29.5709 11.1797 34.5631 11.1797 36.489C11.1797 38.8152 13.0722 40.7077 15.3984 40.7077C17.7247 40.7077 19.6172 38.8152 19.6172 36.489C19.6172 34.9027 17.7537 31.2383 16.7884 29.4462L20.1058 27.1231C20.6725 27.6094 21.3608 27.9374 22.1154 28.0706C22.3626 28.1143 22.61 28.1358 22.856 28.1358C23.7145 28.1358 24.5521 27.8729 25.2749 27.3663L39.8798 16.959C40.4085 17.3341 41.0472 17.5446 41.7128 17.5446C42.3639 17.5446 42.9904 17.3472 43.5256 16.9731C44.6368 16.1946 45.0944 14.8263 44.7725 13.5843C45.1509 13.3786 45.5467 13.2037 45.9572 13.0631C46.6366 12.8293 47.3476 12.6902 48.0711 12.6493C49.2333 12.5823 50.3502 12.1944 51.3005 11.528C52.9184 10.3951 53.8998 8.61267 53.9928 6.63776C54.0857 4.66064 53.2533 2.77338 51.7085 1.45945ZM17.5077 36.4891C17.5077 37.652 16.5614 38.5985 15.3983 38.5985C14.2352 38.5985 13.2889 37.6522 13.2889 36.4891C13.2889 35.7721 14.2689 33.5248 15.3984 31.3335C16.5278 33.5242 17.5077 35.7713 17.5077 36.4891ZM24.0574 25.6437C23.5959 25.967 23.0363 26.091 22.4817 25.9934C21.9269 25.8954 21.4435 25.5873 21.1203 25.1253C20.4534 24.1727 20.6858 22.8548 21.6457 22.1825L36.099 11.8826L38.5192 15.3385L24.0574 25.6437ZM42.3162 15.2448C42.1381 15.3694 41.9294 15.4354 41.7128 15.4354C41.3678 15.4354 41.0442 15.2672 40.847 14.9854L37.2168 9.80172C36.8834 9.32553 36.9995 8.66678 37.4768 8.33254C37.6542 8.20798 37.8624 8.14217 38.0794 8.14217C38.4243 8.14217 38.7479 8.31019 38.9449 8.59168C38.945 8.59179 38.945 8.5919 38.945 8.59199L42.5743 13.7758C42.5744 13.7759 42.5744 13.776 42.5745 13.7761C42.9082 14.2524 42.7918 14.9116 42.3162 15.2448ZM51.8858 6.53863C51.8237 7.85604 51.1695 9.04464 50.0901 9.80037C49.4602 10.2421 48.7201 10.4989 47.9509 10.5431C47.0352 10.595 46.1337 10.7717 45.272 11.0678C44.7381 11.251 44.2226 11.479 43.7305 11.7491L41.2477 8.20261C42.3824 7.2228 43.2531 6.03301 43.7919 4.7158C44.2522 3.59351 45.1626 2.74523 46.3556 2.32725C47.6957 1.85728 49.2608 2.14784 50.3426 3.06659C51.3855 3.95358 51.9479 5.2191 51.8858 6.53863Z" fill="#E4772F" stroke="white" stroke-width="0.6"/>
</g>
</svg>
