<svg width="16" height="16" viewBox="0 0 16 16" fill="none" xmlns="http://www.w3.org/2000/svg">
<g id="Property 1=phone">
<g id="phone">
<path d="M12.1644 10.5843C11.6416 10.0683 10.9891 10.0683 10.4697 10.5843C10.0734 10.9772 9.67722 11.3701 9.28767 11.7696C9.18112 11.8795 9.09122 11.9028 8.96137 11.8295C8.705 11.6897 8.43198 11.5765 8.18559 11.4233C7.0369 10.7009 6.07467 9.77194 5.22231 8.72649C4.79946 8.2071 4.42322 7.65108 4.16019 7.02515C4.10692 6.89863 4.11691 6.81539 4.22012 6.71218C4.61634 6.32929 5.00256 5.93642 5.39212 5.54354C5.93483 4.99751 5.93483 4.35826 5.38879 3.8089C5.07914 3.49594 4.76949 3.18963 4.45985 2.87666C4.14021 2.55703 3.82391 2.23408 3.50094 1.91778C2.97821 1.40837 2.32562 1.40837 1.80621 1.92111C1.40667 2.31398 1.02377 2.71685 0.61757 3.10306C0.241333 3.45931 0.0515499 3.89547 0.0115955 4.40487C-0.0516656 5.2339 0.151436 6.01632 0.437775 6.77877C1.02377 8.35692 1.91609 9.75862 2.99818 11.0438C4.45985 12.7818 6.20452 14.1568 8.24553 15.149C9.16448 15.5951 10.1167 15.9381 11.1522 15.9947C11.8647 16.0346 12.484 15.8548 12.9801 15.2988C13.3197 14.9193 13.7026 14.573 14.0622 14.2101C14.5949 13.6707 14.5983 13.0181 14.0689 12.4854C13.4363 11.8495 12.8003 11.2169 12.1644 10.5843Z" fill="black" fill-opacity="0.4"/>
<path d="M12.1644 10.5843C11.6416 10.0683 10.9891 10.0683 10.4697 10.5843C10.0734 10.9772 9.67722 11.3701 9.28767 11.7696C9.18112 11.8795 9.09122 11.9028 8.96137 11.8295C8.705 11.6897 8.43198 11.5765 8.18559 11.4233C7.0369 10.7009 6.07467 9.77194 5.22231 8.72649C4.79946 8.2071 4.42322 7.65108 4.16019 7.02515C4.10692 6.89863 4.11691 6.81539 4.22012 6.71218C4.61634 6.32929 5.00256 5.93642 5.39212 5.54354C5.93483 4.99751 5.93483 4.35826 5.38879 3.8089C5.07914 3.49594 4.76949 3.18963 4.45985 2.87666C4.14021 2.55703 3.82391 2.23408 3.50094 1.91778C2.97821 1.40837 2.32562 1.40837 1.80621 1.92111C1.40667 2.31398 1.02377 2.71685 0.61757 3.10306C0.241333 3.45931 0.0515499 3.89547 0.0115955 4.40487C-0.0516656 5.2339 0.151436 6.01632 0.437775 6.77877C1.02377 8.35692 1.91609 9.75862 2.99818 11.0438C4.45985 12.7818 6.20452 14.1568 8.24553 15.149C9.16448 15.5951 10.1167 15.9381 11.1522 15.9947C11.8647 16.0346 12.484 15.8548 12.9801 15.2988C13.3197 14.9193 13.7026 14.573 14.0622 14.2101C14.5949 13.6707 14.5983 13.0181 14.0689 12.4854C13.4363 11.8495 12.8003 11.2169 12.1644 10.5843Z" fill="#009344"/>
<path d="M11.5284 7.93073L12.757 7.72098C12.5639 6.5923 12.0312 5.57016 11.2221 4.75777C10.3664 3.90211 9.28434 3.36274 8.09237 3.19627L7.91923 4.43149C8.84151 4.56134 9.68055 4.97752 10.3431 5.64008C10.9691 6.26601 11.3786 7.05842 11.5284 7.93073Z" fill="black" fill-opacity="0.4"/>
<path d="M11.5284 7.93073L12.757 7.72098C12.5639 6.5923 12.0312 5.57016 11.2221 4.75777C10.3664 3.90211 9.28434 3.36274 8.09237 3.19627L7.91923 4.43149C8.84151 4.56134 9.68055 4.97752 10.3431 5.64008C10.9691 6.26601 11.3786 7.05842 11.5284 7.93073Z" fill="#009344"/>
<path d="M13.4496 2.59031C12.0312 1.17196 10.2366 0.276344 8.25551 0L8.08238 1.23522C9.79376 1.47494 11.3453 2.2507 12.5706 3.47261C13.7326 4.63458 14.4951 6.10287 14.7714 7.71765L16 7.50789C15.677 5.63675 14.7947 3.93873 13.4496 2.59031Z" fill="black" fill-opacity="0.4"/>
<path d="M13.4496 2.59031C12.0312 1.17196 10.2366 0.276344 8.25551 0L8.08238 1.23522C9.79376 1.47494 11.3453 2.2507 12.5706 3.47261C13.7326 4.63458 14.4951 6.10287 14.7714 7.71765L16 7.50789C15.677 5.63675 14.7947 3.93873 13.4496 2.59031Z" fill="#009344"/>
</g>
</g>
</svg>
