<svg width="34" height="34" viewBox="0 0 34 34" fill="none" xmlns="http://www.w3.org/2000/svg">
<g clip-path="url(#clip0_550_7065)">
<path d="M28.7499 21.25C29.3022 21.25 29.7499 21.6977 29.7499 22.25V25.5H32.9999C33.5522 25.5 33.9999 25.9477 33.9999 26.5V27.3333C33.9999 27.8856 33.5522 28.3333 32.9999 28.3333H29.7499V31.5833C29.7499 32.1356 29.3022 32.5833 28.7499 32.5833H27.9166C27.3643 32.5833 26.9166 32.1356 26.9166 31.5833V28.3333H23.6666C23.1143 28.3333 22.6666 27.8856 22.6666 27.3333V26.5C22.6666 25.9477 23.1143 25.5 23.6666 25.5H26.9166V22.25C26.9166 21.6977 27.3643 21.25 27.9166 21.25H28.7499ZM29.7612 4.25C30.5376 4.25 31.1666 4.88042 31.1666 5.65675V17.4167C31.1666 17.969 30.7189 18.4167 30.1666 18.4167H29.3333C28.781 18.4167 28.3333 17.969 28.3333 17.4167V7.08333H5.66659V26.9153L19.1261 13.457C19.5167 13.0665 20.1498 13.0666 20.5403 13.4571L23.7904 16.7071C23.9779 16.8946 24.0833 17.149 24.0833 17.4142V18.5935C24.0833 19.4844 23.0061 19.9306 22.3761 19.3006L19.8333 16.7578L9.6715 26.9167H18.8333C19.3855 26.9167 19.8333 27.3644 19.8333 27.9167V28.75C19.8333 29.3023 19.3855 29.75 18.8333 29.75H4.23859C3.86574 29.7496 3.50829 29.6012 3.24478 29.3375C2.98127 29.0737 2.83325 28.7161 2.83325 28.3432V5.65675C2.83584 5.2847 2.98469 4.92861 3.24765 4.66539C3.5106 4.40218 3.86654 4.25297 4.23859 4.25H29.7612ZM11.3333 9.91667C12.0847 9.91667 12.8054 10.2152 13.3367 10.7465C13.8681 11.2779 14.1666 11.9986 14.1666 12.75C14.1666 13.5014 13.8681 14.2221 13.3367 14.7535C12.8054 15.2848 12.0847 15.5833 11.3333 15.5833C10.5818 15.5833 9.86114 15.2848 9.32978 14.7535C8.79843 14.2221 8.49992 13.5014 8.49992 12.75C8.49992 11.9986 8.79843 11.2779 9.32978 10.7465C9.86114 10.2152 10.5818 9.91667 11.3333 9.91667Z" fill="#909CB5"/>
</g>
<defs>
<clipPath id="clip0_550_7065">
<rect width="34" height="34" fill="white"/>
</clipPath>
</defs>
</svg>
