<svg width="14" height="20" viewBox="0 0 14 20" fill="none" xmlns="http://www.w3.org/2000/svg">
<path d="M2.33333 8.83366H7.58333C8.35688 8.83366 9.09875 8.52637 9.64573 7.97939C10.1927 7.43241 10.5 6.69054 10.5 5.91699C10.5 5.14344 10.1927 4.40158 9.64573 3.8546C9.09875 3.30762 8.35688 3.00033 7.58333 3.00033H2.33333V8.83366ZM14 14.0837C14 14.7731 13.8642 15.4558 13.6004 16.0927C13.3365 16.7297 12.9498 17.3085 12.4623 17.796C11.9748 18.2835 11.396 18.6702 10.7591 18.934C10.1221 19.1979 9.43944 19.3337 8.75 19.3337H0V0.666992H7.58333C8.61112 0.667035 9.61628 0.968754 10.4742 1.53473C11.3321 2.10071 12.005 2.90606 12.4095 3.85091C12.814 4.79576 12.9322 5.83854 12.7495 6.84997C12.5669 7.86139 12.0914 8.79696 11.382 9.54066C12.1784 10.0018 12.8396 10.6644 13.2991 11.4617C13.7586 12.2591 14.0003 13.1633 14 14.0837ZM2.33333 11.167V17.0003H8.75C9.52355 17.0003 10.2654 16.693 10.8124 16.1461C11.3594 15.5991 11.6667 14.8572 11.6667 14.0837C11.6667 13.3101 11.3594 12.5682 10.8124 12.0213C10.2654 11.4743 9.52355 11.167 8.75 11.167H2.33333Z" fill="#292929"/>
</svg>
