<svg width="30" height="32" viewBox="0 0 30 32" fill="none" xmlns="http://www.w3.org/2000/svg">
<g clip-path="url(#clip0_550_7144)" filter="url(#filter0_d_550_7144)">
<path d="M10.3333 4.66634H25.5V6.99967H10.3333V4.66634ZM6.25 7.58301C5.78587 7.58301 5.34075 7.39863 5.01256 7.07044C4.68437 6.74226 4.5 6.29714 4.5 5.83301C4.5 5.36888 4.68437 4.92376 5.01256 4.59557C5.34075 4.26738 5.78587 4.08301 6.25 4.08301C6.71413 4.08301 7.15925 4.26738 7.48744 4.59557C7.81563 4.92376 8 5.36888 8 5.83301C8 6.29714 7.81563 6.74226 7.48744 7.07044C7.15925 7.39863 6.71413 7.58301 6.25 7.58301ZM6.25 15.7497C5.78587 15.7497 5.34075 15.5653 5.01256 15.2371C4.68437 14.9089 4.5 14.4638 4.5 13.9997C4.5 13.5355 4.68437 13.0904 5.01256 12.7622C5.34075 12.434 5.78587 12.2497 6.25 12.2497C6.71413 12.2497 7.15925 12.434 7.48744 12.7622C7.81563 13.0904 8 13.5355 8 13.9997C8 14.4638 7.81563 14.9089 7.48744 15.2371C7.15925 15.5653 6.71413 15.7497 6.25 15.7497ZM6.25 23.7997C5.78587 23.7997 5.34075 23.6153 5.01256 23.2871C4.68437 22.9589 4.5 22.5138 4.5 22.0497C4.5 21.5855 4.68437 21.1404 5.01256 20.8122C5.34075 20.484 5.78587 20.2997 6.25 20.2997C6.71413 20.2997 7.15925 20.484 7.48744 20.8122C7.81563 21.1404 8 21.5855 8 22.0497C8 22.5138 7.81563 22.9589 7.48744 23.2871C7.15925 23.6153 6.71413 23.7997 6.25 23.7997ZM10.3333 12.833H25.5V15.1663H10.3333V12.833ZM10.3333 20.9997H25.5V23.333H10.3333V20.9997Z" fill="#292929"/>
</g>
<defs>
<filter id="filter0_d_550_7144" x="-3" y="0" width="36" height="36" filterUnits="userSpaceOnUse" color-interpolation-filters="sRGB">
<feFlood flood-opacity="0" result="BackgroundImageFix"/>
<feColorMatrix in="SourceAlpha" type="matrix" values="0 0 0 0 0 0 0 0 0 0 0 0 0 0 0 0 0 0 127 0" result="hardAlpha"/>
<feOffset dy="4"/>
<feGaussianBlur stdDeviation="2"/>
<feComposite in2="hardAlpha" operator="out"/>
<feColorMatrix type="matrix" values="0 0 0 0 0 0 0 0 0 0 0 0 0 0 0 0 0 0 0.25 0"/>
<feBlend mode="normal" in2="BackgroundImageFix" result="effect1_dropShadow_550_7144"/>
<feBlend mode="normal" in="SourceGraphic" in2="effect1_dropShadow_550_7144" result="shape"/>
</filter>
<clipPath id="clip0_550_7144">
<rect width="28" height="28" fill="white" transform="translate(1)"/>
</clipPath>
</defs>
</svg>
