<svg width="22" height="20" viewBox="0 0 22 20" fill="none" xmlns="http://www.w3.org/2000/svg">
<path d="M6.33333 0.666341H21.5V2.99967H6.33333V0.666341ZM2.25 3.58301C1.78587 3.58301 1.34075 3.39863 1.01256 3.07044C0.684375 2.74226 0.5 2.29714 0.5 1.83301C0.5 1.36888 0.684375 0.92376 1.01256 0.595571C1.34075 0.267382 1.78587 0.0830078 2.25 0.0830078C2.71413 0.0830078 3.15925 0.267382 3.48744 0.595571C3.81563 0.92376 4 1.36888 4 1.83301C4 2.29714 3.81563 2.74226 3.48744 3.07044C3.15925 3.39863 2.71413 3.58301 2.25 3.58301ZM2.25 11.7497C1.78587 11.7497 1.34075 11.5653 1.01256 11.2371C0.684375 10.9089 0.5 10.4638 0.5 9.99967C0.5 9.53555 0.684375 9.09043 1.01256 8.76224C1.34075 8.43405 1.78587 8.24967 2.25 8.24967C2.71413 8.24967 3.15925 8.43405 3.48744 8.76224C3.81563 9.09043 4 9.53555 4 9.99967C4 10.4638 3.81563 10.9089 3.48744 11.2371C3.15925 11.5653 2.71413 11.7497 2.25 11.7497ZM2.25 19.7997C1.78587 19.7997 1.34075 19.6153 1.01256 19.2871C0.684375 18.9589 0.5 18.5138 0.5 18.0497C0.5 17.5855 0.684375 17.1404 1.01256 16.8122C1.34075 16.484 1.78587 16.2997 2.25 16.2997C2.71413 16.2997 3.15925 16.484 3.48744 16.8122C3.81563 17.1404 4 17.5855 4 18.0497C4 18.5138 3.81563 18.9589 3.48744 19.2871C3.15925 19.6153 2.71413 19.7997 2.25 19.7997ZM6.33333 8.83301H21.5V11.1663H6.33333V8.83301ZM6.33333 16.9997H21.5V19.333H6.33333V16.9997Z" fill="#292929"/>
</svg>
