<svg width="36" height="36" viewBox="0 0 36 36" fill="none" xmlns="http://www.w3.org/2000/svg">
<circle cx="18" cy="18" r="18" fill="url(#paint0_radial_482_5557)"/>
<path d="M10.6665 14.3335H25.3332" stroke="#959595" stroke-width="1.5" stroke-linecap="round" stroke-linejoin="round"/>
<path d="M21.6665 9.75V11.5833" stroke="#959595" stroke-width="1.5" stroke-linecap="round" stroke-linejoin="round"/>
<path d="M14.3335 9.75V11.5833" stroke="#959595" stroke-width="1.5" stroke-linecap="round" stroke-linejoin="round"/>
<path d="M9.75 12.4998C9.75 11.4873 10.5708 10.6665 11.5833 10.6665H24.4167C25.4292 10.6665 26.25 11.4873 26.25 12.4998V24.4165C26.25 25.429 25.4292 26.2498 24.4167 26.2498H11.5833C10.5708 26.2498 9.75 25.429 9.75 24.4165V12.4998Z" stroke="#959595" stroke-width="1.5" stroke-linecap="round" stroke-linejoin="round"/>
<path d="M21.6665 22.125H21.6685V22.127H21.6665V22.125Z" stroke="#959595" stroke-width="2" stroke-linecap="round" stroke-linejoin="round"/>
<path d="M18 22.125H18.002V22.127H18V22.125Z" stroke="#959595" stroke-width="2" stroke-linecap="round" stroke-linejoin="round"/>
<path d="M14.3335 22.125H14.3355V22.127H14.3335V22.125Z" stroke="#959595" stroke-width="2" stroke-linecap="round" stroke-linejoin="round"/>
<path d="M21.6665 18.4585H21.6685V18.4605H21.6665V18.4585Z" stroke="#959595" stroke-width="2" stroke-linecap="round" stroke-linejoin="round"/>
<path d="M18 18.4585H18.002V18.4605H18V18.4585Z" stroke="#959595" stroke-width="2" stroke-linecap="round" stroke-linejoin="round"/>
<path d="M14.3335 18.4585H14.3355V18.4605H14.3335V18.4585Z" stroke="#959595" stroke-width="2" stroke-linecap="round" stroke-linejoin="round"/>
<defs>
<radialGradient id="paint0_radial_482_5557" cx="0" cy="0" r="1" gradientUnits="userSpaceOnUse" gradientTransform="translate(18.0564 19.9083) rotate(-45.4851) scale(22.1329 20.3429)">
<stop stop-color="#FDFDFD"/>
<stop offset="1" stop-color="#E4E7EE"/>
</radialGradient>
</defs>
</svg>
