<svg width="24" height="24" viewBox="0 0 24 24" fill="none" xmlns="http://www.w3.org/2000/svg">
<rect width="24" height="24" fill="#9B9690"/>
<g id="Icons">
<rect width="792" height="557" transform="translate(-520 -275)" fill="#030303"/>
<g id="Component 48">
<rect x="-464.5" y="-25.5" width="626" height="115" rx="4.5" stroke="#9747FF" stroke-dasharray="10 5"/>
<g id="Property 1=Basic, Property 2=Calendar_Days">
<path id="Vector" d="M4 8H20" stroke="#959595" stroke-width="1.5" stroke-linecap="round" stroke-linejoin="round"/>
<path id="Vector_2" d="M16 3V5" stroke="#959595" stroke-width="1.5" stroke-linecap="round" stroke-linejoin="round"/>
<path id="Vector_3" d="M8 3V5" stroke="#959595" stroke-width="1.5" stroke-linecap="round" stroke-linejoin="round"/>
<path id="Vector_4" d="M3 6C3 4.89543 3.89543 4 5 4H19C20.1046 4 21 4.89543 21 6V19C21 20.1046 20.1046 21 19 21H5C3.89543 21 3 20.1046 3 19V6Z" stroke="#959595" stroke-width="1.5" stroke-linecap="round" stroke-linejoin="round"/>
<path id="Vector_5" d="M16 16.5H16.002V16.502H16V16.5Z" stroke="#959595" stroke-width="2" stroke-linecap="round" stroke-linejoin="round"/>
<path id="Vector_6" d="M12 16.5H12.002V16.502H12V16.5Z" stroke="#959595" stroke-width="2" stroke-linecap="round" stroke-linejoin="round"/>
<path id="Vector_7" d="M8 16.5H8.002V16.502H8V16.5Z" stroke="#959595" stroke-width="2" stroke-linecap="round" stroke-linejoin="round"/>
<path id="Vector_8" d="M16 12.5H16.002V12.502H16V12.5Z" stroke="#959595" stroke-width="2" stroke-linecap="round" stroke-linejoin="round"/>
<path id="Vector_9" d="M12 12.5H12.002V12.502H12V12.5Z" stroke="#959595" stroke-width="2" stroke-linecap="round" stroke-linejoin="round"/>
<path id="Vector_10" d="M8 12.5H8.002V12.502H8V12.5Z" stroke="#959595" stroke-width="2" stroke-linecap="round" stroke-linejoin="round"/>
</g>
</g>
</g>
</svg>
