<svg width="50" height="50" viewBox="0 0 50 50" fill="none" xmlns="http://www.w3.org/2000/svg">
<path d="M17.8737 17.8737C18.2886 17.4588 18.9614 17.4588 19.3763 17.8737L25 23.4974L30.6237 17.8737C31.0386 17.4588 31.7114 17.4588 32.1263 17.8737C32.5412 18.2886 32.5412 18.9614 32.1263 19.3763L26.5026 25L32.1263 30.6237C32.5412 31.0386 32.5412 31.7114 32.1263 32.1263C31.7114 32.5412 31.0386 32.5412 30.6237 32.1263L25 26.5026L19.3763 32.1263C18.9614 32.5412 18.2886 32.5412 17.8737 32.1263C17.4588 31.7114 17.4588 31.0386 17.8737 30.6237L23.4974 25L17.8737 19.3763C17.4588 18.9614 17.4588 18.2886 17.8737 17.8737Z" fill="#A2A2A2"/>
<circle cx="25" cy="25" r="24.25" stroke="#959595" stroke-width="1.5"/>
</svg>
