<svg width="110" height="100" viewBox="0 0 110 100" fill="none" xmlns="http://www.w3.org/2000/svg">
<path d="M55 93.7629C24.6263 93.7629 0 72.7734 0 46.8814C0 20.9895 24.6263 0 55 0C85.3738 0 110 20.9895 110 46.8814C110 58.6688 104.892 69.4515 96.4563 77.6892C97.1231 84.4937 99.3231 91.9546 101.757 97.5536C102.3 98.7993 101.248 100.192 99.88 99.978C84.37 97.5 75.1506 93.6959 71.1425 91.7135C65.8778 93.0862 60.45 93.7753 55 93.7629ZM55 33.4399C43.56 21.9807 14.9531 42.0326 55 67.8106C95.0469 42.0259 66.44 21.9807 55 33.4399Z" fill="url(#paint0_linear_16401_3124)"/>
<defs>
<linearGradient id="paint0_linear_16401_3124" x1="46.9512" y1="-3.41893e-08" x2="47.9268" y2="99.9912" gradientUnits="userSpaceOnUse">
<stop stop-color="#0CBB6B"/>
<stop offset="1" stop-color="#027B44"/>
</linearGradient>
</defs>
</svg>
