<svg width="24" height="24" viewBox="0 0 24 24" fill="none" xmlns="http://www.w3.org/2000/svg">
<path d="M9 17H19" stroke="#959595" stroke-width="1.5" stroke-linecap="round" stroke-linejoin="round"/>
<path d="M9 12H19" stroke="#959595" stroke-width="1.5" stroke-linecap="round" stroke-linejoin="round"/>
<path d="M9 7H19" stroke="#959595" stroke-width="1.5" stroke-linecap="round" stroke-linejoin="round"/>
<path d="M4 6.5L5 7.5L6.5 6" stroke="#959595" stroke-linecap="round"/>
<path d="M6.2 12.1C6.2 12.7075 5.70751 13.2 5.1 13.2C4.49249 13.2 4 12.7075 4 12.1C4 11.4925 4.49249 11 5.1 11C5.70751 11 6.2 11.4925 6.2 12.1ZM4.71323 12.1C4.71323 12.3136 4.88639 12.4868 5.1 12.4868C5.31361 12.4868 5.48677 12.3136 5.48677 12.1C5.48677 11.8864 5.31361 11.7132 5.1 11.7132C4.88639 11.7132 4.71323 11.8864 4.71323 12.1Z" fill="#959595"/>
<path d="M6.2 17.1C6.2 17.7075 5.70751 18.2 5.1 18.2C4.49249 18.2 4 17.7075 4 17.1C4 16.4925 4.49249 16 5.1 16C5.70751 16 6.2 16.4925 6.2 17.1ZM4.71323 17.1C4.71323 17.3136 4.88639 17.4868 5.1 17.4868C5.31361 17.4868 5.48677 17.3136 5.48677 17.1C5.48677 16.8864 5.31361 16.7132 5.1 16.7132C4.88639 16.7132 4.71323 16.8864 4.71323 17.1Z" fill="#959595"/>
</svg>
