<svg width="36" height="36" viewBox="0 0 36 36" fill="none" xmlns="http://www.w3.org/2000/svg">
<circle cx="18" cy="18" r="18" fill="url(#paint0_radial_482_5544)"/>
<path d="M15.25 22.5835H24.4167" stroke="#959595" stroke-width="1.5" stroke-linecap="round" stroke-linejoin="round"/>
<path d="M15.25 18H24.4167" stroke="#959595" stroke-width="1.5" stroke-linecap="round" stroke-linejoin="round"/>
<path d="M15.25 13.4165H24.4167" stroke="#959595" stroke-width="1.5" stroke-linecap="round" stroke-linejoin="round"/>
<path d="M10.6665 12.9583L11.5832 13.875L12.9582 12.5" stroke="#959595" stroke-linecap="round"/>
<path d="M12.6832 18.0918C12.6832 18.6487 12.2317 19.1002 11.6748 19.1002C11.118 19.1002 10.6665 18.6487 10.6665 18.0918C10.6665 17.5349 11.118 17.0835 11.6748 17.0835C12.2317 17.0835 12.6832 17.5349 12.6832 18.0918ZM11.3203 18.0918C11.3203 18.2876 11.479 18.4464 11.6748 18.4464C11.8706 18.4464 12.0294 18.2876 12.0294 18.0918C12.0294 17.896 11.8706 17.7373 11.6748 17.7373C11.479 17.7373 11.3203 17.896 11.3203 18.0918Z" fill="#959595"/>
<path d="M12.6832 22.6748C12.6832 23.2317 12.2317 23.6832 11.6748 23.6832C11.118 23.6832 10.6665 23.2317 10.6665 22.6748C10.6665 22.1179 11.118 21.6665 11.6748 21.6665C12.2317 21.6665 12.6832 22.1179 12.6832 22.6748ZM11.3203 22.6748C11.3203 22.8706 11.479 23.0294 11.6748 23.0294C11.8706 23.0294 12.0294 22.8706 12.0294 22.6748C12.0294 22.479 11.8706 22.3203 11.6748 22.3203C11.479 22.3203 11.3203 22.479 11.3203 22.6748Z" fill="#959595"/>
<defs>
<radialGradient id="paint0_radial_482_5544" cx="0" cy="0" r="1" gradientUnits="userSpaceOnUse" gradientTransform="translate(18.0564 19.9083) rotate(-45.4851) scale(22.1329 20.3429)">
<stop stop-color="#FDFDFD"/>
<stop offset="1" stop-color="#E4E7EE"/>
</radialGradient>
</defs>
</svg>
