<svg width="18" height="18" viewBox="0 0 18 18" fill="none" xmlns="http://www.w3.org/2000/svg">
<g id="Property 1=System" clip-path="url(#clip0_482_6479)">
<path id="Vector" d="M13.4115 14.4727C12.0924 15.3094 10.562 15.7525 8.99999 15.75C4.95599 15.75 1.59149 12.84 0.885742 8.99999C1.20826 7.25303 2.08696 5.65716 3.39074 4.45049L1.04399 2.10599L2.10524 1.04474L16.9545 15.8947L15.8932 16.9552L13.4107 14.4727H13.4115ZM4.45124 5.51249C3.432 6.43918 2.72198 7.65658 2.41724 8.99999C2.65146 10.0248 3.12169 10.9808 3.79049 11.7919C4.4593 12.603 5.30821 13.2468 6.26966 13.672C7.2311 14.0972 8.27853 14.292 9.32856 14.2411C10.3786 14.1901 11.4022 13.8948 12.318 13.3785L10.797 11.8575C10.1495 12.2654 9.38264 12.4411 8.62217 12.3558C7.8617 12.2706 7.15277 11.9294 6.61167 11.3883C6.07057 10.8472 5.72941 10.1383 5.64416 9.37781C5.55891 8.61734 5.73463 7.85047 6.14249 7.20299L4.45124 5.51249ZM9.68549 10.746L7.25399 8.31449C7.12054 8.65419 7.08913 9.02545 7.16362 9.38275C7.23811 9.74004 7.41526 10.0678 7.67333 10.3259C7.93141 10.584 8.25919 10.7611 8.61648 10.8356C8.97378 10.9101 9.34504 10.8787 9.68474 10.7452L9.68549 10.746ZM15.6052 12.444L14.532 11.3715C15.0333 10.657 15.3903 9.85138 15.5827 8.99999C15.3789 8.10728 14.9957 7.26535 14.4564 6.52536C13.917 5.78537 13.2328 5.16278 12.4454 4.69544C11.658 4.2281 10.7837 3.92576 9.87579 3.80681C8.96787 3.68786 8.04525 3.75477 7.16399 4.00349L5.98049 2.81999C6.91574 2.45249 7.93499 2.24999 8.99999 2.24999C13.044 2.24999 16.4085 5.15999 17.1142 8.99999C16.8844 10.2493 16.3679 11.4282 15.6052 12.444ZM8.79224 5.63099C9.26962 5.60149 9.74783 5.67379 10.1951 5.8431C10.6425 6.01241 11.0487 6.27487 11.3869 6.61308C11.7251 6.95128 11.9876 7.35751 12.1569 7.80483C12.3262 8.25215 12.3985 8.73036 12.369 9.20774L8.79149 5.63099H8.79224Z" fill="#C4C4C4"/>
</g>
<defs>
<clipPath id="clip0_482_6479">
<rect width="18" height="18" fill="white"/>
</clipPath>
</defs>
</svg>
