<svg width="36" height="36" viewBox="0 0 36 36" fill="none" xmlns="http://www.w3.org/2000/svg">
<g id="close">
<path id="Vector" d="M10.4545 10.4545C10.8938 10.0152 11.6062 10.0152 12.0455 10.4545L18 16.409L23.9545 10.4545C24.3938 10.0152 25.1062 10.0152 25.5455 10.4545C25.9848 10.8938 25.9848 11.6062 25.5455 12.0455L19.591 18L25.5455 23.9545C25.9848 24.3938 25.9848 25.1062 25.5455 25.5455C25.1062 25.9848 24.3938 25.9848 23.9545 25.5455L18 19.591L12.0455 25.5455C11.6062 25.9848 10.8938 25.9848 10.4545 25.5455C10.0152 25.1062 10.0152 24.3938 10.4545 23.9545L16.409 18L10.4545 12.0455C10.0152 11.6062 10.0152 10.8938 10.4545 10.4545Z" fill="#959595"/>
</g>
</svg>
