<svg width="22" height="22" viewBox="0 0 22 22" fill="none" xmlns="http://www.w3.org/2000/svg">
<g id="Property 1=ant-design:phone-outlined">
<path id="Vector" d="M16.8336 18.8822L19.1195 16.5941C19.3988 16.3148 19.5557 15.9409 19.5557 15.5456C19.5557 15.1503 19.401 14.7765 19.1195 14.4972L16.6596 12.0329C16.3803 11.7536 16.0043 11.5968 15.609 11.5968C15.2115 11.5968 14.8398 11.7515 14.5584 12.0329L12.6312 13.9579C11.6095 13.5194 10.6811 12.8893 9.89629 12.1017C9.10352 11.3132 8.47832 10.3915 8.03574 9.36887L9.96289 7.44387C10.2422 7.16458 10.399 6.79075 10.399 6.39543C10.3997 6.20045 10.3615 6.00728 10.2867 5.82725C10.2118 5.64722 10.1017 5.48394 9.96289 5.347L7.50293 2.88059C7.22363 2.60129 6.84766 2.44446 6.45234 2.44446C6.05488 2.44446 5.6832 2.59914 5.40176 2.88059L3.11582 5.16653C2.63887 5.64348 2.36602 6.3009 2.36602 6.97551C2.36602 7.11516 2.37676 7.25051 2.40039 7.38801C2.86875 10.2325 4.3834 13.0556 6.66074 15.3351C8.94238 17.6124 11.7654 19.1249 14.6121 19.5976C15.4199 19.7329 16.2514 19.4622 16.8336 18.8822ZM14.8678 18.0743C12.3348 17.6554 9.8082 16.2933 7.75644 14.2415C5.70469 12.1898 4.34258 9.66536 3.92363 7.13235C3.86992 6.81438 3.97734 6.48782 4.20723 6.25579L6.45234 4.01067L8.83496 6.39114L6.25684 8.96497L6.2375 8.9843L6.40937 9.44836C6.92671 10.8554 7.74381 12.1332 8.80407 13.1931C9.86432 14.253 11.1424 15.0696 12.5496 15.5865L13.0137 15.7583L15.6068 13.163L17.9895 15.5435L15.7443 17.7886C15.5123 18.0206 15.1857 18.1281 14.8678 18.0743Z" fill="#048741"/>
</g>
</svg>
