<svg width="32" height="32" viewBox="0 0 32 32" fill="none" xmlns="http://www.w3.org/2000/svg">
<rect width="32" height="32" rx="4" fill="white"/>
<path d="M22.682 11.5172L18.082 6.91724C18.007 6.84224 17.9055 6.80005 17.7992 6.80005H10.5961C9.82578 6.80005 9.19922 7.42505 9.19922 8.19224V23.561C9.19922 24.4641 9.93672 25.2 10.8445 25.2H21.1539C22.0617 25.2 22.7992 24.4641 22.7992 23.561V11.8C22.7992 11.6938 22.757 11.5922 22.682 11.5172ZM12.7992 20.8C12.5789 20.8 12.3992 20.6204 12.3992 20.4C12.3992 20.1797 12.5789 20 12.7992 20C13.0195 20 13.1992 20.1797 13.1992 20.4C13.1992 20.6204 13.0195 20.8 12.7992 20.8ZM12.7992 18.8C12.5789 18.8 12.3992 18.6204 12.3992 18.4C12.3992 18.1797 12.5789 18 12.7992 18C13.0195 18 13.1992 18.1797 13.1992 18.4C13.1992 18.6204 13.0195 18.8 12.7992 18.8ZM12.7992 16.8C12.5789 16.8 12.3992 16.6204 12.3992 16.4C12.3992 16.1797 12.5789 16 12.7992 16C13.0195 16 13.1992 16.1797 13.1992 16.4C13.1992 16.6204 13.0195 16.8 12.7992 16.8ZM19.1992 20.8H14.3992V20H19.1992V20.8ZM19.1992 18.8H14.3992V18H19.1992V18.8ZM19.1992 16.8H14.3992V16H19.1992V16.8ZM18.6664 11.6C18.2977 11.6 17.9992 11.3016 17.9992 10.9329V7.96567L21.6336 11.6H18.6664Z" fill="#346EFB"/>
</svg>
