<svg width="28" height="28" viewBox="0 0 28 28" fill="none" xmlns="http://www.w3.org/2000/svg">
<g id="Property 1=Frame" clip-path="url(#clip0_61_6980)">
<path id="Vector" d="M13.9997 2.33337C17.1695 2.33337 17.565 2.34504 18.8087 2.40337C20.0512 2.46171 20.897 2.65654 21.6413 2.94587C22.4113 3.24221 23.06 3.64354 23.7087 4.29104C24.3019 4.87425 24.761 5.57973 25.0538 6.35837C25.342 7.10154 25.538 7.94854 25.5963 9.19104C25.6512 10.4347 25.6663 10.8302 25.6663 14C25.6663 17.1699 25.6547 17.5654 25.5963 18.809C25.538 20.0515 25.342 20.8974 25.0538 21.6417C24.7618 22.4208 24.3027 23.1264 23.7087 23.709C23.1253 24.3021 22.4199 24.7611 21.6413 25.0542C20.8982 25.3424 20.0512 25.5384 18.8087 25.5967C17.565 25.6515 17.1695 25.6667 13.9997 25.6667C10.8298 25.6667 10.4343 25.655 9.19067 25.5967C7.94817 25.5384 7.10234 25.3424 6.35801 25.0542C5.57906 24.7619 4.87346 24.3028 4.29067 23.709C3.69732 23.1259 3.23826 22.4204 2.94551 21.6417C2.65617 20.8985 2.46134 20.0515 2.40301 18.809C2.34817 17.5654 2.33301 17.1699 2.33301 14C2.33301 10.8302 2.34467 10.4347 2.40301 9.19104C2.46134 7.94737 2.65617 7.10271 2.94551 6.35837C3.23745 5.57925 3.69661 4.87358 4.29067 4.29104C4.87362 3.69748 5.57917 3.23839 6.35801 2.94587C7.10234 2.65654 7.94701 2.46171 9.19067 2.40337C10.4343 2.34854 10.8298 2.33337 13.9997 2.33337ZM13.9997 8.16671C12.4526 8.16671 10.9688 8.78129 9.87489 9.87525C8.78092 10.9692 8.16634 12.4529 8.16634 14C8.16634 15.5471 8.78092 17.0309 9.87489 18.1248C10.9688 19.2188 12.4526 19.8334 13.9997 19.8334C15.5468 19.8334 17.0305 19.2188 18.1245 18.1248C19.2184 17.0309 19.833 15.5471 19.833 14C19.833 12.4529 19.2184 10.9692 18.1245 9.87525C17.0305 8.78129 15.5468 8.16671 13.9997 8.16671ZM21.583 7.87504C21.583 7.48827 21.4294 7.11733 21.1559 6.84384C20.8824 6.57035 20.5114 6.41671 20.1247 6.41671C19.7379 6.41671 19.367 6.57035 19.0935 6.84384C18.82 7.11733 18.6663 7.48827 18.6663 7.87504C18.6663 8.26182 18.82 8.63275 19.0935 8.90624C19.367 9.17973 19.7379 9.33337 20.1247 9.33337C20.5114 9.33337 20.8824 9.17973 21.1559 8.90624C21.4294 8.63275 21.583 8.26182 21.583 7.87504ZM13.9997 10.5C14.9279 10.5 15.8182 10.8688 16.4745 11.5252C17.1309 12.1815 17.4997 13.0718 17.4997 14C17.4997 14.9283 17.1309 15.8185 16.4745 16.4749C15.8182 17.1313 14.9279 17.5 13.9997 17.5C13.0714 17.5 12.1812 17.1313 11.5248 16.4749C10.8684 15.8185 10.4997 14.9283 10.4997 14C10.4997 13.0718 10.8684 12.1815 11.5248 11.5252C12.1812 10.8688 13.0714 10.5 13.9997 10.5Z" fill="white"/>
</g>
<defs>
<clipPath id="clip0_61_6980">
<rect width="28" height="28" fill="white"/>
</clipPath>
</defs>
</svg>
