<svg width="28" height="28" viewBox="0 0 28 28" fill="none" xmlns="http://www.w3.org/2000/svg">
<g id="Property 1=Frame" clip-path="url(#clip0_61_6979)">
<path id="Vector" d="M2.33769 25.6667L3.91502 19.8707C2.87568 18.089 2.32964 16.0627 2.33302 14C2.33302 7.55654 7.55619 2.33337 13.9997 2.33337C20.4432 2.33337 25.6664 7.55654 25.6664 14C25.6664 20.4435 20.4432 25.6667 13.9997 25.6667C11.9379 25.67 9.91246 25.1244 8.13136 24.0859L2.33769 25.6667ZM9.78919 8.52604C9.63853 8.5354 9.49131 8.57508 9.35636 8.64271C9.2298 8.71438 9.11427 8.80397 9.01336 8.90871C8.87336 9.04054 8.79402 9.15487 8.70886 9.26571C8.27767 9.82687 8.04573 10.5157 8.04969 11.2234C8.05202 11.795 8.20136 12.3515 8.43469 12.8719C8.91186 13.9242 9.69702 15.0384 10.7342 16.0709C10.9839 16.3194 11.2277 16.569 11.4902 16.8012C12.7775 17.9346 14.3115 18.7519 15.9702 19.1882L16.634 19.2897C16.8499 19.3014 17.0657 19.285 17.2827 19.2745C17.6225 19.257 17.9542 19.165 18.2545 19.005C18.4482 18.9024 18.5392 18.851 18.7014 18.7484C18.7014 18.7484 18.7515 18.7157 18.8472 18.6434C19.0047 18.5267 19.1015 18.4439 19.2322 18.3074C19.329 18.207 19.413 18.0892 19.4772 17.955C19.5682 17.7649 19.6592 17.402 19.6965 17.0999C19.7245 16.8689 19.7164 16.7429 19.7129 16.6647C19.7082 16.5399 19.6044 16.4104 19.4912 16.3555L18.8122 16.051C18.8122 16.051 17.7972 15.6089 17.1777 15.3265C17.1124 15.2981 17.0424 15.2819 16.9712 15.2787C16.8914 15.2705 16.8107 15.2795 16.7346 15.305C16.6586 15.3306 16.5889 15.3721 16.5302 15.4269V15.4245C16.5244 15.4245 16.4462 15.491 15.6027 16.513C15.5543 16.5781 15.4876 16.6273 15.4111 16.6543C15.3347 16.6813 15.2519 16.6849 15.1734 16.6647C15.0973 16.6444 15.0229 16.6186 14.9505 16.5877C14.8059 16.527 14.7557 16.5037 14.6565 16.4605L14.6507 16.4582C13.9832 16.1668 13.3653 15.7732 12.819 15.2915C12.672 15.1632 12.5355 15.0232 12.3955 14.8879C11.9365 14.4483 11.5365 13.9511 11.2055 13.4085L11.1367 13.2977C11.0872 13.2232 11.0473 13.1429 11.0177 13.0585C10.9734 12.887 11.0889 12.7494 11.0889 12.7494C11.0889 12.7494 11.3724 12.439 11.5042 12.271C11.614 12.1314 11.7164 11.9862 11.811 11.8359C11.9487 11.6142 11.9919 11.3867 11.9195 11.2105C11.5929 10.4125 11.2545 9.61804 10.9069 8.82937C10.838 8.67304 10.6339 8.56104 10.4484 8.53887C10.3854 8.53187 10.3224 8.52487 10.2594 8.52021C10.1027 8.51242 9.94568 8.51398 9.78919 8.52487V8.52604Z" fill="white"/>
</g>
<defs>
<clipPath id="clip0_61_6979">
<rect width="28" height="28" fill="white"/>
</clipPath>
</defs>
</svg>
