<svg width="28" height="28" viewBox="0 0 28 28" fill="none" xmlns="http://www.w3.org/2000/svg">
<g id="Property 1=Social Icon">
<path id="Vector" d="M25.6666 14C25.6666 20.4434 20.4432 25.6667 13.9999 25.6667C7.5566 25.6667 2.33325 20.4434 2.33325 14C2.33325 7.55672 7.5566 2.33337 13.9999 2.33337C20.4432 2.33337 25.6666 7.55672 25.6666 14ZM14.4181 10.9463C13.2833 11.4183 11.0154 12.3951 7.61432 13.8769C7.06204 14.0966 6.77273 14.3114 6.74639 14.5215C6.70188 14.8765 7.1465 15.0163 7.75197 15.2067C7.83432 15.2326 7.91966 15.2595 8.00714 15.2879C8.60282 15.4815 9.40411 15.7081 9.82067 15.7171C10.1985 15.7252 10.6203 15.5694 11.0859 15.2497C14.2636 13.1047 15.904 12.0205 16.0069 11.9971C16.0796 11.9806 16.1803 11.9599 16.2485 12.0205C16.3167 12.0811 16.31 12.196 16.3028 12.2268C16.2587 12.4145 14.5134 14.0371 13.6102 14.8768C13.3287 15.1386 13.1289 15.3243 13.0881 15.3667C12.9966 15.4617 12.9034 15.5515 12.8138 15.6379C12.2604 16.1714 11.8454 16.5714 12.8368 17.2247C13.3132 17.5387 13.6945 17.7983 14.0748 18.0573C14.4901 18.3402 14.9044 18.6223 15.4404 18.9736C15.577 19.0632 15.7074 19.1561 15.8344 19.2467C16.3178 19.5913 16.7521 19.9009 17.2886 19.8515C17.6004 19.8228 17.9224 19.5297 18.0859 18.6554C18.4724 16.5892 19.2321 12.1125 19.4077 10.2677C19.4231 10.1061 19.4037 9.89924 19.3882 9.80843C19.3726 9.71763 19.3402 9.58826 19.2221 9.49249C19.0824 9.37907 18.8666 9.35515 18.7701 9.35685C18.3312 9.36458 17.658 9.59867 14.4181 10.9463Z" fill="#FFFCFC"/>
</g>
</svg>
