<svg width="32" height="28" viewBox="0 0 32 28" fill="none" xmlns="http://www.w3.org/2000/svg">
<path d="M1 17.8C1.55228 17.8 2 18.2478 2 18.8V23.8C2 24.9046 2.89543 25.8 4 25.8H28C29.1046 25.8 30 24.9046 30 23.8V18.8C30 18.2478 30.4477 17.8 31 17.8C31.5523 17.8 32 18.2478 32 18.8V23.8C32 26.0092 30.2091 27.8 28 27.8H4C1.79086 27.8 0 26.0092 0 23.8V18.8C0 18.2478 0.447715 17.8 1 17.8Z" fill="#959595"/>
<path d="M15.2929 0.292893C15.6834 -0.0976311 16.3166 -0.0976311 16.7071 0.292893L22.7071 6.29289C23.0976 6.68342 23.0976 7.31658 22.7071 7.70711C22.3166 8.09763 21.6834 8.09763 21.2929 7.70711L17 3.41421V21C17 21.5523 16.5523 22 16 22C15.4477 22 15 21.5523 15 21V3.41421L10.7071 7.70711C10.3166 8.09763 9.68342 8.09763 9.29289 7.70711C8.90237 7.31658 8.90237 6.68342 9.29289 6.29289L15.2929 0.292893Z" fill="#959595"/>
</svg>
