<svg width="28" height="28" viewBox="0 0 28 28" fill="none" xmlns="http://www.w3.org/2000/svg">
<g id="Profile">
<path id="Subtract" fill-rule="evenodd" clip-rule="evenodd" d="M21.6936 25.6984C25.4927 23.1948 28 18.8902 28 14C28 6.26801 21.732 0 14 0C6.26801 0 0 6.26801 0 14C0 18.8902 2.50725 23.1948 6.30639 25.6984C6.7091 24.5673 7.36011 23.528 8.2253 22.6628C9.75684 21.1312 11.8341 20.2708 14 20.2708C16.1659 20.2708 18.2432 21.1312 19.7747 22.6628C20.6399 23.528 21.2909 24.5673 21.6936 25.6984ZM7.875 13.125C7.875 16.5091 10.6159 19.25 14 19.25C17.3841 19.25 20.125 16.5091 20.125 13.125C20.125 9.74094 17.3841 7 14 7C10.6159 7 7.875 9.74094 7.875 13.125Z" fill="#048741"/>
<circle id="Ellipse 2" cx="14" cy="14" r="13.75" stroke="#048741" stroke-width="0.5"/>
</g>
</svg>
