<svg width="30" height="30" viewBox="0 0 30 30" fill="none" xmlns="http://www.w3.org/2000/svg">
<circle cx="15" cy="15" r="15" fill="#009344"/>
<g clip-path="url(#clip0_61_7028)">
<path d="M6.66985 23.3334L7.79652 19.1934C7.05413 17.9208 6.6641 16.4734 6.66652 15.0001C6.66652 10.3976 10.3973 6.66675 14.9998 6.66675C19.6023 6.66675 23.3332 10.3976 23.3332 15.0001C23.3332 19.6026 19.6023 23.3334 14.9998 23.3334C13.5272 23.3358 12.0804 22.9461 10.8082 22.2042L6.66985 23.3334ZM11.9923 11.0901C11.8847 11.0968 11.7796 11.1251 11.6832 11.1734C11.5928 11.2246 11.5103 11.2886 11.4382 11.3634C11.3382 11.4576 11.2815 11.5392 11.2207 11.6184C10.9127 12.0192 10.747 12.5113 10.7498 13.0167C10.7515 13.4251 10.8582 13.8226 11.0248 14.1942C11.3657 14.9459 11.9265 15.7417 12.6673 16.4792C12.8457 16.6567 13.0198 16.8351 13.2073 17.0009C14.1268 17.8105 15.2226 18.3943 16.4073 18.7059L16.8815 18.7784C17.0357 18.7867 17.1898 18.7751 17.3448 18.7676C17.5875 18.7551 17.8245 18.6893 18.039 18.5751C18.1774 18.5017 18.2424 18.4651 18.3582 18.3917C18.3582 18.3917 18.394 18.3684 18.4623 18.3167C18.5749 18.2334 18.644 18.1742 18.7374 18.0767C18.8065 18.0051 18.8665 17.9209 18.9123 17.8251C18.9773 17.6892 19.0423 17.4301 19.069 17.2142C19.089 17.0492 19.0832 16.9592 19.0807 16.9034C19.0773 16.8142 19.0032 16.7217 18.9224 16.6826L18.4373 16.4651C18.4373 16.4651 17.7123 16.1492 17.2698 15.9476C17.2232 15.9272 17.1732 15.9157 17.1223 15.9134C17.0653 15.9076 17.0077 15.914 16.9534 15.9322C16.8991 15.9505 16.8493 15.9802 16.8073 16.0192V16.0176C16.8032 16.0176 16.7473 16.0651 16.1448 16.7951C16.1103 16.8415 16.0626 16.8767 16.008 16.896C15.9534 16.9153 15.8943 16.9178 15.8382 16.9034C15.7839 16.8889 15.7307 16.8705 15.679 16.8484C15.5757 16.8051 15.5398 16.7884 15.469 16.7576L15.4648 16.7559C14.9881 16.5478 14.5467 16.2666 14.1565 15.9226C14.0515 15.8309 13.954 15.7309 13.854 15.6342C13.5262 15.3203 13.2404 14.9651 13.004 14.5776L12.9548 14.4984C12.9195 14.4452 12.891 14.3878 12.8698 14.3276C12.8382 14.2051 12.9207 14.1067 12.9207 14.1067C12.9207 14.1067 13.1232 13.8851 13.2173 13.7651C13.2958 13.6653 13.3689 13.5616 13.4365 13.4542C13.5348 13.2959 13.5657 13.1334 13.514 13.0076C13.2807 12.4376 13.039 11.8701 12.7907 11.3067C12.7415 11.1951 12.5957 11.1151 12.4632 11.0992C12.4182 11.0942 12.3732 11.0892 12.3282 11.0859C12.2163 11.0804 12.1041 11.0815 11.9923 11.0892V11.0901Z" fill="white"/>
</g>
<defs>
<clipPath id="clip0_61_7028">
<rect width="20" height="20" fill="white" transform="translate(5 5)"/>
</clipPath>
</defs>
</svg>
