<svg width="30" height="30" viewBox="0 0 30 30" fill="none" xmlns="http://www.w3.org/2000/svg">
<circle cx="15" cy="15" r="15" fill="#009344"/>
<path d="M23.3334 15C23.3334 19.6023 19.6025 23.3333 15.0001 23.3333C10.3977 23.3333 6.66675 19.6023 6.66675 15C6.66675 10.3976 10.3977 6.66663 15.0001 6.66663C19.6025 6.66663 23.3334 10.3976 23.3334 15ZM15.2988 12.8187C14.4882 13.1558 12.8683 13.8536 10.4389 14.912C10.0445 15.0689 9.8378 15.2224 9.81899 15.3724C9.7872 15.626 10.1048 15.7259 10.5373 15.8619C10.5961 15.8804 10.657 15.8995 10.7195 15.9199C11.145 16.0582 11.7174 16.22 12.0149 16.2264C12.2848 16.2322 12.586 16.121 12.9186 15.8926C15.1884 14.3604 16.3601 13.586 16.4337 13.5693C16.4856 13.5575 16.5575 13.5427 16.6062 13.586C16.6549 13.6293 16.6501 13.7113 16.645 13.7333C16.6135 13.8675 15.3669 15.0264 14.7217 15.6262C14.5206 15.8132 14.378 15.9458 14.3488 15.9761C14.2835 16.044 14.2169 16.1082 14.1529 16.1699C13.7576 16.5509 13.4612 16.8367 14.1693 17.3033C14.5096 17.5276 14.7819 17.713 15.0536 17.898C15.3502 18.1 15.6462 18.3016 16.029 18.5525C16.1266 18.6165 16.2197 18.6829 16.3105 18.7476C16.6557 18.9937 16.9659 19.2149 17.3491 19.1796C17.5718 19.1591 17.8018 18.9497 17.9186 18.3252C18.1947 16.8494 18.7374 13.6517 18.8628 12.334C18.8738 12.2186 18.8599 12.0708 18.8488 12.006C18.8377 11.9411 18.8145 11.8487 18.7302 11.7803C18.6304 11.6993 18.4763 11.6822 18.4073 11.6834C18.0939 11.6889 17.613 11.8561 15.2988 12.8187Z" fill="#FFFCFC"/>
</svg>
