<svg width="30" height="30" viewBox="0 0 30 30" fill="none" xmlns="http://www.w3.org/2000/svg">
<circle cx="15" cy="15" r="15" fill="#009344"/>
<g clip-path="url(#clip0_61_7029)">
<path d="M14.9998 6.66675C17.264 6.66675 17.5465 6.67508 18.4348 6.71675C19.3223 6.75841 19.9265 6.89758 20.4582 7.10425C21.0082 7.31591 21.4715 7.60258 21.9348 8.06508C22.3586 8.48166 22.6865 8.98557 22.8957 9.54175C23.1015 10.0726 23.2415 10.6776 23.2832 11.5651C23.3223 12.4534 23.3332 12.7359 23.3332 15.0001C23.3332 17.2642 23.3248 17.5467 23.2832 18.4351C23.2415 19.3226 23.1015 19.9267 22.8957 20.4584C22.6871 21.0149 22.3591 21.5189 21.9348 21.9351C21.5181 22.3587 21.0143 22.6865 20.4582 22.8959C19.9273 23.1017 19.3223 23.2417 18.4348 23.2834C17.5465 23.3226 17.264 23.3334 14.9998 23.3334C12.7357 23.3334 12.4532 23.3251 11.5648 23.2834C10.6773 23.2417 10.0732 23.1017 9.5415 22.8959C8.98511 22.6871 8.48111 22.3592 8.06484 21.9351C7.64101 21.5186 7.31311 21.0146 7.104 20.4584C6.89734 19.9276 6.75817 19.3226 6.7165 18.4351C6.67734 17.5467 6.6665 17.2642 6.6665 15.0001C6.6665 12.7359 6.67484 12.4534 6.7165 11.5651C6.75817 10.6767 6.89734 10.0734 7.104 9.54175C7.31253 8.98523 7.64051 8.48118 8.06484 8.06508C8.48123 7.64111 8.98519 7.31319 9.5415 7.10425C10.0732 6.89758 10.6765 6.75841 11.5648 6.71675C12.4532 6.67758 12.7357 6.66675 14.9998 6.66675ZM14.9998 10.8334C13.8948 10.8334 12.835 11.2724 12.0536 12.0538C11.2722 12.8352 10.8332 13.895 10.8332 15.0001C10.8332 16.1052 11.2722 17.165 12.0536 17.9464C12.835 18.7278 13.8948 19.1667 14.9998 19.1667C16.1049 19.1667 17.1647 18.7278 17.9461 17.9464C18.7275 17.165 19.1665 16.1052 19.1665 15.0001C19.1665 13.895 18.7275 12.8352 17.9461 12.0538C17.1647 11.2724 16.1049 10.8334 14.9998 10.8334ZM20.4165 10.6251C20.4165 10.3488 20.3068 10.0839 20.1114 9.88851C19.9161 9.69316 19.6511 9.58341 19.3748 9.58341C19.0986 9.58341 18.8336 9.69316 18.6383 9.88851C18.4429 10.0839 18.3332 10.3488 18.3332 10.6251C18.3332 10.9013 18.4429 11.1663 18.6383 11.3617C18.8336 11.557 19.0986 11.6667 19.3748 11.6667C19.6511 11.6667 19.9161 11.557 20.1114 11.3617C20.3068 11.1663 20.4165 10.9013 20.4165 10.6251ZM14.9998 12.5001C15.6629 12.5001 16.2988 12.7635 16.7676 13.2323C17.2364 13.7012 17.4998 14.337 17.4998 15.0001C17.4998 15.6631 17.2364 16.299 16.7676 16.7678C16.2988 17.2367 15.6629 17.5001 14.9998 17.5001C14.3368 17.5001 13.7009 17.2367 13.2321 16.7678C12.7632 16.299 12.4998 15.6631 12.4998 15.0001C12.4998 14.337 12.7632 13.7012 13.2321 13.2323C13.7009 12.7635 14.3368 12.5001 14.9998 12.5001Z" fill="white"/>
</g>
<defs>
<clipPath id="clip0_61_7029">
<rect width="20" height="20" fill="white" transform="translate(5 5)"/>
</clipPath>
</defs>
</svg>
