<svg width="22" height="22" viewBox="0 0 22 22" fill="none" xmlns="http://www.w3.org/2000/svg">
<g id="Property 1=ant-design:phone-outlined">
<g id="Vector">
<path d="M11 4C7.13992 4 4 7.13991 4 11C4 14.8601 7.13992 18 11 18C14.8601 18 18 14.8601 18 11C18 7.13991 14.8601 4 11 4ZM11 16.5165C7.96091 16.5165 5.49794 14.0391 5.49794 11.0144C5.49794 7.98971 7.97531 5.51235 11 5.51235C14.0247 5.51235 16.5021 7.98971 16.5021 11.0144C16.5021 14.0391 14.0391 16.5165 11 16.5165Z" fill="#048741"/>
<path d="M14.644 10.7839H11.5041V7.01029C11.5041 6.69342 11.2449 6.43416 10.928 6.43416C10.6111 6.43416 10.3519 6.69342 10.3519 7.01029V11.3601C10.3519 11.677 10.6111 11.9362 10.928 11.9362H14.644C14.9609 11.9362 15.2202 11.677 15.2202 11.3601C15.2202 11.0432 14.9609 10.7839 14.644 10.7839Z" fill="#048741"/>
</g>
</g>
</svg>
