<svg width="24" height="24" viewBox="0 0 24 24" fill="none" xmlns="http://www.w3.org/2000/svg">
<rect width="24" height="24" fill="#9B9690"/>
<g id="Icons">
<rect width="792" height="557" transform="translate(-229 -424)" fill="#030303"/>
<g id="Frame" clip-path="url(#clip0_0_1)">
<path id="Vector" d="M12 10.4447L16.7376 5.70711C17.1281 5.31658 17.7613 5.31658 18.1518 5.70711L18.2929 5.8482C18.6834 6.23873 18.6834 6.87189 18.2929 7.26242L13.5553 12L18.2929 16.7376C18.6834 17.1281 18.6834 17.7613 18.2929 18.1518L18.1518 18.2929C17.7613 18.6834 17.1281 18.6834 16.7376 18.2929L12 13.5553L7.26242 18.2929C6.87189 18.6834 6.23873 18.6834 5.8482 18.2929L5.70711 18.1518C5.31658 17.7613 5.31658 17.1281 5.70711 16.7376L10.4447 12L5.70711 7.26242C5.31658 6.87189 5.31658 6.23873 5.70711 5.8482L5.8482 5.70711C6.23873 5.31658 6.87189 5.31658 7.26242 5.70711L12 10.4447Z" fill="#BDBDBD"/>
</g>
</g>
<defs>
<clipPath id="clip0_0_1">
<rect width="24" height="24" fill="white"/>
</clipPath>
</defs>
</svg>
