<svg width="22" height="22" viewBox="0 0 22 22" fill="none" xmlns="http://www.w3.org/2000/svg">
<g id="Property 1=ant-design:phone-outlined">
<path id="GeoPoint" d="M11.375 4C8.9585 4 7 5.9585 7 8.375C7 9.02783 7.14355 9.64821 7.39905 10.2036L10.7316 17.4352C10.8914 17.7829 11.1204 18 11.375 18C11.6296 18 11.8587 17.7829 12.0184 17.436L15.3509 10.2036C15.6073 9.64821 15.75 9.02783 15.75 8.375C15.75 5.9585 13.7915 4 11.375 4ZM11.375 11C9.92578 11 8.75 9.82422 8.75 8.375C8.75 6.92578 9.92578 5.75 11.375 5.75C12.8242 5.75 14 6.92578 14 8.375C14 9.82422 12.8242 11 11.375 11Z" fill="#048741"/>
</g>
</svg>
