<svg width="18" height="18" viewBox="0 0 18 18" fill="none" xmlns="http://www.w3.org/2000/svg">
<path d="M8.99922 2.7002C9.43414 2.7002 9.78672 3.05277 9.78672 3.4877V8.2127H14.5117C14.9466 8.2127 15.2992 8.56527 15.2992 9.0002C15.2992 9.43512 14.9466 9.7877 14.5117 9.7877H9.78672V14.5127C9.78672 14.9476 9.43414 15.3002 8.99922 15.3002C8.56429 15.3002 8.21172 14.9476 8.21172 14.5127V9.7877H3.48672C3.05179 9.7877 2.69922 9.43512 2.69922 9.0002C2.69922 8.56527 3.05179 8.2127 3.48672 8.2127H8.21172V3.4877C8.21172 3.05277 8.56429 2.7002 8.99922 2.7002Z" fill="white"/>
</svg>
