<svg width="20" height="20" viewBox="0 0 20 20" fill="none" xmlns="http://www.w3.org/2000/svg">
<g id="Property 1=print 1">
<path id="Vector" d="M5.83341 8.33335C5.6686 8.33335 5.50748 8.38223 5.37044 8.4738C5.2334 8.56536 5.12659 8.69551 5.06351 8.84778C5.00044 9.00006 4.98394 9.16761 5.01609 9.32926C5.04825 9.49091 5.12762 9.6394 5.24416 9.75594C5.3607 9.87249 5.50919 9.95185 5.67084 9.98401C5.83249 10.0162 6.00005 9.99966 6.15232 9.93659C6.30459 9.87351 6.43474 9.7667 6.52631 9.62966C6.61787 9.49262 6.66675 9.3315 6.66675 9.16669C6.66675 8.94567 6.57895 8.73371 6.42267 8.57743C6.26639 8.42115 6.05443 8.33335 5.83341 8.33335ZM15.8334 5.00002H15.0001V2.50002C15.0001 2.27901 14.9123 2.06704 14.756 1.91076C14.5997 1.75448 14.3878 1.66669 14.1667 1.66669H5.83341C5.6124 1.66669 5.40044 1.75448 5.24416 1.91076C5.08788 2.06704 5.00008 2.27901 5.00008 2.50002V5.00002H4.16675C3.50371 5.00002 2.86782 5.26341 2.39898 5.73225C1.93014 6.20109 1.66675 6.83698 1.66675 7.50002V12.5C1.66675 13.1631 1.93014 13.7989 2.39898 14.2678C2.86782 14.7366 3.50371 15 4.16675 15H5.00008V17.5C5.00008 17.721 5.08788 17.933 5.24416 18.0893C5.40044 18.2456 5.6124 18.3334 5.83341 18.3334H14.1667C14.3878 18.3334 14.5997 18.2456 14.756 18.0893C14.9123 17.933 15.0001 17.721 15.0001 17.5V15H15.8334C16.4965 15 17.1323 14.7366 17.6012 14.2678C18.07 13.7989 18.3334 13.1631 18.3334 12.5V7.50002C18.3334 6.83698 18.07 6.20109 17.6012 5.73225C17.1323 5.26341 16.4965 5.00002 15.8334 5.00002ZM6.66675 3.33335H13.3334V5.00002H6.66675V3.33335ZM13.3334 16.6667H6.66675V13.3334H13.3334V16.6667ZM16.6667 12.5C16.6667 12.721 16.579 12.933 16.4227 13.0893C16.2664 13.2456 16.0544 13.3334 15.8334 13.3334H15.0001V12.5C15.0001 12.279 14.9123 12.067 14.756 11.9108C14.5997 11.7545 14.3878 11.6667 14.1667 11.6667H5.83341C5.6124 11.6667 5.40044 11.7545 5.24416 11.9108C5.08788 12.067 5.00008 12.279 5.00008 12.5V13.3334H4.16675C3.94573 13.3334 3.73377 13.2456 3.57749 13.0893C3.42121 12.933 3.33341 12.721 3.33341 12.5V7.50002C3.33341 7.27901 3.42121 7.06705 3.57749 6.91076C3.73377 6.75448 3.94573 6.66669 4.16675 6.66669H15.8334C16.0544 6.66669 16.2664 6.75448 16.4227 6.91076C16.579 7.06705 16.6667 7.27901 16.6667 7.50002V12.5Z" fill="white"/>
</g>
</svg>
