<svg width="30" height="30" viewBox="0 0 30 30" fill="none" xmlns="http://www.w3.org/2000/svg">
<rect width="30" height="30" fill="#9B9690"/>
<g id="Icons">
<rect width="792" height="557" transform="translate(-358 -413)" fill="#030303"/>
<g id="Profile">
<path id="Subtract" fill-rule="evenodd" clip-rule="evenodd" d="M23.2432 27.534C27.3137 24.8515 30 20.2395 30 15C30 6.71573 23.2843 0 15 0C6.71573 0 0 6.71573 0 15C0 20.2395 2.68634 24.8515 6.75684 27.534C7.18832 26.3221 7.88583 25.2085 8.81282 24.2816C10.4538 22.6406 12.6794 21.7188 15 21.7188C17.3206 21.7188 19.5462 22.6406 21.1872 24.2816C22.1142 25.2085 22.8117 26.3221 23.2432 27.534ZM8.4375 14.0625C8.4375 17.6883 11.3742 20.625 15 20.625C18.6258 20.625 21.5625 17.6883 21.5625 14.0625C21.5625 10.4367 18.6258 7.5 15 7.5C11.3742 7.5 8.4375 10.4367 8.4375 14.0625Z" fill="#4D4E51"/>
<circle id="Ellipse 2" cx="15" cy="15" r="14.75" stroke="#595656" stroke-width="0.5"/>
</g>
</g>
</svg>
