<svg width="16" height="16" viewBox="0 0 16 16" fill="none" xmlns="http://www.w3.org/2000/svg">
<g id="Property 1=reload_refresh_update_icon_149403 1" clip-path="url(#clip0_482_6453)">
<path id="Vector" d="M0.666627 8C0.666062 6.68722 1.01791 5.39836 1.68543 4.26797C2.35296 3.13757 3.31169 2.20709 4.46154 1.57366C5.61138 0.940228 6.91019 0.627074 8.22236 0.666887C9.53454 0.706701 10.812 1.09802 11.9213 1.8L12.862 0.86C12.9553 0.766672 13.0743 0.70316 13.2038 0.677511C13.3333 0.651863 13.4674 0.665234 13.5893 0.715928C13.7112 0.766623 13.8153 0.85236 13.8884 0.962274C13.9615 1.07219 14.0003 1.20133 14 1.33333V4C14 4.17681 13.9297 4.34638 13.8047 4.4714C13.6797 4.59643 13.5101 4.66667 13.3333 4.66667H10.6666C10.5348 4.66664 10.4059 4.62752 10.2963 4.55427C10.1867 4.48101 10.1013 4.3769 10.0508 4.2551C10.0004 4.1333 9.98719 3.99928 10.0129 3.86998C10.0386 3.74068 10.1021 3.6219 10.1953 3.52867L10.9473 2.77667C10.0348 2.26068 9.00293 1.99294 7.95465 2.00016C6.90638 2.00738 5.87832 2.28931 4.973 2.81782C4.06768 3.34634 3.31674 4.10297 2.79508 5.01225C2.27342 5.92154 1.99926 6.9517 1.99996 8C1.99996 8.17681 1.92972 8.34638 1.8047 8.4714C1.67967 8.59643 1.5101 8.66667 1.33329 8.66667C1.15648 8.66667 0.986913 8.59643 0.861889 8.4714C0.736865 8.34638 0.666627 8.17681 0.666627 8ZM14.6666 7.33333C14.4898 7.33333 14.3202 7.40357 14.1952 7.5286C14.0702 7.65362 14 7.82319 14 8C13.9982 9.59076 13.3655 11.1159 12.2407 12.2407C11.1158 13.3655 9.59072 13.9982 7.99996 14C6.96681 14.0019 5.95109 13.7339 5.05329 13.2227L5.80463 12.4713C5.89783 12.3781 5.9613 12.2593 5.98702 12.13C6.01273 12.0007 5.99953 11.8667 5.94908 11.7449C5.89863 11.6231 5.81321 11.519 5.7036 11.4457C5.59399 11.3725 5.46513 11.3334 5.33329 11.3333H2.66663C2.48982 11.3333 2.32025 11.4036 2.19522 11.5286C2.0702 11.6536 1.99996 11.8232 1.99996 12V14.6667C1.99993 14.7985 2.03899 14.9274 2.1122 15.0371C2.18542 15.1467 2.2895 15.2322 2.41129 15.2827C2.49218 15.3164 2.57899 15.3336 2.66663 15.3333C2.84342 15.3333 3.01296 15.263 3.13796 15.138L4.07863 14.2C5.25047 14.945 6.61137 15.3383 7.99996 15.3333C9.94418 15.331 11.8081 14.5577 13.1829 13.1829C14.5576 11.8081 15.331 9.94422 15.3333 8C15.3333 7.82319 15.2631 7.65362 15.138 7.5286C15.013 7.40357 14.8434 7.33333 14.6666 7.33333Z" fill="#1376F7"/>
</g>
<defs>
<clipPath id="clip0_482_6453">
<rect width="16" height="16" fill="white"/>
</clipPath>
</defs>
</svg>
