<svg width="69" height="60" viewBox="0 0 69 60" fill="none" xmlns="http://www.w3.org/2000/svg">
<path d="M29.9907 60C25.2447 59.9985 20.5669 58.8711 16.3413 56.7103C12.1158 54.5495 8.46323 51.4171 5.68364 47.5703C2.90406 43.7235 1.07679 39.2721 0.351954 34.5818C-0.372882 29.8916 0.0253945 25.0963 1.51407 20.5898C3.00274 16.0834 5.53932 11.9945 8.91544 8.65893C12.2916 5.3234 16.4109 2.83644 20.935 1.40236C25.459 -0.03171 30.2588 -0.371974 34.94 0.409523C39.6211 1.19102 44.0501 3.07198 47.863 5.89787C48.3733 6.31254 48.7039 6.9081 48.7861 7.56049C48.8682 8.21287 48.6954 8.87179 48.3038 9.39998C47.9122 9.92818 47.3319 10.2849 46.6838 10.3959C46.0357 10.5069 45.3698 10.3635 44.8247 9.99575C40.3243 6.65448 34.8284 4.92895 29.2257 5.09823C23.6231 5.2675 18.2414 7.32168 13.9509 10.9285C9.6604 14.5354 6.71198 19.4841 5.58247 24.9743C4.45295 30.4645 5.20838 36.1752 7.72659 41.1828C10.2448 46.1905 14.3785 50.2023 19.4593 52.5695C24.5401 54.9367 30.2708 55.5209 35.7248 54.2276C41.1787 52.9342 46.0369 49.839 49.5137 45.4425C52.9906 41.046 54.8828 35.6052 54.8843 30C54.8806 28.6873 54.7739 27.3769 54.5651 26.0809C54.5132 25.7456 54.5277 25.4033 54.608 25.0737C54.6883 24.744 54.8328 24.4334 55.0331 24.1596C55.2335 23.8857 55.4858 23.654 55.7756 23.4777C56.0655 23.3014 56.3873 23.1839 56.7226 23.1319C57.0579 23.0799 57.4001 23.0945 57.7298 23.1748C58.0594 23.2551 58.37 23.3996 58.6439 23.5999C58.9177 23.8002 59.1494 24.0525 59.3257 24.3424C59.502 24.6323 59.6196 24.9541 59.6715 25.2894C59.8997 26.8489 60.0064 28.4239 59.9907 30C59.9839 37.9544 56.821 45.5811 51.1964 51.2057C45.5718 56.8304 37.9451 59.9932 29.9907 60Z" fill="#FFB300"/>
<path d="M33.1744 39.575C32.4984 39.5722 31.851 39.3013 31.3744 38.8218L19.2467 26.6942C18.8285 26.2057 18.6099 25.5774 18.6347 24.9349C18.6595 24.2923 18.9259 23.6827 19.3806 23.228C19.8353 22.7733 20.4449 22.5069 21.0875 22.4821C21.73 22.4573 22.3583 22.6759 22.8467 23.0942L33.1744 33.409L63.9276 2.66862C64.416 2.25034 65.0443 2.03177 65.6869 2.05659C66.3295 2.08141 66.939 2.34779 67.3937 2.8025C67.8484 3.25721 68.1148 3.86676 68.1396 4.50934C68.1645 5.15191 67.9459 5.78019 67.5276 6.26862L34.9744 38.8218C34.4978 39.3013 33.8505 39.5722 33.1744 39.575Z" fill="#09B41A"/>
</svg>
