<svg width="20" height="20" viewBox="0 0 20 20" fill="none" xmlns="http://www.w3.org/2000/svg">
<path d="M16.682 5.51724L12.082 0.917236C12.007 0.842236 11.9055 0.800049 11.7992 0.800049H4.59609C3.82578 0.800049 3.19922 1.42505 3.19922 2.19224V17.561C3.19922 18.4641 3.93672 19.2 4.84453 19.2H15.1539C16.0617 19.2 16.7992 18.4641 16.7992 17.561V5.80005C16.7992 5.6938 16.757 5.59224 16.682 5.51724ZM6.79922 14.8C6.57891 14.8 6.39922 14.6204 6.39922 14.4C6.39922 14.1797 6.57891 14 6.79922 14C7.01953 14 7.19922 14.1797 7.19922 14.4C7.19922 14.6204 7.01953 14.8 6.79922 14.8ZM6.79922 12.8C6.57891 12.8 6.39922 12.6204 6.39922 12.4C6.39922 12.1797 6.57891 12 6.79922 12C7.01953 12 7.19922 12.1797 7.19922 12.4C7.19922 12.6204 7.01953 12.8 6.79922 12.8ZM6.79922 10.8C6.57891 10.8 6.39922 10.6204 6.39922 10.4C6.39922 10.1797 6.57891 10 6.79922 10C7.01953 10 7.19922 10.1797 7.19922 10.4C7.19922 10.6204 7.01953 10.8 6.79922 10.8ZM13.1992 14.8H8.39922V14H13.1992V14.8ZM13.1992 12.8H8.39922V12H13.1992V12.8ZM13.1992 10.8H8.39922V10H13.1992V10.8ZM12.6664 5.60005C12.2977 5.60005 11.9992 5.30161 11.9992 4.93286V1.96567L15.6336 5.60005H12.6664Z" fill="#346EFB"/>
</svg>
