<svg width="20" height="20" viewBox="0 0 20 20" fill="none" xmlns="http://www.w3.org/2000/svg">
<g id="Property 1=arrow-to-bottom 1">
<path id="Vector" d="M16.125 15.5H3.875C3.64294 15.5 3.42038 15.579 3.25628 15.7197C3.09219 15.8603 3 16.0511 3 16.25C3 16.4489 3.09219 16.6397 3.25628 16.7803C3.42038 16.921 3.64294 17 3.875 17H16.125C16.3571 17 16.5796 16.921 16.7437 16.7803C16.9078 16.6397 17 16.4489 17 16.25C17 16.0511 16.9078 15.8603 16.7437 15.7197C16.5796 15.579 16.3571 15.5 16.125 15.5ZM9.37875 13.7825C9.46197 13.8508 9.56009 13.9043 9.6675 13.94C9.77224 13.9797 9.88549 14.0002 10 14.0002C10.1145 14.0002 10.2278 13.9797 10.3325 13.94C10.4399 13.9043 10.538 13.8508 10.6213 13.7825L14.1212 10.7825C14.286 10.6413 14.3786 10.4497 14.3786 10.25C14.3786 10.0503 14.286 9.85873 14.1212 9.7175C13.9565 9.57627 13.733 9.49693 13.5 9.49693C13.267 9.49693 13.0435 9.57627 12.8787 9.7175L10.875 11.4425V2.75C10.875 2.55109 10.7828 2.36032 10.6187 2.21967C10.4546 2.07902 10.2321 2 10 2C9.76794 2 9.54538 2.07902 9.38128 2.21967C9.21719 2.36032 9.125 2.55109 9.125 2.75V11.4425L7.12125 9.7175C7.03967 9.64757 6.94281 9.5921 6.83622 9.55426C6.72962 9.51641 6.61538 9.49693 6.5 9.49693C6.38462 9.49693 6.27038 9.51641 6.16378 9.55426C6.05719 9.5921 5.96033 9.64757 5.87875 9.7175C5.79717 9.78743 5.73245 9.87045 5.6883 9.96181C5.64415 10.0532 5.62142 10.1511 5.62142 10.25C5.62142 10.3489 5.64415 10.4468 5.6883 10.5382C5.73245 10.6296 5.79717 10.7126 5.87875 10.7825L9.37875 13.7825Z" fill="white"/>
</g>
</svg>
