<svg width="20" height="20" viewBox="0 0 20 20" fill="none" xmlns="http://www.w3.org/2000/svg">
<g id="System" clip-path="url(#clip0_77_7869)">
<path id="Vector" d="M15.0252 13.8473L18.0047 16.8262C18.3303 17.1517 18.3304 17.6796 18.0048 18.0053C17.6792 18.3309 17.1512 18.3308 16.8257 18.0052L13.8468 15.0257C12.5191 16.09 10.8677 16.6689 9.16602 16.6665C5.02602 16.6665 1.66602 13.3065 1.66602 9.1665C1.66602 5.0265 5.02602 1.6665 9.16602 1.6665C13.306 1.6665 16.666 5.0265 16.666 9.1665C16.6684 10.8682 16.0895 12.5196 15.0252 13.8473ZM13.3535 13.229C14.4111 12.1414 15.0017 10.6835 14.9993 9.1665C14.9993 5.94317 12.3885 3.33317 9.16602 3.33317C5.94268 3.33317 3.33268 5.94317 3.33268 9.1665C3.33268 12.389 5.94268 14.9998 9.16602 14.9998C10.683 15.0022 12.1409 14.4116 13.2285 13.354L13.3535 13.229Z" fill="#959595"/>
</g>
<defs>
<clipPath id="clip0_77_7869">
<rect width="20" height="20" fill="white"/>
</clipPath>
</defs>
</svg>
