<svg width="75" height="14" viewBox="0 0 75 14" fill="none" xmlns="http://www.w3.org/2000/svg">
<g id="&#208;&#151;&#208;&#178;&#208;&#181;&#208;&#183;&#208;&#180;&#209;&#139;: &#208;&#190;&#209;&#130;&#208;&#183;&#209;&#139;&#208;&#178;&#209;&#139;">
<path id="Star 1" d="M7 0L8.5716 4.83688H13.6574L9.5429 7.82624L11.1145 12.6631L7 9.67376L2.8855 12.6631L4.4571 7.82624L0.342604 4.83688H5.4284L7 0Z" fill="#FAB100"/>
<path id="Star 2" d="M22.166 0L23.7376 4.83688H28.8234L24.7089 7.82624L26.2805 12.6631L22.166 9.67376L18.0515 12.6631L19.6231 7.82624L15.5086 4.83688H20.5944L22.166 0Z" fill="#FAB100"/>
<path id="Star 3" d="M37.334 0L38.9056 4.83688H43.9914L39.8769 7.82624L41.4485 12.6631L37.334 9.67376L33.2195 12.6631L34.7911 7.82624L30.6766 4.83688H35.7624L37.334 0Z" fill="#FAB100"/>
<path id="Star 4" d="M52.5 0L54.0716 4.83688H59.1574L55.0429 7.82624L56.6145 12.6631L52.5 9.67376L48.3855 12.6631L49.9571 7.82624L45.8426 4.83688H50.9284L52.5 0Z" fill="#FAB100"/>
<path id="Star 5" d="M67.666 0L69.2376 4.83688H74.3234L70.2089 7.82624L71.7805 12.6631L67.666 9.67376L63.5515 12.6631L65.1231 7.82624L61.0086 4.83688H66.0944L67.666 0Z" fill="#FAB100"/>
</g>
</svg>
