<svg width="20" height="23" viewBox="0 0 20 23" fill="none" xmlns="http://www.w3.org/2000/svg">
<path d="M5.33464 0.5V11C5.33464 12.2377 5.8263 13.4247 6.70147 14.2998C7.57664 15.175 8.76363 15.6667 10.0013 15.6667C11.239 15.6667 12.426 15.175 13.3011 14.2998C14.1763 13.4247 14.668 12.2377 14.668 11V0.5H17.0013V11C17.0013 12.8565 16.2638 14.637 14.951 15.9497C13.6383 17.2625 11.8578 18 10.0013 18C8.14479 18 6.36431 17.2625 5.05155 15.9497C3.7388 14.637 3.0013 12.8565 3.0013 11V0.5H5.33464ZM0.667969 20.3333H19.3346V22.6667H0.667969V20.3333Z" fill="#292929"/>
</svg>
