<svg width="18" height="16" viewBox="0 0 18 16" fill="none" xmlns="http://www.w3.org/2000/svg">
<g id="Property 1=Users">
<g id="Users">
<path d="M12.3042 12.4768L9.4383 11.0874C9.168 10.9562 9 10.6927 9 10.3994V9.41585C9.0687 9.3344 9.141 9.2416 9.2157 9.1392C9.5874 8.63011 9.8853 8.06342 10.1019 7.45222C10.5252 7.264 10.8 6.85818 10.8 6.4V5.23636C10.8 4.95622 10.692 4.6848 10.5 4.47273V2.92538C10.5168 2.76538 10.5828 1.81295 9.8724 1.0272C9.2562 0.3456 8.2563 0 6.9 0C5.5437 0 4.5438 0.3456 3.9276 1.02691C3.2172 1.81265 3.2832 2.76538 3.3 2.92509V4.47244C3.108 4.68451 3 4.95593 3 5.23607V6.39971C3 6.75375 3.1659 7.08393 3.4491 7.30415C3.7239 8.35927 4.299 9.15433 4.5 9.40945V10.3721C4.5 10.6537 4.3416 10.912 4.0869 11.047L1.4106 12.4625C0.5403 12.9233 0 13.806 0 14.7671V16H13.8V14.8239C13.8 13.8234 13.2267 12.9242 12.3042 12.4768Z" fill="black" fill-opacity="0.4"/>
<path d="M12.3042 12.4768L9.4383 11.0874C9.168 10.9562 9 10.6927 9 10.3994V9.41585C9.0687 9.3344 9.141 9.2416 9.2157 9.1392C9.5874 8.63011 9.8853 8.06342 10.1019 7.45222C10.5252 7.264 10.8 6.85818 10.8 6.4V5.23636C10.8 4.95622 10.692 4.6848 10.5 4.47273V2.92538C10.5168 2.76538 10.5828 1.81295 9.8724 1.0272C9.2562 0.3456 8.2563 0 6.9 0C5.5437 0 4.5438 0.3456 3.9276 1.02691C3.2172 1.81265 3.2832 2.76538 3.3 2.92509V4.47244C3.108 4.68451 3 4.95593 3 5.23607V6.39971C3 6.75375 3.1659 7.08393 3.4491 7.30415C3.7239 8.35927 4.299 9.15433 4.5 9.40945V10.3721C4.5 10.6537 4.3416 10.912 4.0869 11.047L1.4106 12.4625C0.5403 12.9233 0 13.806 0 14.7671V16H13.8V14.8239C13.8 13.8234 13.2267 12.9242 12.3042 12.4768Z" fill="#009344"/>
<path d="M16.6401 12.8076L13.7232 11.5828C13.6542 11.5494 13.5777 11.4676 13.512 11.3585L15.4695 11.3571C15.4695 11.3571 15.5826 11.3679 15.7581 11.3679C16.08 11.3679 16.5495 11.3324 16.9581 11.1622C17.2032 11.0598 17.3856 10.8576 17.4588 10.6074C17.5326 10.3549 17.4858 10.0876 17.331 9.87345C16.7715 9.10138 15.4656 7.08393 15.4248 5.03767C15.4239 5.00247 15.3057 1.52262 11.7618 1.4944C11.4057 1.49731 11.0691 1.53978 10.7502 1.61454C10.9878 2.22371 10.9659 2.76887 10.9497 2.94574V4.32262C11.1441 4.59083 11.2497 4.90938 11.2497 5.23636V6.4C11.2497 6.95476 10.9485 7.46822 10.4676 7.75622C10.2432 8.34443 9.9462 8.89396 9.5829 9.39142C9.5379 9.45338 9.4935 9.51185 9.45 9.56713V10.3991C9.45 10.5277 9.5208 10.6391 9.6393 10.6964L12.5052 12.0858C13.5813 12.6077 14.2497 13.6564 14.2497 14.8233V16H18V14.9245C18 14.025 17.4846 13.2169 16.6401 12.8076Z" fill="black" fill-opacity="0.4"/>
<path d="M16.6401 12.8076L13.7232 11.5828C13.6542 11.5494 13.5777 11.4676 13.512 11.3585L15.4695 11.3571C15.4695 11.3571 15.5826 11.3679 15.7581 11.3679C16.08 11.3679 16.5495 11.3324 16.9581 11.1622C17.2032 11.0598 17.3856 10.8576 17.4588 10.6074C17.5326 10.3549 17.4858 10.0876 17.331 9.87345C16.7715 9.10138 15.4656 7.08393 15.4248 5.03767C15.4239 5.00247 15.3057 1.52262 11.7618 1.4944C11.4057 1.49731 11.0691 1.53978 10.7502 1.61454C10.9878 2.22371 10.9659 2.76887 10.9497 2.94574V4.32262C11.1441 4.59083 11.2497 4.90938 11.2497 5.23636V6.4C11.2497 6.95476 10.9485 7.46822 10.4676 7.75622C10.2432 8.34443 9.9462 8.89396 9.5829 9.39142C9.5379 9.45338 9.4935 9.51185 9.45 9.56713V10.3991C9.45 10.5277 9.5208 10.6391 9.6393 10.6964L12.5052 12.0858C13.5813 12.6077 14.2497 13.6564 14.2497 14.8233V16H18V14.9245C18 14.025 17.4846 13.2169 16.6401 12.8076Z" fill="#009344"/>
</g>
</g>
</svg>
