<svg width="34" height="34" viewBox="0 0 34 34" fill="none" xmlns="http://www.w3.org/2000/svg">
<g clip-path="url(#clip0_550_7169)">
<path d="M28.7487 21.25C29.301 21.25 29.7487 21.6977 29.7487 22.25V25.5H32.9987C33.551 25.5 33.9987 25.9477 33.9987 26.5V27.3333C33.9987 27.8856 33.551 28.3333 32.9987 28.3333H29.7487V31.5833C29.7487 32.1356 29.301 32.5833 28.7487 32.5833H27.9154C27.3631 32.5833 26.9154 32.1356 26.9154 31.5833V28.3333H23.6654C23.1131 28.3333 22.6654 27.8856 22.6654 27.3333V26.5C22.6654 25.9477 23.1131 25.5 23.6654 25.5H26.9154V22.25C26.9154 21.6977 27.3631 21.25 27.9154 21.25H28.7487ZM29.76 4.25C30.5364 4.25 31.1654 4.88042 31.1654 5.65675V17.4167C31.1654 17.969 30.7176 18.4167 30.1654 18.4167H29.332C28.7797 18.4167 28.332 17.969 28.332 17.4167V7.08333H5.66536V26.9153L19.1249 13.457C19.5155 13.0665 20.1486 13.0666 20.5391 13.4571L23.7891 16.7071C23.9767 16.8946 24.082 17.149 24.082 17.4142V18.5935C24.082 19.4844 23.0049 19.9306 22.3749 19.3006L19.832 16.7578L9.67028 26.9167H18.832C19.3843 26.9167 19.832 27.3644 19.832 27.9167V28.75C19.832 29.3023 19.3843 29.75 18.832 29.75H4.23736C3.86452 29.7496 3.50707 29.6012 3.24356 29.3375C2.98005 29.0737 2.83203 28.7161 2.83203 28.3432V5.65675C2.83462 5.2847 2.98347 4.92861 3.24642 4.66539C3.50938 4.40218 3.86532 4.25297 4.23736 4.25H29.76ZM11.332 9.91667C12.0835 9.91667 12.8041 10.2152 13.3355 10.7465C13.8669 11.2779 14.1654 11.9986 14.1654 12.75C14.1654 13.5014 13.8669 14.2221 13.3355 14.7535C12.8041 15.2848 12.0835 15.5833 11.332 15.5833C10.5806 15.5833 9.85991 15.2848 9.32856 14.7535C8.79721 14.2221 8.4987 13.5014 8.4987 12.75C8.4987 11.9986 8.79721 11.2779 9.32856 10.7465C9.85991 10.2152 10.5806 9.91667 11.332 9.91667Z" fill="#909CB5"/>
</g>
<defs>
<clipPath id="clip0_550_7169">
<rect width="34" height="34" fill="white"/>
</clipPath>
</defs>
</svg>
